<svg xmlns="http://www.w3.org/2000/svg" viewBox="0 0 145.42 91.3"><defs><style>.cls-1{isolation:isolate;}.cls-2,.cls-6{opacity:0.27;mix-blend-mode:multiply;}.cls-3{fill:#00599b;}.cls-4{fill:#22c6ff;}.cls-5,.cls-8{font-size:47.21px;font-family:RalewayRoman-Black, RalewayRoman Black;font-weight:800;}.cls-5{fill:#0071bc;}.cls-7{fill:#fff;}.cls-8{fill:#0171bc;}</style></defs><g class="cls-1"><g id="Layer_2" data-name="Layer 2"><g id="Layer_1-2" data-name="Layer 1"><rect class="cls-2" x="2.69" y="12.08" width="140.05" height="79.22" rx="25.66"/><rect class="cls-3" width="145.42" height="81.39" rx="26.01"/><rect class="cls-4" x="5" y="5" width="135.42" height="71.39" rx="21.01"/><text class="cls-5" transform="translate(29.64 54.39)">Skip</text><g class="cls-6"><path d="M39.75,62.86A19.33,19.33,0,0,1,30,60.33l-1.85-1.24,2.81-9.3,3.32,2A11.52,11.52,0,0,0,40,53.46c1.67,0,3.66-.42,3.66-2.43,0-1,0-2-4.08-3.53-6.82-2.42-10.32-6.4-10.32-11.81,0-6.75,5.59-11.64,13.29-11.64A17.55,17.55,0,0,1,51.09,26l2.16,1.22L50.18,36.3,47,34.59a9.69,9.69,0,0,0-4.6-1.14c-1.88,0-3,.66-3,1.76,0,.84,0,1.64,4.41,3.34,4.67,1.81,10,4.82,10,12.15C53.89,56.75,49.51,62.86,39.75,62.86Z"/><polygon points="68.94 62.39 63.47 54.78 63.47 62.39 53.36 62.39 53.36 22.87 63.47 22.87 63.47 38.76 67.91 33.54 81.24 33.54 69.39 46.15 81.52 62.39 68.94 62.39"/><path d="M76.31,62.39V33.54h.62a5.63,5.63,0,0,1,4.46-9,5.46,5.46,0,0,1,5.55,5.6,5.36,5.36,0,0,1-1.12,3.42h.64V62.39Z"/><path d="M87.36,71.73V44c0-2.8-.09-5.07-.19-7.33L87,33.54h9.72l0,.63A12.93,12.93,0,0,1,102.3,33C109.65,33,115,39.16,115,47.63c0,10.5-6.94,15.28-13.39,15.28a12.43,12.43,0,0,1-4.13-.69v9.51ZM97.58,51.12a3.42,3.42,0,0,0,3.3,2.53c3.56,0,3.94-4.08,3.94-5.83,0-.56-.1-5.5-3.79-5.5a3.65,3.65,0,0,0-3.38,2.9,4.47,4.47,0,0,0-.19,1v3.92A6.66,6.66,0,0,0,97.58,51.12Z"/></g><path class="cls-7" d="M39.75,56.86a18.36,18.36,0,0,1-9.23-2.37l-1.24-.82,2.22-7.35,2.21,1.36A12.63,12.63,0,0,0,40,49.46c1.4,0,4.66-.33,4.66-3.43,0-1.5-.35-2.78-4.72-4.46-6.5-2.3-9.68-5.87-9.68-10.88,0-6.17,5.17-10.64,12.29-10.64a16.22,16.22,0,0,1,8,1.82l1.44.81-2.43,7.17-2.09-1.14a10.59,10.59,0,0,0-5.08-1.26c-2.95,0-4,1.43-4,2.76s.35,2.46,5.05,4.28c4.37,1.69,9.4,4.49,9.4,11.21C52.89,51.25,48.82,56.86,39.75,56.86Z"/><polygon class="cls-7" points="69.46 56.39 62.47 46.69 62.47 56.39 54.36 56.39 54.36 18.87 62.47 18.87 62.47 36.48 68.38 29.54 78.93 29.54 68.08 41.08 79.52 56.39 69.46 56.39"/><path class="cls-7" d="M77.31,56.39V29.54h2.9a4.48,4.48,0,0,1-3.42-4.42,4.55,4.55,0,0,1,4.6-4.6,4.48,4.48,0,0,1,4.55,4.6,4.39,4.39,0,0,1-1.22,3.17,4.6,4.6,0,0,1-2.26,1.25h3V56.39Z"/><path class="cls-7" d="M88.36,65.73V39c0-2.82-.09-5.1-.19-7.38l-.09-2.08H95.8l.07,1.29A11.39,11.39,0,0,1,102.3,29C109.07,29,114,34.74,114,42.63c0,9.81-6.42,14.28-12.39,14.28a11.12,11.12,0,0,1-5.13-1.21v10Zm8.25-19.38a4.41,4.41,0,0,0,4.27,3.3c4.59,0,4.94-5.23,4.94-6.83,0-3.23-1.48-6.5-4.79-6.5A4.65,4.65,0,0,0,96.68,40a5.38,5.38,0,0,0-.22,1.2v3.92A7,7,0,0,0,96.61,46.35Z"/><text class="cls-8" transform="translate(29.64 54.39)">Skip</text></g></g></g></svg>