<svg xmlns="http://www.w3.org/2000/svg" xmlns:xlink="http://www.w3.org/1999/xlink" viewBox="0 0 75 85.33"><defs><style>.cls-1{fill:none;}.cls-2,.cls-6{fill:#ccc;}.cls-2{stroke:gray;stroke-miterlimit:10;}.cls-3{fill:#999;}.cls-4{clip-path:url(#clip-path);}.cls-5{fill:#fff;opacity:0.37;}.cls-7{fill:gray;}.cls-8{clip-path:url(#clip-path-2);}.cls-9{fill:#b3b3b3;}.cls-10{fill:#e6e6e6;}.cls-11{clip-path:url(#clip-path-3);}.cls-12{opacity:0.5;}</style><clipPath id="clip-path" transform="translate(0 8.4)"><path class="cls-1" d="M37.5,2.6c0,.67-22,8.67-22.41,8.16.44.51-11.25,20.75-11.93,20.65.68.1,4.74,23.13,4.14,23.49.6-.36,18.51,14.67,18.27,15.34.24-.67,23.62-.67,23.86,0-.24-.67,17.67-15.7,18.27-15.34-.6-.36,3.46-23.39,4.14-23.49-.68.1-12.37-20.14-11.93-20.65C59.47,11.27,37.5,3.27,37.5,2.6Z"/></clipPath><clipPath id="clip-path-2" transform="translate(0 8.4)"><path class="cls-1" d="M37.5,7h0A30.5,30.5,0,1,0,68,37.5,30.53,30.53,0,0,0,37.5,7"/></clipPath><clipPath id="clip-path-3" transform="translate(0 8.4)"><circle class="cls-1" cx="37.5" cy="37.5" r="20.25"/></clipPath></defs><g id="Layer_2" data-name="Layer 2"><g id="BG"><circle class="cls-2" cx="37.5" cy="45.9" r="37"/><path class="cls-3" d="M37.5,2.6c0,.67-22,8.67-22.41,8.16.44.51-11.25,20.75-11.93,20.65.68.1,4.74,23.13,4.14,23.49.6-.36,18.51,14.67,18.27,15.34.24-.67,23.62-.67,23.86,0-.24-.67,17.67-15.7,18.27-15.34-.6-.36,3.46-23.39,4.14-23.49-.68.1-12.37-20.14-11.93-20.65C59.47,11.27,37.5,3.27,37.5,2.6Z" transform="translate(0 8.4)"/><g class="cls-4"><polygon class="cls-5" points="69.49 85.33 53.22 85.33 33.22 0 49.49 0 69.49 85.33"/><polygon class="cls-5" points="44.49 85.33 32.72 85.33 12.72 0 24.49 0 44.49 85.33"/></g><circle class="cls-6" cx="37.5" cy="45.9" r="29"/><path class="cls-7" d="M37.5,8.5a29,29,0,1,1-29,29,29,29,0,0,1,29-29m0-1.5A30.5,30.5,0,1,0,68,37.5,30.53,30.53,0,0,0,37.5,7Z" transform="translate(0 8.4)"/><g class="cls-8"><polygon class="cls-5" points="69.49 85.33 53.22 85.33 33.22 0 49.49 0 69.49 85.33"/><polygon class="cls-5" points="44.49 85.33 32.72 85.33 12.72 0 24.49 0 44.49 85.33"/></g><circle class="cls-1" cx="37.5" cy="45.9" r="29"/><path class="cls-1" d="M37.5,7A30.5,30.5,0,1,0,68,37.5,30.53,30.53,0,0,0,37.5,7Z" transform="translate(0 8.4)"/><circle class="cls-9" cx="37.5" cy="45.9" r="26"/><circle class="cls-10" cx="37.5" cy="45.9" r="21.25"/><circle class="cls-9" cx="37.5" cy="45.9" r="20.25"/><g class="cls-11"><g class="cls-12"><polygon class="cls-5" points="69.49 85.33 53.22 85.33 33.22 0 49.49 0 69.49 85.33"/><polygon class="cls-5" points="44.49 85.33 32.72 85.33 12.72 0 24.49 0 44.49 85.33"/></g></g><path class="cls-7" d="M45.75,28l1-3.75h-18l-1,3.75h8a4.24,4.24,0,0,1,1.49,2.75H27.75l-1,3.75h9.49C35.15,35.89,32.92,37,28.5,37h-2v4.78l10.28,9.58h6L30.9,40.64c5.94,0,8.73-3,9.8-6.14h4l1-3.75H41.23A8.14,8.14,0,0,0,40.58,28Z" transform="translate(0 8.4)"/><path class="cls-10" d="M46.75,24.25l-1,3.75H40.58a8.14,8.14,0,0,1,.65,2.75h4.52l-1,3.75h-4c-1.07,3.09-3.86,6.14-9.8,6.14L42.75,51.36h-6L26.5,41.78V37h2c4.42,0,6.65-1.11,7.74-2.5H26.75l1-3.75h9.47A4.24,4.24,0,0,0,35.73,28h-8l1-3.75h18m1-.75H28.17l-.14.55L27,27.8l-.26.95h8.67A3.38,3.38,0,0,1,36.27,30h-9.1l-.14.55L26,34.3l-.26,1h8.34a12.86,12.86,0,0,1-5.61,1H25.75v5.86l.24.22,10.28,9.58.22.2H44.7L43.25,50.8,32.74,41.29c5.33-.6,7.56-3.78,8.48-6h4.11l.14-.56,1-3.75.26-.94H41.91a10.26,10.26,0,0,0-.26-1.25h4.68l.14-.56,1-3.75.26-.94Z" transform="translate(0 8.4)"/></g></g></svg>