<svg xmlns="http://www.w3.org/2000/svg" xmlns:xlink="http://www.w3.org/1999/xlink" viewBox="0 0 75.5 85.33"><defs><style>.cls-1{fill:none;}.cls-2,.cls-4{fill:#ffcd5f;}.cls-2{stroke:#c2821e;stroke-miterlimit:10;}.cls-3{fill:#ffac00;}.cls-5{clip-path:url(#clip-path);}.cls-6,.cls-9{fill:#fff;}.cls-6{opacity:0.37;}.cls-7{fill:#c2821e;}.cls-8{clip-path:url(#clip-path-2);}.cls-9{opacity:0.19;}.cls-10{fill:#cf8f1d;}</style><clipPath id="clip-path" transform="translate(0 3.39)"><circle class="cls-1" cx="37.75" cy="37.75" r="34.25"/></clipPath><clipPath id="clip-path-2" transform="translate(0 3.39)"><circle class="cls-1" cx="37.75" cy="37.75" r="20.11" transform="translate(-12.02 18.43) rotate(-23.78)"/></clipPath></defs><g id="Layer_2" data-name="Layer 2"><g id="BG"><path class="cls-2" d="M75,37.75A37.25,37.25,0,1,1,37.75.5,37.25,37.25,0,0,1,75,37.75Z" transform="translate(0 3.39)"/><circle class="cls-3" cx="37.75" cy="41.14" r="34.25"/><circle class="cls-3" cx="37.75" cy="41.14" r="34.25"/><circle class="cls-4" cx="37.75" cy="37.75" r="29.9" transform="translate(-11.91 21.56) rotate(-23.48)"/><g class="cls-5"><polygon class="cls-6" points="69.24 85.33 52.97 85.33 32.97 0 49.24 0 69.24 85.33"/><polygon class="cls-6" points="44.24 85.33 32.47 85.33 12.47 0 24.24 0 44.24 85.33"/></g><circle class="cls-7" cx="37.75" cy="41.14" r="26.75"/><circle class="cls-3" cx="37.75" cy="37.75" r="25.4" transform="translate(-5.44 72.52) rotate(-80.99)"/><circle class="cls-4" cx="37.75" cy="37.75" r="21" transform="translate(-12.01 21.8) rotate(-23.75)"/><circle class="cls-3" cx="37.75" cy="37.75" r="20.11" transform="translate(-12.02 21.82) rotate(-23.78)"/><g class="cls-8"><polygon class="cls-9" points="69.24 85.33 52.97 85.33 32.97 0 49.24 0 69.24 85.33"/><polygon class="cls-9" points="44.24 85.33 32.47 85.33 12.47 0 24.24 0 44.24 85.33"/></g><path class="cls-10" d="M46,29l1-3.75H29L28,29h8a4.24,4.24,0,0,1,1.49,2.75H28L27,35.5h9.49C35.4,36.89,33.17,38,28.75,38h-2v4.79L37,52.36h6L31.15,41.64c5.94,0,8.73-3,9.8-6.14h4l1-3.75H41.48A8.14,8.14,0,0,0,40.83,29Z" transform="translate(0 3.39)"/><path class="cls-4" d="M47,25.25,46,29H40.83a8.14,8.14,0,0,1,.65,2.75H46L45,35.5H41c-1.07,3.09-3.86,6.14-9.8,6.14L43,52.36H37L26.75,42.79V38h2c4.42,0,6.65-1.11,7.74-2.5H27l1-3.75h9.47A4.24,4.24,0,0,0,36,29H28l1-3.75H47m1-.75H28.42l-.14.56-1,3.75-.26.94h8.67A3.47,3.47,0,0,1,36.52,31h-9.1l-.14.56-1,3.75-.26.94h8.34a12.86,12.86,0,0,1-5.61,1H26v5.86l.24.22,10.28,9.58.22.2H45L43.5,51.8,33,42.3c5.33-.6,7.56-3.79,8.48-6h4.11l.14-.56,1-3.75L47,31H42.16a10.67,10.67,0,0,0-.26-1.25h4.68l.14-.56,1-3.75L48,24.5Z" transform="translate(0 3.39)"/></g></g></svg>