<svg xmlns="http://www.w3.org/2000/svg" xmlns:xlink="http://www.w3.org/1999/xlink" viewBox="0 0 75.5 90.08"><defs><style>.cls-1{fill:none;}.cls-2,.cls-4{fill:#ffcd5f;}.cls-2{stroke:#c2821e;stroke-miterlimit:10;}.cls-3{fill:#ffac00;}.cls-5{clip-path:url(#clip-path);}.cls-6{fill:#fff;opacity:0.37;}.cls-7{fill:gray;}.cls-8{fill:#b3b3b3;}.cls-9{fill:#e6e6e6;}.cls-10{clip-path:url(#clip-path-2);}.cls-11{opacity:0.5;}</style><clipPath id="clip-path" transform="translate(0 8.15)"><circle class="cls-1" cx="37.75" cy="37.75" r="34.25"/></clipPath><clipPath id="clip-path-2" transform="translate(0 8.15)"><circle class="cls-1" cx="37.75" cy="37.75" r="20.25"/></clipPath></defs><g id="Layer_2" data-name="Layer 2"><g id="BG"><path class="cls-2" d="M75,37.75A37.25,37.25,0,1,1,37.75.5,37.25,37.25,0,0,1,75,37.75Z" transform="translate(0 8.15)"/><circle class="cls-3" cx="37.75" cy="45.9" r="34.25"/><circle class="cls-3" cx="37.75" cy="45.9" r="34.25"/><circle class="cls-4" cx="37.75" cy="37.75" r="29.9" transform="translate(-11.91 26.31) rotate(-23.48)"/><g class="cls-5"><polygon class="cls-6" points="69.24 90.08 52.97 90.08 32.97 4.75 49.24 4.75 69.24 90.08"/><polygon class="cls-6" points="44.24 90.08 32.47 90.08 12.47 4.75 24.24 4.75 44.24 90.08"/></g><circle class="cls-7" cx="37.75" cy="45.9" r="26.75"/><circle class="cls-8" cx="37.75" cy="37.75" r="25.4" transform="translate(-5.44 77.27) rotate(-80.99)"/><circle class="cls-9" cx="37.75" cy="45.9" r="21.25"/><circle class="cls-8" cx="37.75" cy="45.9" r="20.25"/><g class="cls-10"><g class="cls-11"><polygon class="cls-6" points="69.74 85.33 53.47 85.33 33.47 0 49.74 0 69.74 85.33"/><polygon class="cls-6" points="44.74 85.33 32.97 85.33 12.97 0 24.74 0 44.74 85.33"/></g></g><path class="cls-7" d="M46,28.25l1-3.75H29l-1,3.75h8A4.24,4.24,0,0,1,37.47,31H28l-1,3.75h9.49c-1.09,1.39-3.32,2.5-7.74,2.5h-2V42L37,51.61h6L31.15,40.89c5.94,0,8.73-3,9.8-6.14h4L46,31H41.48a8.14,8.14,0,0,0-.65-2.75Z" transform="translate(0 8.15)"/><path class="cls-9" d="M47,24.5l-1,3.75H40.83A8.14,8.14,0,0,1,41.48,31H46l-1,3.75H41c-1.07,3.09-3.86,6.14-9.8,6.14L43,51.61H37L26.75,42V37.25h2c4.42,0,6.65-1.11,7.74-2.5H27L28,31h9.47A4.24,4.24,0,0,0,36,28.25H28l1-3.75H47m1-.75H28.42l-.14.55-1,3.75L27,29h8.67a3.38,3.38,0,0,1,.83,1.25h-9.1l-.14.55-1,3.75-.26,1h8.34a12.86,12.86,0,0,1-5.61,1H26v5.86l.24.22,10.28,9.58.22.2H45L43.5,51.05,33,41.54c5.33-.6,7.56-3.78,8.48-6h4.11l.14-.56,1-3.75.26-.94H42.16A10.26,10.26,0,0,0,41.9,29h4.68l.14-.56,1-3.75.26-.94Z" transform="translate(0 8.15)"/></g></g></svg>