<svg xmlns="http://www.w3.org/2000/svg" viewBox="0 0 81.95 112.73"><defs><style>.cls-1{fill:gray;}.cls-2{fill:#1c517c;}.cls-3{fill:#ccc;}.cls-4{font-size:50px;fill:#fff;font-family:Raleway-Bold, Raleway;font-weight:700;}</style></defs><g id="Layer_2" data-name="Layer 2"><g id="BG"><path class="cls-1" d="M20.19,26.85C21.43,21.9,27.61,16,41,16.08,54.34,16,60.52,21.9,61.76,26.85c.92,3.67.82,6.27.13,8.07a118.85,118.85,0,0,1,16.87,4.72c.1-.51.2-1,.32-1.54,0,0,6-23-17.62-34.14A43.28,43.28,0,0,0,41,0,43.3,43.3,0,0,0,20.49,4C-3.09,15.09,2.87,38.1,2.87,38.1q.24,1,.42,2A93.09,93.09,0,0,1,20.07,35C19.37,33.14,19.26,30.54,20.19,26.85Z"/><path class="cls-2" d="M78.76,39.64a118.85,118.85,0,0,0-16.87-4.72c-1.7,4.45-7,4.13-9.53,3.43A89.11,89.11,0,0,0,41,36.5a89.16,89.16,0,0,0-11.39,1.85c-2.54.7-7.81,1-9.52-3.4A93.09,93.09,0,0,0,3.29,40.14c1.86,10.06-.42,16.2-.42,16.2C-2.41,68.76,1.22,84.5,1.22,84.5c9,29.7,29.28,28.23,39.76,28.21,12.18,0,30.55,0,39.75-28.21,0,0,3.63-15.74-1.65-28.16C79.08,56.34,76.73,50,78.76,39.64Z"/><path class="cls-3" d="M23.34,6.7a1,1,0,0,1-1.94.65A1,1,0,0,1,22,6.05,1,1,0,0,1,23.34,6.7Z"/><path class="cls-3" d="M26.16,5.89a1,1,0,0,1-.71,1.26,1.05,1.05,0,0,1-1.26-.71,1,1,0,1,1,2-.55Z"/><path class="cls-3" d="M29,5.21a1,1,0,0,1-.77,1.22,1,1,0,0,1-.46-2A1,1,0,0,1,29,5.21Z"/><path class="cls-3" d="M31.92,4.66a1,1,0,0,1-.82,1.18A1,1,0,0,1,29.91,5a1,1,0,1,1,2-.37Z"/><path class="cls-3" d="M34.83,4.24A1,1,0,0,1,34,5.38a1,1,0,0,1-1.14-.86,1,1,0,0,1,.87-1.17A1,1,0,0,1,34.83,4.24Z"/><path class="cls-3" d="M37.76,4a1,1,0,0,1-.93,1.1,1,1,0,1,1-.18-2A1,1,0,0,1,37.76,4Z"/><path class="cls-3" d="M40.7,3.83a1.06,1.06,0,0,1-1,1.06,1,1,0,0,1-.07-2A1,1,0,0,1,40.7,3.83Z"/><path class="cls-3" d="M43.64,3.87a1.06,1.06,0,0,1-1,1,1,1,0,0,1-1-1,1,1,0,0,1,1-1A1,1,0,0,1,43.64,3.87Z"/><path class="cls-3" d="M46.58,4.1a1,1,0,1,1-2-.18,1,1,0,0,1,2,.18Z"/><path class="cls-3" d="M49.49,4.51a1,1,0,0,1-1.16.85,1.07,1.07,0,0,1-.86-1.18,1,1,0,0,1,1.16-.85A1,1,0,0,1,49.49,4.51Z"/><path class="cls-3" d="M52.36,5.12a1,1,0,0,1-1.21.75,1.07,1.07,0,0,1-.78-1.21,1,1,0,0,1,1.23-.79A1,1,0,0,1,52.36,5.12Z"/><path class="cls-3" d="M55.19,5.93a1,1,0,0,1-1.26.65,1,1,0,0,1-.69-1.23,1,1,0,0,1,1.28-.73A1,1,0,0,1,55.19,5.93Z"/><path class="cls-3" d="M58,7a1.07,1.07,0,0,1-1.33.6A1,1,0,0,1,56,6.25a1,1,0,0,1,1.34-.61A1,1,0,0,1,58,7Z"/><path class="cls-3" d="M60.59,8.26a1,1,0,0,1-1.83-.91,1,1,0,1,1,1.83.91Z"/><path class="cls-3" d="M27.35,10.39a1,1,0,0,1-1.94.75,1,1,0,1,1,1.94-.75Z"/><path class="cls-3" d="M30.21,9.53a1,1,0,0,1-2,.58,1,1,0,0,1,2-.58Z"/><path class="cls-3" d="M33.13,8.91a1,1,0,0,1-2,.42,1,1,0,1,1,2-.42Z"/><path class="cls-3" d="M36.09,8.49a1,1,0,0,1-.9,1.14A1.05,1.05,0,0,1,34,8.75a1,1,0,0,1,.9-1.15A1,1,0,0,1,36.09,8.49Z"/><path class="cls-3" d="M39.07,8.29a1.06,1.06,0,0,1-1,1.08,1,1,0,0,1-1.09-1,1,1,0,0,1,2.07-.12Z"/><path class="cls-3" d="M42.05,8.31a1.06,1.06,0,0,1-1,1,1,1,0,0,1-1-1,1,1,0,0,1,1.06-1A1,1,0,0,1,42.05,8.31Z"/><path class="cls-3" d="M45,8.56a1.07,1.07,0,0,1-1.13.92,1,1,0,1,1,.19-2A1,1,0,0,1,45,8.56Z"/><path class="cls-3" d="M48,9a1.08,1.08,0,0,1-1.19.84,1,1,0,1,1,.34-2A1,1,0,0,1,48,9Z"/><path class="cls-3" d="M50.89,9.69a1.08,1.08,0,0,1-1.25.76,1,1,0,0,1-.77-1.23,1,1,0,0,1,1.26-.76A1,1,0,0,1,50.89,9.69Z"/><path class="cls-3" d="M53.74,10.58a1,1,0,0,1-2-.62,1,1,0,0,1,1.31-.66A1,1,0,0,1,53.74,10.58Z"/><path class="cls-3" d="M56.52,11.68a1,1,0,0,1-1.34.56,1,1,0,0,1-.58-1.34,1,1,0,0,1,1.92.78Z"/><path class="cls-3" d="M32.86,13.69A1.06,1.06,0,0,1,32.25,15a1.09,1.09,0,0,1-1.37-.53,1.07,1.07,0,0,1,2-.79Z"/><path class="cls-3" d="M35.83,12.89a1.07,1.07,0,0,1-2.07.51,1,1,0,0,1,.79-1.27A1,1,0,0,1,35.83,12.89Z"/><path class="cls-3" d="M38.88,12.48a1.05,1.05,0,0,1-.94,1.12,1.07,1.07,0,0,1-1.18-.87,1,1,0,0,1,.93-1.16A1,1,0,0,1,38.88,12.48Z"/><path class="cls-3" d="M42,12.42a1.07,1.07,0,0,1-2.13,0,1.07,1.07,0,1,1,2.13,0Z"/><path class="cls-3" d="M45,12.66a1.07,1.07,0,0,1-2.12-.21,1.07,1.07,0,0,1,2.12.21Z"/><path class="cls-3" d="M48,13.22a1.07,1.07,0,0,1-2.09-.41A1.06,1.06,0,0,1,47.19,12,1,1,0,0,1,48,13.22Z"/><path class="cls-3" d="M51,14a1.05,1.05,0,0,1-1.31.67A1.08,1.08,0,0,1,49,13.44a1,1,0,0,1,1.31-.7A1.05,1.05,0,0,1,51,14Z"/><text class="cls-4" transform="translate(27.15 86.69)">5</text></g></g></svg>