<svg xmlns="http://www.w3.org/2000/svg" viewBox="0 0 327.97 149.6"><defs><style>.cls-1{isolation:isolate;}.cls-2{fill:#ffce31;}.cls-3{fill:#999;mix-blend-mode:color-burn;}.cls-4{fill:#ffa910;}.cls-5{fill:#4d4d4d;}.cls-6{fill:#666;}</style></defs><g class="cls-1"><g id="Layer_2" data-name="Layer 2"><g id="Grid"><path class="cls-2" d="M11.88,13.26H316.09a0,0,0,0,1,0,0V34.19a37.65,37.65,0,0,1-37.65,37.65H49.53A37.65,37.65,0,0,1,11.88,34.19V13.26A0,0,0,0,1,11.88,13.26Z"/><path class="cls-3" d="M30.67,26.52H314.58a59.1,59.1,0,0,0,1.51-13.26H11.88A58.59,58.59,0,0,0,46.75,66.84,58.35,58.35,0,0,1,30.67,26.52Z"/><rect class="cls-2" width="327.97" height="13.26" rx="4.26"/><path class="cls-3" d="M122.4,6.63h0A6.63,6.63,0,0,1,129,0H6.63A6.63,6.63,0,0,0,0,6.63H0a6.63,6.63,0,0,0,6.63,6.63H129A6.63,6.63,0,0,1,122.4,6.63Z"/><rect class="cls-4" x="146.85" y="71.84" width="34.26" height="19.89"/><circle class="cls-5" cx="163.98" cy="116.61" r="32.99"/><circle class="cls-6" cx="163.98" cy="116.61" r="19.24"/></g></g></g></svg>