<svg xmlns="http://www.w3.org/2000/svg" viewBox="0 0 327.97 149.6"><defs><style>.cls-1{isolation:isolate;}.cls-2{fill:#ffce31;}.cls-3{fill:#999;mix-blend-mode:color-burn;}.cls-4{fill:#ffa910;}.cls-5{fill:#4d4d4d;}.cls-6{fill:#666;}</style></defs><g class="cls-1"><g id="Layer_2" data-name="Layer 2"><g id="Grid"><path class="cls-2" d="M49.53,13.26H278.44a37.65,37.65,0,0,1,37.65,37.65V71.84a0,0,0,0,1,0,0H11.88a0,0,0,0,1,0,0V50.91A37.65,37.65,0,0,1,49.53,13.26Z" transform="translate(327.97 85.1) rotate(180)"/><path class="cls-3" d="M297.3,26.52H13.39a58.53,58.53,0,0,1-1.51-13.26H316.09a58.59,58.59,0,0,1-34.87,53.58A58.39,58.39,0,0,0,297.3,26.52Z"/><rect class="cls-2" width="327.97" height="13.26" rx="4.26" transform="translate(327.97 13.26) rotate(180)"/><path class="cls-3" d="M205.57,6.63h0A6.63,6.63,0,0,0,198.94,0h122.4A6.63,6.63,0,0,1,328,6.63h0a6.63,6.63,0,0,1-6.63,6.63H198.94A6.63,6.63,0,0,0,205.57,6.63Z"/><rect class="cls-4" x="146.85" y="71.84" width="34.26" height="19.89" transform="translate(327.97 163.57) rotate(180)"/><circle class="cls-5" cx="163.98" cy="116.61" r="32.99"/><circle class="cls-6" cx="163.98" cy="116.61" r="19.24"/></g></g></g></svg>