<svg xmlns="http://www.w3.org/2000/svg" viewBox="0 0 696.27 87.02"><defs><style>.cls-1{isolation:isolate;}.cls-2{fill:gray;}.cls-3{fill:#b3b3b3;mix-blend-mode:soft-light;}.cls-4{fill:#e6e6e6;mix-blend-mode:color-burn;}</style></defs><g class="cls-1"><g id="Layer_2" data-name="Layer 2"><g id="Grid"><polygon class="cls-2" points="696.27 17.97 696.27 50.26 410.9 80.39 401.93 81.34 348.14 87.02 348.14 17.97 696.27 17.97"/><path class="cls-3" d="M435.19,66.09,614.48,48.43a10.12,10.12,0,0,0,9.13-10.07h0a10.13,10.13,0,0,0-10.12-10.13H433.33a19,19,0,0,0-19,19h0A19,19,0,0,0,435.19,66.09Z"/><polygon class="cls-2" points="348.14 17.97 348.14 87.02 294.35 81.34 285.37 80.39 0 50.26 0 17.97 348.14 17.97"/><path class="cls-3" d="M261.09,66.09,81.8,48.43a10.12,10.12,0,0,1-9.13-10.07h0A10.13,10.13,0,0,1,82.79,28.23H263a19,19,0,0,1,19,19h0A19,19,0,0,1,261.09,66.09Z"/><path class="cls-4" d="M410.9,53.44v27l-9,1L348.14,87l-53.79-5.68-9-1V53.44a62.44,62.44,0,0,1,11-35.47H308c.68-.76,1.38-1.5,2.09-2.22A53.79,53.79,0,0,1,388.26,18h11.67A62.51,62.51,0,0,1,410.9,53.44Z"/></g></g></g></svg>