<svg xmlns="http://www.w3.org/2000/svg" viewBox="0 0 239.47 139.64"><defs><style>.cls-1{isolation:isolate;}.cls-2,.cls-6{opacity:0.27;mix-blend-mode:multiply;}.cls-3{fill:#00599b;}.cls-4{fill:#22c6ff;}.cls-5,.cls-8{font-size:80px;font-family:Raleway-Black, Raleway;font-weight:800;}.cls-5{fill:#0071bc;}.cls-7{fill:#fff;}.cls-8{fill:#0171bc;}</style></defs><g class="cls-1"><g id="Layer_2" data-name="Layer 2"><g id="Layer_1-2" data-name="Layer 1"><rect class="cls-2" x="5.04" y="13.32" width="229.4" height="126.31" rx="25.66"/><rect class="cls-3" width="239.47" height="130.96" rx="26.01"/><rect class="cls-4" x="5" y="5" width="229.47" height="120.96" rx="21.01"/><text class="cls-5" transform="translate(33.72 88.68)">Play</text><g class="cls-6"><path d="M35.6,96.68V33.88H63.08a20.66,20.66,0,0,1,9,2,22.21,22.21,0,0,1,7,5.22,24.12,24.12,0,0,1,4.52,7.25,22.29,22.29,0,0,1,1.62,8.23A23.35,23.35,0,0,1,75,75.89a20,20,0,0,1-11.47,3.35H57.2V96.68Zm26.84-37a.4.4,0,0,0,.22-.09h0A2,2,0,0,0,63,59a6.07,6.07,0,0,0,.34-2.39A5.53,5.53,0,0,0,63,54.22a1.68,1.68,0,0,0-.4-.56,1.51,1.51,0,0,0-.57-.18H57.2v6.16Z"/><path d="M99.71,97.48c-4.83,0-8.68-1.34-11.44-4s-4.2-6.43-4.2-11.16v-50h21.2V77a3,3,0,0,0,.34,1.68c.09.12.47.12.58.12a4.53,4.53,0,0,0,1.26-.2,5.76,5.76,0,0,0,1.39-.59l3.74-2.18,3,17.72-2.07,1a31.08,31.08,0,0,1-6.77,2.22A34.44,34.44,0,0,1,99.71,97.48Z"/><path d="M151.79,97.48c-3.38,0-6-.66-7.91-2a9.09,9.09,0,0,1-2.61-2.74,21.62,21.62,0,0,1-3.87,2.56,20.13,20.13,0,0,1-9.21,2.2,19.21,19.21,0,0,1-8.89-2.06,16.27,16.27,0,0,1-6.44-5.82,15.44,15.44,0,0,1-2.39-8.4,15.16,15.16,0,0,1,2.9-9.12,17.15,17.15,0,0,1,4-3.9l-5.78-12.4,2.2-1.42A36,36,0,0,1,123.5,50a40,40,0,0,1,10.85-1.44c7.34,0,13.18,1.71,17.37,5.08,4.37,3.53,6.59,8.71,6.59,15.42v8a8.31,8.31,0,0,0,.05.9l2.83.28V96.1l-2.36.52c-1.3.28-2.57.5-3.75.64A27.18,27.18,0,0,1,151.79,97.48Zm-17.52-19.2a5,5,0,0,0-2.9.77c-.58.39-.58.61-.58.77a.17.17,0,0,0,.06.15,1.16,1.16,0,0,0,.55.39,3.36,3.36,0,0,0,1.35.24,7.62,7.62,0,0,0,2-.3,5.8,5.8,0,0,0,1.69-.72,2.93,2.93,0,0,0,.64-.57v-.38l-.46-.09A13.31,13.31,0,0,0,134.27,78.28Z"/><path d="M169.31,115.4a25.18,25.18,0,0,1-4.5-.4,22.79,22.79,0,0,1-4.49-1.34l-1.85-.77V93.71l4,1.38a29,29,0,0,0,3.09.91,9.62,9.62,0,0,0,2.16.28A3.15,3.15,0,0,0,169.1,96a1.26,1.26,0,0,0,.51-.57,4.42,4.42,0,0,0,.4-1.27l-16.51-45h22.12l5.47,18,4.44-18h20.56L190.66,99.71a21.23,21.23,0,0,1-4.55,8.22,22.31,22.31,0,0,1-16.8,7.47Z"/></g><path class="cls-7" d="M35.6,91.68V28.88H63.08a20.66,20.66,0,0,1,9,2,22.21,22.21,0,0,1,7,5.22,24.12,24.12,0,0,1,4.52,7.25,22.29,22.29,0,0,1,1.62,8.23A23.35,23.35,0,0,1,75,70.89a20,20,0,0,1-11.47,3.35H57.2V91.68Zm26.84-37a.4.4,0,0,0,.22-.09h0A2,2,0,0,0,63,54a6.07,6.07,0,0,0,.34-2.39A5.53,5.53,0,0,0,63,49.22a1.68,1.68,0,0,0-.4-.56,1.51,1.51,0,0,0-.57-.18H57.2v6.16Z"/><path class="cls-7" d="M99.71,92.48c-4.83,0-8.68-1.34-11.44-4s-4.2-6.43-4.2-11.16v-50h21.2V72a3,3,0,0,0,.34,1.68c.09.12.47.12.58.12a4.53,4.53,0,0,0,1.26-.2,5.76,5.76,0,0,0,1.39-.59l3.74-2.18,3,17.72-2.07,1a31.08,31.08,0,0,1-6.77,2.22A34.44,34.44,0,0,1,99.71,92.48Z"/><path class="cls-7" d="M151.79,92.48c-3.38,0-6-.66-7.91-2a9.09,9.09,0,0,1-2.61-2.74,21.62,21.62,0,0,1-3.87,2.56,20.13,20.13,0,0,1-9.21,2.2,19.21,19.21,0,0,1-8.89-2.06,16.27,16.27,0,0,1-6.44-5.82,15.44,15.44,0,0,1-2.39-8.4,15.16,15.16,0,0,1,2.9-9.12,17.15,17.15,0,0,1,4-3.9l-5.78-12.4,2.2-1.42A36,36,0,0,1,123.5,45a40,40,0,0,1,10.85-1.44c7.34,0,13.18,1.71,17.37,5.08,4.37,3.53,6.59,8.71,6.59,15.42v8a8.31,8.31,0,0,0,.05.9l2.83.28V91.1l-2.36.52c-1.3.28-2.57.5-3.75.64A27.18,27.18,0,0,1,151.79,92.48Zm-17.52-19.2a5,5,0,0,0-2.9.77c-.58.39-.58.61-.58.77a.17.17,0,0,0,.06.15,1.16,1.16,0,0,0,.55.39,3.36,3.36,0,0,0,1.35.24,7.62,7.62,0,0,0,2-.3,5.8,5.8,0,0,0,1.69-.72,2.93,2.93,0,0,0,.64-.57v-.38l-.46-.09A13.31,13.31,0,0,0,134.27,73.28Z"/><path class="cls-7" d="M169.31,110.4a25.18,25.18,0,0,1-4.5-.4,22.79,22.79,0,0,1-4.49-1.34l-1.85-.77V88.71l4,1.38a29,29,0,0,0,3.09.91,9.62,9.62,0,0,0,2.16.28A3.15,3.15,0,0,0,169.1,91a1.26,1.26,0,0,0,.51-.57,4.42,4.42,0,0,0,.4-1.27l-16.51-45h22.12l5.47,17.95,4.44-17.95h20.56L190.66,94.71a21.23,21.23,0,0,1-4.55,8.22,22.31,22.31,0,0,1-16.8,7.47Z"/><text class="cls-8" transform="translate(33.72 88.68)">Play</text></g></g></g></svg>