<svg xmlns="http://www.w3.org/2000/svg" viewBox="0 0 916.63 177.45"><defs><style>.cls-1{isolation:isolate;}.cls-2,.cls-7{opacity:0.25;}.cls-2{mix-blend-mode:multiply;}.cls-3{stroke:#000;}.cls-3,.cls-4{stroke-miterlimit:10;stroke-width:3px;}.cls-4{fill:#ebfcff;stroke:#3c4954;}.cls-5{opacity:0.5;}.cls-6,.cls-8{fill:#3c4954;}.cls-8{font-size:80px;font-family:RalewayRoman-Black, RalewayRoman Black;font-weight:800;}</style></defs><g class="cls-1"><g id="Layer_2" data-name="Layer 2"><g id="Layer_1-2" data-name="Layer 1"><g id="ruler_4" data-name="ruler 4"><g class="cls-2"><rect class="cls-3" x="1.5" y="13.5" width="913.63" height="162.45" rx="8.55"/><rect x="664.83" y="146.9" width="6.8" height="29.05"/><rect x="648.69" y="157.9" width="6.8" height="18.05"/><rect x="632.54" y="146.9" width="6.8" height="29.05"/><rect x="616.39" y="157.9" width="6.8" height="18.05"/><rect x="600.24" y="146.9" width="6.8" height="29.05"/><rect x="584.1" y="157.9" width="6.8" height="18.05"/><rect x="567.95" y="146.9" width="6.8" height="29.05"/><rect x="551.8" y="157.9" width="6.8" height="18.05"/><rect x="535.65" y="146.9" width="6.8" height="29.05"/><rect x="519.5" y="157.9" width="6.8" height="18.05"/><rect x="503.36" y="146.9" width="6.8" height="29.05"/><rect x="487.21" y="157.9" width="6.8" height="18.05"/><rect x="471.06" y="146.9" width="6.8" height="29.05"/><rect x="454.91" y="157.9" width="6.8" height="18.05"/><rect x="438.76" y="146.9" width="6.8" height="29.05"/><rect x="422.62" y="157.9" width="6.8" height="18.05"/><rect x="406.47" y="146.9" width="6.8" height="29.05"/><rect x="390.32" y="157.9" width="6.8" height="18.05"/><rect x="374.17" y="146.9" width="6.8" height="29.05"/><rect x="358.03" y="157.9" width="6.8" height="18.05"/><rect x="341.88" y="146.9" width="6.8" height="29.05"/><rect x="325.73" y="157.9" width="6.8" height="18.05"/><rect x="309.58" y="146.9" width="6.8" height="29.05"/><rect x="293.43" y="157.9" width="6.8" height="18.05"/><rect x="277.29" y="146.9" width="6.8" height="29.05"/><rect x="261.14" y="157.9" width="6.8" height="18.05"/><rect x="244.99" y="146.9" width="6.8" height="29.05"/><rect x="228.84" y="157.9" width="6.8" height="18.05"/><rect x="212.69" y="146.9" width="6.8" height="29.05"/><rect x="196.55" y="157.9" width="6.8" height="18.05"/><rect x="180.4" y="146.9" width="6.8" height="29.05"/><rect x="164.25" y="157.9" width="6.8" height="18.05"/><rect x="148.1" y="146.9" width="6.8" height="29.05"/><rect x="131.96" y="157.9" width="6.8" height="18.05"/><rect x="115.81" y="146.9" width="6.8" height="29.05"/><rect x="99.66" y="157.9" width="6.8" height="18.05"/><rect x="83.51" y="146.9" width="6.8" height="29.05"/><rect x="67.36" y="157.9" width="6.8" height="18.05"/><rect x="51.22" y="146.9" width="6.8" height="29.05"/><rect x="35.07" y="157.9" width="6.8" height="18.05"/><rect x="18.92" y="146.9" width="6.8" height="29.05"/><rect x="890.9" y="146.9" width="6.8" height="29.05"/><rect x="874.76" y="157.9" width="6.8" height="18.05"/><rect x="858.61" y="146.9" width="6.8" height="29.05"/><rect x="842.46" y="157.9" width="6.8" height="18.05"/><rect x="826.31" y="146.9" width="6.8" height="29.05"/><rect x="810.17" y="157.9" width="6.8" height="18.05"/><rect x="794.02" y="146.9" width="6.8" height="29.05"/><rect x="777.87" y="157.9" width="6.8" height="18.05"/><rect x="761.72" y="146.9" width="6.8" height="29.05"/><rect x="745.57" y="157.9" width="6.8" height="18.05"/><rect x="729.43" y="146.9" width="6.8" height="29.05"/><rect x="713.28" y="157.9" width="6.8" height="18.05"/><rect x="697.13" y="146.9" width="6.8" height="29.05"/><rect x="680.98" y="157.9" width="6.8" height="18.05"/></g><rect class="cls-4" x="1.5" y="1.5" width="913.63" height="162.45" rx="8.55"/><g class="cls-5"><rect class="cls-6" x="664.83" y="134.9" width="6.8" height="29.05"/></g><g class="cls-7"><rect class="cls-6" x="648.69" y="145.9" width="6.8" height="18.05"/></g><g class="cls-5"><rect class="cls-6" x="632.54" y="134.9" width="6.8" height="29.05"/></g><g class="cls-7"><rect class="cls-6" x="616.39" y="145.9" width="6.8" height="18.05"/></g><g class="cls-5"><rect class="cls-6" x="600.24" y="134.9" width="6.8" height="29.05"/></g><g class="cls-7"><rect class="cls-6" x="584.1" y="145.9" width="6.8" height="18.05"/></g><g class="cls-5"><rect class="cls-6" x="567.95" y="134.9" width="6.8" height="29.05"/></g><g class="cls-7"><rect class="cls-6" x="551.8" y="145.9" width="6.8" height="18.05"/></g><g class="cls-5"><rect class="cls-6" x="535.65" y="134.9" width="6.8" height="29.05"/></g><g class="cls-7"><rect class="cls-6" x="519.5" y="145.9" width="6.8" height="18.05"/></g><g class="cls-5"><rect class="cls-6" x="503.36" y="134.9" width="6.8" height="29.05"/></g><g class="cls-7"><rect class="cls-6" x="487.21" y="145.9" width="6.8" height="18.05"/></g><g class="cls-5"><rect class="cls-6" x="471.06" y="134.9" width="6.8" height="29.05"/></g><g class="cls-7"><rect class="cls-6" x="454.91" y="145.9" width="6.8" height="18.05"/></g><g class="cls-5"><rect class="cls-6" x="438.76" y="134.9" width="6.8" height="29.05"/></g><g class="cls-7"><rect class="cls-6" x="422.62" y="145.9" width="6.8" height="18.05"/></g><g class="cls-5"><rect class="cls-6" x="406.47" y="134.9" width="6.8" height="29.05"/></g><g class="cls-7"><rect class="cls-6" x="390.32" y="145.9" width="6.8" height="18.05"/></g><g class="cls-5"><rect class="cls-6" x="374.17" y="134.9" width="6.8" height="29.05"/></g><g class="cls-7"><rect class="cls-6" x="358.03" y="145.9" width="6.8" height="18.05"/></g><g class="cls-5"><rect class="cls-6" x="341.88" y="134.9" width="6.8" height="29.05"/></g><g class="cls-7"><rect class="cls-6" x="325.73" y="145.9" width="6.8" height="18.05"/></g><g class="cls-5"><rect class="cls-6" x="309.58" y="134.9" width="6.8" height="29.05"/></g><g class="cls-7"><rect class="cls-6" x="293.43" y="145.9" width="6.8" height="18.05"/></g><g class="cls-5"><rect class="cls-6" x="277.29" y="134.9" width="6.8" height="29.05"/></g><g class="cls-7"><rect class="cls-6" x="261.14" y="145.9" width="6.8" height="18.05"/></g><g class="cls-5"><rect class="cls-6" x="244.99" y="134.9" width="6.8" height="29.05"/></g><g class="cls-7"><rect class="cls-6" x="228.84" y="145.9" width="6.8" height="18.05"/></g><g class="cls-5"><rect class="cls-6" x="212.69" y="134.9" width="6.8" height="29.05"/></g><g class="cls-7"><rect class="cls-6" x="196.55" y="145.9" width="6.8" height="18.05"/></g><g class="cls-5"><rect class="cls-6" x="180.4" y="134.9" width="6.8" height="29.05"/></g><g class="cls-7"><rect class="cls-6" x="164.25" y="145.9" width="6.8" height="18.05"/></g><g class="cls-5"><rect class="cls-6" x="148.1" y="134.9" width="6.8" height="29.05"/></g><g class="cls-7"><rect class="cls-6" x="131.96" y="145.9" width="6.8" height="18.05"/></g><g class="cls-5"><rect class="cls-6" x="115.81" y="134.9" width="6.8" height="29.05"/></g><g class="cls-7"><rect class="cls-6" x="99.66" y="145.9" width="6.8" height="18.05"/></g><g class="cls-5"><rect class="cls-6" x="83.51" y="134.9" width="6.8" height="29.05"/></g><g class="cls-7"><rect class="cls-6" x="67.36" y="145.9" width="6.8" height="18.05"/></g><g class="cls-5"><rect class="cls-6" x="51.22" y="134.9" width="6.8" height="29.05"/></g><g class="cls-7"><rect class="cls-6" x="35.07" y="145.9" width="6.8" height="18.05"/></g><g class="cls-5"><rect class="cls-6" x="18.92" y="134.9" width="6.8" height="29.05"/></g><g class="cls-5"><rect class="cls-6" x="890.9" y="134.9" width="6.8" height="29.05"/></g><g class="cls-7"><rect class="cls-6" x="874.76" y="145.9" width="6.8" height="18.05"/></g><g class="cls-5"><rect class="cls-6" x="858.61" y="134.9" width="6.8" height="29.05"/></g><g class="cls-7"><rect class="cls-6" x="842.46" y="145.9" width="6.8" height="18.05"/></g><g class="cls-5"><rect class="cls-6" x="826.31" y="134.9" width="6.8" height="29.05"/></g><g class="cls-7"><rect class="cls-6" x="810.17" y="145.9" width="6.8" height="18.05"/></g><g class="cls-5"><rect class="cls-6" x="794.02" y="134.9" width="6.8" height="29.05"/></g><g class="cls-7"><rect class="cls-6" x="777.87" y="145.9" width="6.8" height="18.05"/></g><g class="cls-5"><rect class="cls-6" x="761.72" y="134.9" width="6.8" height="29.05"/></g><g class="cls-7"><rect class="cls-6" x="745.57" y="145.9" width="6.8" height="18.05"/></g><g class="cls-5"><rect class="cls-6" x="729.43" y="134.9" width="6.8" height="29.05"/></g><g class="cls-7"><rect class="cls-6" x="713.28" y="145.9" width="6.8" height="18.05"/></g><g class="cls-5"><rect class="cls-6" x="697.13" y="134.9" width="6.8" height="29.05"/></g><g class="cls-7"><rect class="cls-6" x="680.98" y="145.9" width="6.8" height="18.05"/></g></g><text class="cls-8" transform="translate(96.72 100.04)">Algebraic Expressions</text></g></g></g></svg>