<svg xmlns="http://www.w3.org/2000/svg" viewBox="0 0 806.16 139.84"><defs><style>.cls-1{isolation:isolate;}.cls-11,.cls-2{font-size:132.75px;font-family:Basillion;}.cls-3{letter-spacing:0.01em;}.cls-4{letter-spacing:0.02em;}.cls-5{letter-spacing:0.02em;}.cls-6{letter-spacing:-0.03em;}.cls-7{letter-spacing:-0.11em;}.cls-8{letter-spacing:0em;}.cls-9{letter-spacing:0.02em;}.cls-10{opacity:0.27;mix-blend-mode:multiply;}.cls-11{fill:#ff0;}</style></defs><g class="cls-1"><g id="Layer_2" data-name="Layer 2"><g id="Layer_2-2" data-name="Layer 2"><text class="cls-2" transform="translate(0 119.47)">S<tspan class="cls-3" x="73.94" y="0">i</tspan><tspan class="cls-4" x="133.41" y="0">m</tspan><tspan class="cls-5" x="223.94" y="0">u</tspan><tspan class="cls-6" x="302.66" y="0">l</tspan><tspan class="cls-7" x="365.58" y="0">a</tspan><tspan class="cls-8" x="437.93" y="0">t</tspan><tspan x="510.54" y="0">i</tspan><tspan class="cls-9" x="568.68" y="0">on</tspan><tspan x="732.22" y="0">s</tspan></text><g class="cls-10"><path d="M64.87,139.84c-13.93,0-23.32-4-27.92-11.73-3.08-5.09-4.67-13.54-4.84-25.79-.09-1.82-.13-4-.13-6.74a2.87,2.87,0,0,1,2.75-3h20a2.86,2.86,0,0,1,2.74,3c0,10.65.8,14.3,1.31,15.54.46.91,1.82,3.29,7.26,3.39,4,0,5.95-1.82,6.56-6.11a35.18,35.18,0,0,0,.23-6.9c-.35-.53-2.09-2.52-9.92-6.86C52.35,88.89,46,85.24,43.43,83.49c-7.26-5.14-10.87-9.95-11.08-14.72-.5-14.43.15-24.17,2-29.81,2.71-8.1,8.67-13.21,17.72-15.19a60,60,0,0,1,13-1.25c15.3,0,25.32,5.17,29.8,15.37,2.33,5.53,3.45,14.09,3.45,26.23a2.86,2.86,0,0,1-2.74,3h-20a2.86,2.86,0,0,1-2.74-3c0-8.47-.92-11-1.32-11.73-1.07-1.86-3.55-2.82-7.34-2.82-5.84,0-6.92,3-7.18,6a31.89,31.89,0,0,0,.45,6.19s.78,2.08,9,6.32c12.94,6.47,15.56,8,16.41,8.5,9.65,6,14.51,12.28,14.81,19.27.42,13.56-.23,22.69-2,28-2.63,7.82-8.46,12.79-17.34,14.77A64,64,0,0,1,64.87,139.84Z"/><path d="M103,137.45a2.86,2.86,0,0,1-2.74-3V110.71a2.86,2.86,0,0,1,2.74-3h9.39V54.88H103a2.86,2.86,0,0,1-2.74-3V28.14a2.86,2.86,0,0,1,2.74-3h46.31a2.87,2.87,0,0,1,2.75,3V51.91a2.87,2.87,0,0,1-2.75,3H139.9v52.86h9.38a2.87,2.87,0,0,1,2.75,3v23.77a2.87,2.87,0,0,1-2.75,3Z"/><path d="M209.44,137.58a2.86,2.86,0,0,1-2.74-3V73.48L197,88.4a2.69,2.69,0,0,1-2.24,1.26h0a2.69,2.69,0,0,1-2.24-1.27l-9.71-15v61.22a2.87,2.87,0,0,1-2.75,3H157.86a2.86,2.86,0,0,1-2.74-3V28.14a2.86,2.86,0,0,1,2.74-3H180A2.76,2.76,0,0,1,182.56,27L194.74,44.9,206.92,27a2.75,2.75,0,0,1,2.52-1.81h22.18a2.86,2.86,0,0,1,2.74,3V134.61a2.86,2.86,0,0,1-2.74,3Z"/><path d="M272.78,139.57c-15.91,0-26.34-7-31-20.94-2.06-6.23-3.11-14.07-3.11-23.31V28.14a2.87,2.87,0,0,1,2.75-3h21.19a2.86,2.86,0,0,1,2.74,3c0,23.4,0,43,.13,58.26.1,16,1.5,21,2.33,22.58.57,1,1.75,2.48,5,2.48,2.71-.06,4.29-1.4,5.24-4.47.65-2.3,1.48-7.79,1.58-20.59.08-10.4.12-30,.12-58.26a2.86,2.86,0,0,1,2.74-3h21.2a2.86,2.86,0,0,1,2.74,3V95.32c0,18.07-3.56,30.14-10.89,36.9C290.1,137.11,282.46,139.57,272.78,139.57Z"/><path d="M314.07,137.45a2.86,2.86,0,0,1-2.74-3V28.14a2.86,2.86,0,0,1,2.74-3h22.05a2.87,2.87,0,0,1,2.75,3v79.6h29.72a2.86,2.86,0,0,1,2.74,3v23.77a2.86,2.86,0,0,1-2.74,3Z"/><path d="M425.08,137.45a2.79,2.79,0,0,1-2.65-2.2l-3.13-12.54H398.63l-3.13,12.54a2.8,2.8,0,0,1-2.65,2.2H372.14a2.66,2.66,0,0,1-2.17-1.17,3.15,3.15,0,0,1-.47-2.57L395.84,27.37a2.8,2.8,0,0,1,2.65-2.2h20.95a2.81,2.81,0,0,1,2.65,2.2l26.34,106.34a3.15,3.15,0,0,1-.47,2.57,2.68,2.68,0,0,1-2.18,1.17ZM404.27,99.13l9.29-.31-4.64-26.09Z"/><path d="M457.42,137.45a2.86,2.86,0,0,1-2.74-3V54.88H438.92a2.86,2.86,0,0,1-2.74-3V28.14a2.86,2.86,0,0,1,2.74-3H498.1a2.86,2.86,0,0,1,2.74,3V51.91a2.86,2.86,0,0,1-2.74,3H482.34v79.6a2.86,2.86,0,0,1-2.74,3Z"/><path d="M505.94,137.45a2.87,2.87,0,0,1-2.75-3V110.71a2.87,2.87,0,0,1,2.75-3h9.38V54.88h-9.38a2.87,2.87,0,0,1-2.75-3V28.14a2.87,2.87,0,0,1,2.75-3h46.31a2.86,2.86,0,0,1,2.74,3V51.91a2.86,2.86,0,0,1-2.74,3h-9.39v52.86h9.39a2.86,2.86,0,0,1,2.74,3v23.77a2.86,2.86,0,0,1-2.74,3Z"/><path d="M591.21,139.84c-16.48,0-27.05-8.09-31.42-24-2-7.63-2.93-18.83-2.93-34.3s.87-26.4,2.67-33.45C564,31.2,574.63,22.62,591.2,22.52c16.31,0,26.84,7.94,31.3,23.6,2.06,7.16,3.06,18.3,3.06,34.06v1.33c0,15.36-.83,26.13-2.54,32.91-3.83,15.41-13,23.92-27.4,25.27C594.08,139.79,592.62,139.84,591.21,139.84Zm0-90.41a5.27,5.27,0,0,0-2.4.53,4,4,0,0,0-1.57,1.54,28,28,0,0,0-1.71,3.22,17,17,0,0,0-1,4.07c-.32,2-.56,3.7-.72,5.09s-.27,3.31-.34,5.78-.15,4.53-.19,5.9-.06,3.21-.06,5.82c0,13,.76,21.78,2.27,26,1.8,4.87,4.19,5.49,5.83,5.53,4.13,0,6.67-5.21,7.5-15.48.24-3.41.36-8.83.36-16.06,0-13.13-.73-22-2.17-26.35C595.17,50,592.82,49.43,591.21,49.43Z"/><path d="M679.79,137.71a2.58,2.58,0,0,1-1.34-.38,3,3,0,0,1-1.64-2.59L656.56,87.43v47.18a2.86,2.86,0,0,1-2.74,3H632.5a2.86,2.86,0,0,1-2.74-3V28.14a2.86,2.86,0,0,1,2.74-3h21.32a2.74,2.74,0,0,1,2.48,1.71c3.47,8,8.68,19.77,15.92,36.08l4.59,10.41V28.14a2.86,2.86,0,0,1,2.74-3h21.32a2.86,2.86,0,0,1,2.74,3V134.61a2.86,2.86,0,0,1-2.74,3H680.73a2.45,2.45,0,0,1-.81.13Z"/><path d="M740.68,139.84c-13.92,0-23.31-4-27.91-11.73-3.08-5.09-4.67-13.54-4.84-25.8-.09-1.79-.13-4.06-.13-6.73a2.86,2.86,0,0,1,2.74-3h20a2.87,2.87,0,0,1,2.75,3c0,10.65.8,14.3,1.3,15.54.47.91,1.83,3.29,7.27,3.39,4,0,5.95-1.82,6.56-6.11a36.05,36.05,0,0,0,.23-6.9c-.35-.53-2.09-2.52-9.92-6.86-10.53-5.75-16.9-9.4-19.45-11.15-7.26-5.14-10.87-9.95-11.08-14.72-.51-14.43.15-24.17,2-29.81,2.71-8.1,8.67-13.21,17.72-15.19a59.89,59.89,0,0,1,13-1.25c15.29,0,25.32,5.17,29.8,15.37,2.33,5.53,3.45,14.09,3.45,26.23a2.86,2.86,0,0,1-2.74,3h-20a2.87,2.87,0,0,1-2.75-3c0-8.47-.92-11-1.31-11.73-1.08-1.86-3.55-2.82-7.34-2.82-4.66,0-6.81,1.79-7.19,6a32.78,32.78,0,0,0,.46,6.19s.78,2.08,9,6.32c12.94,6.48,15.57,8,16.41,8.5,9.65,6,14.51,12.28,14.8,19.27.43,13.56-.23,22.69-2,28-2.62,7.82-8.45,12.79-17.34,14.77A63.84,63.84,0,0,1,740.68,139.84Z"/><path d="M63.51,139.09c-14,0-23.41-3.94-28-11.72-3.09-5.1-4.69-13.54-4.86-25.8-.09-1.81-.13-4-.13-6.73a2.87,2.87,0,0,1,2.76-3h20a2.87,2.87,0,0,1,2.75,3c0,10.65.81,14.3,1.31,15.53.47.92,1.84,3.3,7.3,3.4,4,0,6-1.83,6.58-6.11a35.23,35.23,0,0,0,.24-6.91c-.36-.52-2.1-2.52-10-6.85-10.58-5.75-17-9.4-19.54-11.16C34.7,77.61,31.08,72.8,30.87,68c-.52-14.43.14-24.18,2-29.81C35.59,30.12,41.57,25,50.66,23a60.39,60.39,0,0,1,13.09-1.26c15.36,0,25.43,5.18,29.92,15.37,2.34,5.53,3.47,14.1,3.47,26.24a2.87,2.87,0,0,1-2.76,3h-20a2.87,2.87,0,0,1-2.75-3c0-8.48-.92-11-1.32-11.74-1.08-1.86-3.56-2.82-7.37-2.82-5.87,0-7,3-7.21,6a31.94,31.94,0,0,0,.45,6.2c0,.05.79,2.08,9.05,6.32,13,6.47,15.63,8,16.47,8.5,9.7,6,14.58,12.28,14.87,19.27.43,13.55-.23,22.69-2,28-2.63,7.81-8.49,12.78-17.41,14.77A64.4,64.4,0,0,1,63.51,139.09Z"/><path d="M101.76,136.7a2.87,2.87,0,0,1-2.75-3V110a2.87,2.87,0,0,1,2.75-3h9.43V54.13h-9.43a2.87,2.87,0,0,1-2.75-3V27.4a2.87,2.87,0,0,1,2.75-3h46.5a2.87,2.87,0,0,1,2.76,3V51.16a2.87,2.87,0,0,1-2.76,3h-9.42V107h9.42a2.87,2.87,0,0,1,2.76,3v23.76a2.87,2.87,0,0,1-2.76,3Z"/><path d="M208.66,136.84a2.87,2.87,0,0,1-2.75-3V72.74l-9.76,14.92a2.72,2.72,0,0,1-2.25,1.25h0a2.68,2.68,0,0,1-2.25-1.26l-9.76-15v61.21a2.87,2.87,0,0,1-2.75,3H156.87a2.87,2.87,0,0,1-2.75-3V27.4a2.87,2.87,0,0,1,2.75-3h22.27a2.74,2.74,0,0,1,2.53,1.81L193.9,44.16l12.23-17.92a2.74,2.74,0,0,1,2.53-1.81h22.27a2.87,2.87,0,0,1,2.75,3V133.86a2.87,2.87,0,0,1-2.75,3Z"/><path d="M272.26,138.83c-16,0-26.45-7.05-31.13-20.94-2.07-6.24-3.12-14.08-3.12-23.32V27.4a2.87,2.87,0,0,1,2.76-3h21.28a2.87,2.87,0,0,1,2.75,3c0,23.39,0,43,.12,58.26.11,16,1.52,21,2.35,22.58.57,1,1.75,2.48,5,2.48,2.72-.06,4.31-1.4,5.26-4.48.65-2.29,1.48-7.78,1.58-20.59.08-10.4.12-30,.12-58.25a2.87,2.87,0,0,1,2.76-3h21.28a2.87,2.87,0,0,1,2.75,3V94.57c0,18.08-3.58,30.15-10.93,36.91C289.65,136.36,282,138.83,272.26,138.83Z"/><path d="M313.71,136.7a2.87,2.87,0,0,1-2.75-3V27.4a2.87,2.87,0,0,1,2.75-3h22.14a2.87,2.87,0,0,1,2.76,3V107h29.84a2.87,2.87,0,0,1,2.76,3v23.76a2.87,2.87,0,0,1-2.76,3Z"/><path d="M425.16,136.7a2.79,2.79,0,0,1-2.65-2.19L419.37,122H398.61l-3.14,12.54a2.81,2.81,0,0,1-2.66,2.19H372a2.68,2.68,0,0,1-2.18-1.16,3.14,3.14,0,0,1-.48-2.58L395.81,26.63a2.79,2.79,0,0,1,2.66-2.2h21a2.79,2.79,0,0,1,2.66,2.2L448.61,133a3.17,3.17,0,0,1-.47,2.58A2.7,2.7,0,0,1,446,136.7ZM404.28,98.39l9.33-.31L408.94,72Z"/><path d="M457.64,136.7a2.87,2.87,0,0,1-2.75-3V54.13H439.06a2.87,2.87,0,0,1-2.75-3V27.4a2.87,2.87,0,0,1,2.75-3h59.42a2.87,2.87,0,0,1,2.75,3V51.16a2.87,2.87,0,0,1-2.75,3H482.66v79.6a2.87,2.87,0,0,1-2.76,3Z"/><path d="M506.35,136.7a2.87,2.87,0,0,1-2.75-3V110a2.87,2.87,0,0,1,2.75-3h9.43V54.13h-9.43a2.87,2.87,0,0,1-2.75-3V27.4a2.87,2.87,0,0,1,2.75-3h46.5a2.87,2.87,0,0,1,2.75,3V51.16a2.87,2.87,0,0,1-2.75,3h-9.43V107h9.43a2.87,2.87,0,0,1,2.75,3v23.76a2.87,2.87,0,0,1-2.75,3Z"/><path d="M592,139.09c-16.55,0-27.16-8.08-31.55-24-2-7.62-2.94-18.83-2.94-34.29s.87-26.4,2.68-33.45c4.46-16.86,15.16-25.45,31.79-25.54,16.38,0,26.95,7.94,31.43,23.59,2.07,7.17,3.08,18.31,3.08,34.07v1.33c0,15.36-.84,26.12-2.56,32.91-3.84,15.41-13.1,23.91-27.51,25.27C594.85,139.05,593.38,139.09,592,139.09Zm0-90.4a5.35,5.35,0,0,0-2.42.52A4,4,0,0,0,588,50.75,28.1,28.1,0,0,0,586.27,54,16.55,16.55,0,0,0,585.21,58c-.32,2-.56,3.7-.72,5.09s-.27,3.32-.35,5.79-.15,4.53-.18,5.9-.07,3.21-.07,5.81c0,13,.77,21.78,2.28,26,1.81,4.87,4.21,5.49,5.86,5.53,4.14,0,6.69-5.21,7.53-15.48.23-3.41.36-8.83.36-16.07,0-13.13-.74-22-2.18-26.34C596,49.28,593.58,48.69,592,48.69Z"/><path d="M680.9,137a2.61,2.61,0,0,1-1.35-.38,3,3,0,0,1-1.64-2.59L657.58,86.69v47.17a2.87,2.87,0,0,1-2.75,3H633.42a2.87,2.87,0,0,1-2.75-3V27.4a2.87,2.87,0,0,1,2.75-3h21.41a2.75,2.75,0,0,1,2.49,1.7c3.48,8,8.71,19.77,16,36.09q2.55,5.76,4.61,10.4V27.4a2.87,2.87,0,0,1,2.75-3h21.4a2.87,2.87,0,0,1,2.76,3V133.86a2.88,2.88,0,0,1-2.76,3H681.84a2.69,2.69,0,0,1-.81.13Z"/><path d="M742,139.09c-14,0-23.41-3.94-28-11.72-3.09-5.1-4.68-13.55-4.86-25.8-.08-1.79-.12-4.06-.12-6.73a2.87,2.87,0,0,1,2.75-3h20.05a2.87,2.87,0,0,1,2.75,3c0,10.65.81,14.29,1.32,15.53.46.92,1.83,3.3,7.29,3.4,4,0,6-1.83,6.58-6.11a35.23,35.23,0,0,0,.24-6.91c-.36-.52-2.1-2.52-10-6.85-10.57-5.75-17-9.4-19.54-11.16-7.28-5.13-10.9-9.94-11.11-14.71-.51-14.43.14-24.18,2-29.81,2.72-8.1,8.7-13.21,17.79-15.19a60.42,60.42,0,0,1,13.1-1.26c15.35,0,25.42,5.18,29.91,15.37,2.34,5.53,3.47,14.1,3.47,26.24a2.87,2.87,0,0,1-2.75,3h-20a2.87,2.87,0,0,1-2.76-3c0-8.48-.92-11-1.32-11.74-1.08-1.86-3.56-2.82-7.37-2.82-4.67,0-6.84,1.8-7.21,6a32.06,32.06,0,0,0,.46,6.2c0,.05.78,2.08,9.05,6.32,13,6.47,15.62,8,16.47,8.5,9.69,6,14.57,12.28,14.86,19.27.43,13.55-.23,22.69-2,28-2.63,7.81-8.49,12.78-17.4,14.77A64.5,64.5,0,0,1,742,139.09Z"/><path d="M62.14,138.35c-14,0-23.5-3.94-28.14-11.72-3.1-5.1-4.7-13.55-4.88-25.8C29,99,29,96.81,29,94.09a2.87,2.87,0,0,1,2.76-3H51.89a2.88,2.88,0,0,1,2.77,3c0,10.66.81,14.3,1.31,15.54.47.91,1.85,3.3,7.33,3.4,4,0,6-1.83,6.61-6.11a34.56,34.56,0,0,0,.23-6.91c-.35-.52-2.1-2.52-10-6.86-10.61-5.74-17-9.39-19.61-11.15-7.31-5.14-11-9.94-11.16-14.71-.51-14.44.14-24.18,2-29.81,2.73-8.11,8.74-13.21,17.87-15.19A60.19,60.19,0,0,1,62.39,21c15.42,0,25.53,5.17,30,15.37,2.35,5.53,3.48,14.1,3.48,26.23a2.88,2.88,0,0,1-2.77,3H73a2.87,2.87,0,0,1-2.76-3c0-8.47-.93-11-1.33-11.73-1.08-1.86-3.58-2.82-7.39-2.82-5.9,0-7,3-7.25,6a32.06,32.06,0,0,0,.46,6.2s.79,2.08,9.09,6.32c13,6.47,15.68,8,16.53,8.49,9.73,6,14.63,12.28,14.93,19.28.43,13.55-.23,22.69-2,28-2.64,7.82-8.52,12.79-17.48,14.77A64.22,64.22,0,0,1,62.14,138.35Z"/><path d="M100.55,136a2.87,2.87,0,0,1-2.76-3V109.23a2.87,2.87,0,0,1,2.76-3H110V53.39h-9.47a2.87,2.87,0,0,1-2.76-3V26.66a2.87,2.87,0,0,1,2.76-3h46.69a2.87,2.87,0,0,1,2.76,3V50.42a2.87,2.87,0,0,1-2.76,3h-9.46v52.87h9.46a2.87,2.87,0,0,1,2.76,3V133a2.87,2.87,0,0,1-2.76,3Z"/><path d="M207.88,136.09a2.87,2.87,0,0,1-2.76-3V72l-9.8,14.92a2.71,2.71,0,0,1-2.26,1.26h0a2.7,2.7,0,0,1-2.26-1.26l-9.8-15v61.21a2.87,2.87,0,0,1-2.76,3H155.88a2.87,2.87,0,0,1-2.76-3V26.66a2.87,2.87,0,0,1,2.76-3h22.36a2.76,2.76,0,0,1,2.54,1.8l12.28,17.93,12.28-17.93a2.76,2.76,0,0,1,2.54-1.8h22.36a2.87,2.87,0,0,1,2.76,3V133.12a2.87,2.87,0,0,1-2.76,3Z"/><path d="M271.73,138.08c-16,0-26.55-7-31.25-20.94-2.08-6.23-3.13-14.07-3.13-23.31V26.66a2.87,2.87,0,0,1,2.76-3h21.37a2.88,2.88,0,0,1,2.77,3c0,23.39,0,43,.12,58.26.1,16,1.52,21,2.36,22.57.57,1,1.76,2.48,5,2.48,2.73-.06,4.33-1.4,5.28-4.47.66-2.29,1.49-7.79,1.59-20.59.08-10.4.13-30,.13-58.25a2.87,2.87,0,0,1,2.76-3h21.37a2.87,2.87,0,0,1,2.76,3V93.83c0,18.07-3.59,30.14-11,36.91C289.19,135.62,281.49,138.08,271.73,138.08Z"/><path d="M313.35,136a2.87,2.87,0,0,1-2.76-3V26.66a2.87,2.87,0,0,1,2.76-3h22.23a2.88,2.88,0,0,1,2.77,3v79.6h30a2.88,2.88,0,0,1,2.77,3V133a2.88,2.88,0,0,1-2.77,3Z"/><path d="M425.25,136a2.81,2.81,0,0,1-2.67-2.2l-3.15-12.54H398.59l-3.15,12.54a2.81,2.81,0,0,1-2.67,2.2H371.9a2.73,2.73,0,0,1-2.2-1.16,3.14,3.14,0,0,1-.47-2.58L395.78,25.89a2.8,2.8,0,0,1,2.67-2.2h21.12a2.81,2.81,0,0,1,2.67,2.2l26.55,106.33a3.14,3.14,0,0,1-.47,2.58,2.73,2.73,0,0,1-2.2,1.16Zm-21-38.31,9.37-.31L409,71.24Z"/><path d="M457.86,136a2.88,2.88,0,0,1-2.77-3V53.39H439.21a2.88,2.88,0,0,1-2.77-3V26.66a2.88,2.88,0,0,1,2.77-3h59.65a2.88,2.88,0,0,1,2.77,3V50.42a2.88,2.88,0,0,1-2.77,3H483V133a2.88,2.88,0,0,1-2.77,3Z"/><path d="M506.76,136a2.87,2.87,0,0,1-2.76-3V109.23a2.87,2.87,0,0,1,2.76-3h9.47V53.39h-9.47a2.87,2.87,0,0,1-2.76-3V26.66a2.87,2.87,0,0,1,2.76-3h46.69a2.87,2.87,0,0,1,2.76,3V50.42a2.87,2.87,0,0,1-2.76,3H544v52.87h9.46a2.87,2.87,0,0,1,2.76,3V133a2.87,2.87,0,0,1-2.76,3Z"/><path d="M592.73,138.35c-16.62,0-27.28-8.09-31.68-24-2-7.63-2.95-18.83-2.95-34.3s.88-26.39,2.69-33.44C565.27,29.71,576,21.13,592.71,21c16.45,0,27.06,7.94,31.56,23.6,2.07,7.16,3.08,18.31,3.08,34.06V80c0,15.37-.84,26.13-2.56,32.91-3.86,15.41-13.15,23.92-27.63,25.28C595.62,138.3,594.15,138.35,592.73,138.35Zm0-90.4a5.36,5.36,0,0,0-2.43.52A3.91,3.91,0,0,0,588.73,50,28.22,28.22,0,0,0,587,53.23a17.12,17.12,0,0,0-1.06,4.07c-.32,2-.57,3.7-.72,5.09s-.28,3.32-.35,5.79-.15,4.53-.19,5.9-.06,3.2-.06,5.81c0,13,.77,21.78,2.29,26,1.81,4.88,4.22,5.5,5.87,5.53,4.17,0,6.73-5.2,7.57-15.47.23-3.42.36-8.84.36-16.07,0-13.13-.74-22-2.19-26.35C596.72,48.54,594.35,48,592.73,48Z"/><path d="M682,136.23a2.57,2.57,0,0,1-1.36-.39,3,3,0,0,1-1.65-2.59L658.6,85.94v47.18a2.87,2.87,0,0,1-2.76,3H634.35a2.88,2.88,0,0,1-2.77-3V26.66a2.88,2.88,0,0,1,2.77-3h21.49a2.76,2.76,0,0,1,2.5,1.7c3.5,8,8.75,19.77,16,36.09L679,71.88V26.66a2.87,2.87,0,0,1,2.76-3h21.49a2.88,2.88,0,0,1,2.77,3V133.12a2.88,2.88,0,0,1-2.77,3H683a2.48,2.48,0,0,1-.82.14Z"/><path d="M743.4,138.35c-14,0-23.5-3.94-28.14-11.72-3.1-5.1-4.7-13.55-4.88-25.8-.08-1.8-.13-4.06-.13-6.74a2.88,2.88,0,0,1,2.77-3h20.13a2.87,2.87,0,0,1,2.76,3c0,10.65.81,14.3,1.32,15.54.47.91,1.85,3.3,7.33,3.4,4,0,6-1.83,6.61-6.11a35.32,35.32,0,0,0,.23-6.91c-.35-.52-2.1-2.52-10-6.86-10.61-5.74-17-9.39-19.61-11.15-7.31-5.14-10.95-9.94-11.16-14.71-.52-14.44.14-24.18,2-29.81,2.73-8.11,8.74-13.21,17.86-15.19A60.22,60.22,0,0,1,743.65,21c15.42,0,25.52,5.17,30,15.37,2.34,5.53,3.48,14.1,3.48,26.23a2.88,2.88,0,0,1-2.77,3H754.27a2.87,2.87,0,0,1-2.76-3c0-8.47-.93-11-1.33-11.73-1.08-1.86-3.58-2.82-7.4-2.82-4.69,0-6.87,1.79-7.24,6a32.06,32.06,0,0,0,.46,6.2s.79,2.08,9.08,6.32c13,6.47,15.69,8,16.54,8.5,9.73,6,14.63,12.27,14.93,19.27.42,13.55-.24,22.69-2,28-2.65,7.82-8.53,12.79-17.48,14.77A64.22,64.22,0,0,1,743.4,138.35Z"/><path d="M60.78,137.61c-14.1,0-23.6-4-28.26-11.73-3.11-5.09-4.72-13.54-4.9-25.8-.08-1.81-.13-4-.13-6.73a2.88,2.88,0,0,1,2.78-3H50.48a2.88,2.88,0,0,1,2.78,3c0,10.65.81,14.3,1.32,15.53.47.92,1.85,3.3,7.36,3.4,4,0,6-1.82,6.63-6.11a35.09,35.09,0,0,0,.24-6.9c-.36-.53-2.12-2.52-10-6.86C48.11,86.66,41.66,83,39.08,81.26c-7.34-5.14-11-10-11.21-14.72-.52-14.43.14-24.17,2-29.81,2.74-8.1,8.77-13.21,17.93-15.19A61.45,61.45,0,0,1,61,20.29c15.48,0,25.63,5.17,30.16,15.36,2.36,5.54,3.5,14.1,3.5,26.24a2.88,2.88,0,0,1-2.78,3H71.69a2.88,2.88,0,0,1-2.78-3c0-8.47-.93-11-1.33-11.73-1.09-1.86-3.59-2.82-7.43-2.82-5.91,0-7,3-7.27,6a32,32,0,0,0,.46,6.19s.79,2.08,9.12,6.32c13.1,6.47,15.75,8,16.61,8.5,9.77,6,14.69,12.28,15,19.27.43,13.56-.23,22.69-2,28-2.66,7.82-8.56,12.79-17.55,14.77A65.45,65.45,0,0,1,60.78,137.61Z"/><path d="M99.34,135.22a2.88,2.88,0,0,1-2.78-3V108.48a2.88,2.88,0,0,1,2.78-3h9.5V52.65h-9.5a2.88,2.88,0,0,1-2.78-3V25.91a2.88,2.88,0,0,1,2.78-3h46.87a2.88,2.88,0,0,1,2.78,3V49.68a2.88,2.88,0,0,1-2.78,3h-9.5v52.86h9.5a2.88,2.88,0,0,1,2.78,3v23.77a2.88,2.88,0,0,1-2.78,3Z"/><path d="M207.1,135.35a2.88,2.88,0,0,1-2.78-3V71.25l-9.84,14.92a2.71,2.71,0,0,1-2.26,1.26h0a2.74,2.74,0,0,1-2.27-1.27l-9.83-15v61.22a2.88,2.88,0,0,1-2.77,3H154.89a2.88,2.88,0,0,1-2.77-3V25.91a2.88,2.88,0,0,1,2.77-3h22.45a2.78,2.78,0,0,1,2.55,1.81l12.33,17.92,12.32-17.92a2.8,2.8,0,0,1,2.56-1.81h22.44a2.88,2.88,0,0,1,2.78,3V132.38a2.88,2.88,0,0,1-2.78,3Z"/><path d="M271.2,137.34c-16.1,0-26.65-7-31.37-20.94-2.09-6.23-3.15-14.08-3.15-23.32V25.91a2.88,2.88,0,0,1,2.78-3h21.45a2.88,2.88,0,0,1,2.78,3c0,23.39,0,43,.12,58.26.1,16,1.53,21,2.37,22.58.58,1,1.77,2.48,5,2.48,2.75-.06,4.35-1.4,5.31-4.47.66-2.3,1.49-7.79,1.59-20.59.08-10.41.13-30,.13-58.26a2.88,2.88,0,0,1,2.77-3h21.45a2.88,2.88,0,0,1,2.78,3V93.08c0,18.08-3.61,30.15-11,36.91C288.74,134.88,281,137.34,271.2,137.34Z"/><path d="M313,135.22a2.88,2.88,0,0,1-2.77-3V25.91a2.88,2.88,0,0,1,2.77-3h22.32a2.88,2.88,0,0,1,2.78,3v79.6h30.08a2.88,2.88,0,0,1,2.78,3v23.77a2.88,2.88,0,0,1-2.78,3Z"/><path d="M425.34,135.22a2.82,2.82,0,0,1-2.68-2.2l-3.16-12.54H398.57L395.41,133a2.82,2.82,0,0,1-2.68,2.2h-21a2.7,2.7,0,0,1-2.2-1.17,3.12,3.12,0,0,1-.48-2.57L395.75,25.14a2.83,2.83,0,0,1,2.68-2.2h21.21a2.83,2.83,0,0,1,2.68,2.2L449,131.48a3.15,3.15,0,0,1-.48,2.57,2.71,2.71,0,0,1-2.2,1.17Zm-21-38.32,9.4-.31L409,70.5Z"/><path d="M458.08,135.22a2.88,2.88,0,0,1-2.78-3V52.65H439.35a2.88,2.88,0,0,1-2.77-3V25.91a2.88,2.88,0,0,1,2.77-3h59.9a2.88,2.88,0,0,1,2.77,3V49.68a2.88,2.88,0,0,1-2.77,3H483.3v79.6a2.88,2.88,0,0,1-2.78,3Z"/><path d="M507.18,135.22a2.88,2.88,0,0,1-2.77-3V108.48a2.88,2.88,0,0,1,2.77-3h9.5V52.65h-9.5a2.88,2.88,0,0,1-2.77-3V25.91a2.88,2.88,0,0,1,2.77-3h46.87a2.88,2.88,0,0,1,2.78,3V49.68a2.88,2.88,0,0,1-2.78,3h-9.5v52.86h9.5a2.88,2.88,0,0,1,2.78,3v23.77a2.88,2.88,0,0,1-2.78,3Z"/><path d="M593.49,137.61c-16.68,0-27.38-8.09-31.8-24-2-7.63-3-18.83-3-34.3s.88-26.4,2.7-33.45c4.5-16.86,15.28-25.45,32.05-25.54,16.51,0,27.17,7.94,31.69,23.6,2.08,7.16,3.1,18.3,3.1,34.06v1.33c0,15.36-.85,26.13-2.58,32.91-3.87,15.41-13.2,23.92-27.74,25.27C596.39,137.56,594.92,137.61,593.49,137.61Zm0-90.41a5.44,5.44,0,0,0-2.44.53,4,4,0,0,0-1.58,1.54,27.4,27.4,0,0,0-1.73,3.22,17.44,17.44,0,0,0-1.07,4.06c-.32,2-.56,3.7-.72,5.1s-.28,3.31-.35,5.78-.15,4.53-.19,5.9-.06,3.21-.06,5.82c0,13,.77,21.78,2.29,26,1.82,4.87,4.24,5.49,5.91,5.53,4.17,0,6.75-5.21,7.59-15.48.24-3.41.36-8.83.36-16.06,0-13.13-.74-22-2.19-26.35C597.5,47.79,595.12,47.2,593.49,47.2Z"/><path d="M683.14,135.48a2.65,2.65,0,0,1-1.36-.38,3,3,0,0,1-1.66-2.59L659.63,85.2v47.18a2.88,2.88,0,0,1-2.78,3H635.27a2.88,2.88,0,0,1-2.77-3V25.91a2.88,2.88,0,0,1,2.77-3h21.58a2.77,2.77,0,0,1,2.51,1.71c3.52,8,8.79,19.77,16.11,36.08,1.72,3.84,3.26,7.31,4.65,10.41V25.91a2.88,2.88,0,0,1,2.77-3h21.58a2.88,2.88,0,0,1,2.77,3V132.38a2.88,2.88,0,0,1-2.77,3H684.09a2.53,2.53,0,0,1-.83.13Z"/><path d="M744.77,137.61c-14.09,0-23.6-4-28.25-11.73-3.12-5.1-4.73-13.54-4.91-25.8-.08-1.79-.12-4.06-.12-6.73a2.88,2.88,0,0,1,2.77-3h20.22a2.88,2.88,0,0,1,2.77,3c0,10.65.81,14.3,1.32,15.53.47.92,1.85,3.3,7.36,3.4,4,0,6-1.82,6.63-6.11a35.16,35.16,0,0,0,.24-6.9c-.36-.53-2.11-2.52-10-6.86-10.66-5.75-17.1-9.4-19.69-11.15-7.34-5.14-11-10-11.21-14.72-.51-14.43.15-24.17,2-29.81,2.74-8.1,8.78-13.21,17.94-15.19A61.32,61.32,0,0,1,745,20.29c15.48,0,25.62,5.17,30.15,15.36,2.36,5.54,3.5,14.1,3.5,26.24a2.88,2.88,0,0,1-2.78,3H755.68a2.88,2.88,0,0,1-2.77-3c0-8.47-.94-11-1.34-11.73-1.08-1.86-3.59-2.82-7.42-2.82-4.72,0-6.9,1.79-7.28,6a32.78,32.78,0,0,0,.46,6.19s.8,2.08,9.13,6.32c13.1,6.47,15.75,8,16.6,8.5,9.77,6,14.69,12.28,15,19.27.43,13.56-.24,22.69-2,28-2.66,7.82-8.56,12.79-17.55,14.77A65.38,65.38,0,0,1,744.77,137.61Z"/><path d="M59.4,136.86c-14.15,0-23.69-3.94-28.37-11.72-3.12-5.1-4.74-13.54-4.92-25.8-.08-1.81-.12-4-.12-6.73a2.89,2.89,0,0,1,2.78-3h20.3a2.89,2.89,0,0,1,2.78,3c0,10.65.82,14.3,1.33,15.53.47.91,1.86,3.3,7.39,3.4,4,0,6-1.83,6.66-6.11a35.23,35.23,0,0,0,.24-6.91C67.11,98,65.34,96,57.38,91.67c-10.7-5.75-17.17-9.4-19.77-11.16-7.37-5.13-11-9.94-11.25-14.71-.51-14.43.15-24.18,2-29.81,2.75-8.1,8.81-13.21,18-15.19a61.76,61.76,0,0,1,13.25-1.26c15.54,0,25.73,5.17,30.28,15.37,2.37,5.53,3.51,14.1,3.51,26.24a2.88,2.88,0,0,1-2.79,3H70.36a2.88,2.88,0,0,1-2.79-3c0-8.48-.94-11-1.34-11.74-1.09-1.86-3.6-2.82-7.45-2.82-5.94,0-7,3-7.31,6a32.14,32.14,0,0,0,.47,6.2s.79,2.08,9.15,6.32c13.15,6.47,15.82,8,16.68,8.5,9.8,6,14.74,12.28,15,19.27.43,13.55-.23,22.69-2,28-2.67,7.81-8.6,12.78-17.62,14.77A66,66,0,0,1,59.4,136.86Z"/><path d="M98.12,134.47a2.88,2.88,0,0,1-2.79-3V107.74a2.88,2.88,0,0,1,2.79-3h9.54V51.9H98.12a2.88,2.88,0,0,1-2.79-3V25.17a2.88,2.88,0,0,1,2.79-3h47.06a2.88,2.88,0,0,1,2.79,3V48.93a2.88,2.88,0,0,1-2.79,3h-9.54v52.87h9.54a2.88,2.88,0,0,1,2.79,3V131.5a2.88,2.88,0,0,1-2.79,3Z"/><path d="M206.31,134.61a2.89,2.89,0,0,1-2.79-3V70.51l-9.87,14.92a2.78,2.78,0,0,1-2.28,1.25h0a2.73,2.73,0,0,1-2.28-1.26l-9.87-15v61.21a2.89,2.89,0,0,1-2.79,3H153.89a2.89,2.89,0,0,1-2.78-3V25.17a2.88,2.88,0,0,1,2.78-3h22.54A2.77,2.77,0,0,1,179,24l12.38,17.92L203.75,24a2.77,2.77,0,0,1,2.56-1.81h22.54a2.88,2.88,0,0,1,2.78,3V131.63a2.89,2.89,0,0,1-2.78,3Z"/><path d="M270.67,136.6c-16.16,0-26.76-7-31.5-20.94-2.09-6.24-3.15-14.08-3.15-23.32V25.17a2.88,2.88,0,0,1,2.78-3h21.54a2.88,2.88,0,0,1,2.79,3c0,23.39,0,43,.12,58.26.11,15.95,1.53,21,2.38,22.58.58,1,1.77,2.48,5,2.48,2.76-.07,4.37-1.4,5.33-4.48.66-2.29,1.5-7.79,1.6-20.59.08-10.4.12-30,.12-58.25a2.88,2.88,0,0,1,2.79-3h21.54a2.88,2.88,0,0,1,2.79,3V92.34c0,18.07-3.62,30.15-11.07,36.91C288.28,134.13,280.51,136.6,270.67,136.6Z"/><path d="M312.63,134.47a2.88,2.88,0,0,1-2.79-3V25.17a2.88,2.88,0,0,1,2.79-3H335a2.88,2.88,0,0,1,2.79,3v79.6H368a2.88,2.88,0,0,1,2.79,3V131.5a2.88,2.88,0,0,1-2.79,3Z"/><path d="M425.43,134.47a2.82,2.82,0,0,1-2.69-2.19l-3.18-12.54h-21l-3.17,12.54a2.83,2.83,0,0,1-2.69,2.19H371.64a2.75,2.75,0,0,1-2.21-1.16,3.18,3.18,0,0,1-.48-2.58L395.72,24.4a2.82,2.82,0,0,1,2.69-2.2H419.7a2.81,2.81,0,0,1,2.69,2.2l26.77,106.33a3.1,3.1,0,0,1-.48,2.58,2.73,2.73,0,0,1-2.21,1.16ZM404.29,96.16l9.44-.31L409,69.75Z"/><path d="M458.3,134.47a2.88,2.88,0,0,1-2.79-3V51.9h-16a2.88,2.88,0,0,1-2.79-3V25.17a2.88,2.88,0,0,1,2.79-3h60.13a2.88,2.88,0,0,1,2.79,3V48.93a2.88,2.88,0,0,1-2.79,3h-16v79.6a2.88,2.88,0,0,1-2.79,3Z"/><path d="M507.6,134.47a2.88,2.88,0,0,1-2.79-3V107.74a2.88,2.88,0,0,1,2.79-3h9.54V51.9H507.6a2.88,2.88,0,0,1-2.79-3V25.17a2.88,2.88,0,0,1,2.79-3h47.06a2.88,2.88,0,0,1,2.79,3V48.93a2.88,2.88,0,0,1-2.79,3h-9.54v52.87h9.54a2.88,2.88,0,0,1,2.79,3V131.5a2.88,2.88,0,0,1-2.79,3Z"/><path d="M594.25,136.86c-16.75,0-27.49-8.08-31.93-24-2-7.62-3-18.83-3-34.3s.89-26.39,2.72-33.44c4.52-16.86,15.34-25.45,32.18-25.55,16.58,0,27.27,7.94,31.81,23.6,2.09,7.17,3.11,18.31,3.11,34.07v1.32c0,15.37-.85,26.13-2.59,32.92-3.88,15.41-13.25,23.91-27.84,25.27C597.17,136.82,595.69,136.86,594.25,136.86Zm0-90.4a5.41,5.41,0,0,0-2.44.52,4,4,0,0,0-1.59,1.54,28.45,28.45,0,0,0-1.74,3.23,17.44,17.44,0,0,0-1.07,4.06c-.32,2-.57,3.7-.73,5.09s-.27,3.32-.35,5.79-.15,4.53-.19,5.9-.06,3.21-.06,5.81c0,13,.78,21.78,2.31,26,1.82,4.87,4.25,5.49,5.92,5.53,4.2,0,6.78-5.21,7.62-15.48.24-3.41.37-8.83.37-16.07,0-13.13-.74-22-2.21-26.34C598.28,47.05,595.89,46.46,594.25,46.46Z"/><path d="M684.27,134.74a2.66,2.66,0,0,1-1.37-.38,3,3,0,0,1-1.67-2.6l-20.57-47.3v47.17a2.89,2.89,0,0,1-2.79,3H636.21a2.89,2.89,0,0,1-2.79-3V25.17a2.88,2.88,0,0,1,2.79-3h21.66a2.77,2.77,0,0,1,2.52,1.7c3.53,8,8.82,19.77,16.18,36.09q2.58,5.76,4.66,10.4V25.17a2.88,2.88,0,0,1,2.79-3h21.66a2.88,2.88,0,0,1,2.79,3V131.63a2.89,2.89,0,0,1-2.79,3H685.22a2.83,2.83,0,0,1-.83.13Z"/><path d="M746.14,136.86c-14.15,0-23.69-3.94-28.37-11.72-3.12-5.1-4.74-13.55-4.92-25.8-.08-1.8-.12-4.06-.12-6.73a2.89,2.89,0,0,1,2.78-3h20.3a2.89,2.89,0,0,1,2.78,3c0,10.65.82,14.29,1.33,15.53.47.92,1.86,3.3,7.39,3.4,4,0,6-1.83,6.66-6.11a35.23,35.23,0,0,0,.24-6.91c-.36-.52-2.13-2.52-10.08-6.85-10.71-5.75-17.18-9.4-19.78-11.16-7.37-5.13-11-9.94-11.25-14.71-.51-14.43.15-24.18,2-29.81,2.75-8.1,8.81-13.21,18-15.19a61.76,61.76,0,0,1,13.25-1.26c15.54,0,25.73,5.17,30.28,15.37,2.37,5.53,3.51,14.1,3.51,26.24a2.88,2.88,0,0,1-2.79,3H757.1a2.88,2.88,0,0,1-2.79-3c0-8.48-.93-11-1.34-11.74-1.09-1.86-3.6-2.82-7.45-2.82-4.74,0-6.93,1.8-7.31,6a32.14,32.14,0,0,0,.47,6.2s.79,2.08,9.16,6.32c13.15,6.47,15.81,8,16.67,8.5,9.8,6,14.74,12.27,15,19.27.43,13.55-.23,22.69-2,28-2.67,7.82-8.6,12.79-17.62,14.78A66,66,0,0,1,746.14,136.86Z"/><path d="M58,136.12c-14.2,0-23.79-4-28.48-11.72-3.14-5.1-4.76-13.55-4.94-25.8-.09-1.81-.13-4-.13-6.74a2.89,2.89,0,0,1,2.8-3H47.64a2.89,2.89,0,0,1,2.8,3c0,10.66.82,14.3,1.34,15.54.47.91,1.86,3.3,7.41,3.4,4.06,0,6.07-1.83,6.69-6.11a35.23,35.23,0,0,0,.24-6.91C65.76,97.26,64,95.26,56,90.92c-10.75-5.74-17.25-9.4-19.85-11.15-7.4-5.14-11.09-9.94-11.3-14.71-.52-14.44.15-24.18,2-29.81C29.65,27.14,35.73,22,45,20.05a62.24,62.24,0,0,1,13.3-1.25c15.6,0,25.83,5.17,30.4,15.37,2.38,5.53,3.52,14.1,3.52,26.23a2.88,2.88,0,0,1-2.79,3H69a2.89,2.89,0,0,1-2.8-3c0-8.47-.94-11-1.34-11.73-1.1-1.86-3.62-2.82-7.49-2.82-6,0-7.06,3-7.33,6a31.36,31.36,0,0,0,.47,6.2c0,.05.79,2.07,9.19,6.32,13.2,6.47,15.88,7.94,16.74,8.49,9.85,6,14.81,12.28,15.11,19.28.43,13.55-.24,22.69-2,28-2.67,7.82-8.62,12.79-17.68,14.77A65.86,65.86,0,0,1,58,136.12Z"/><path d="M96.89,133.73a2.88,2.88,0,0,1-2.79-3V107a2.89,2.89,0,0,1,2.79-3h9.58V51.16H96.89a2.88,2.88,0,0,1-2.79-3V24.43a2.88,2.88,0,0,1,2.79-3h47.26a2.88,2.88,0,0,1,2.79,3V48.19a2.88,2.88,0,0,1-2.79,3h-9.58V104h9.58a2.89,2.89,0,0,1,2.79,3v23.76a2.88,2.88,0,0,1-2.79,3Z"/><path d="M205.52,133.86a2.89,2.89,0,0,1-2.8-3V69.76l-9.91,14.92a2.77,2.77,0,0,1-2.29,1.26h0a2.75,2.75,0,0,1-2.29-1.26l-9.91-15v61.22a2.89,2.89,0,0,1-2.8,3H152.89a2.88,2.88,0,0,1-2.79-3V24.43a2.88,2.88,0,0,1,2.79-3h22.63a2.78,2.78,0,0,1,2.57,1.8l12.43,17.93L203,23.26a2.78,2.78,0,0,1,2.57-1.8h22.63a2.88,2.88,0,0,1,2.79,3V130.89a2.88,2.88,0,0,1-2.79,3Z"/><path d="M270.14,135.85c-16.23,0-26.87-7-31.63-20.94-2.1-6.23-3.17-14.07-3.17-23.31V24.43a2.89,2.89,0,0,1,2.8-3h21.63a2.89,2.89,0,0,1,2.8,3c0,23.39,0,43,.12,58.26.1,16,1.54,21,2.39,22.57.58,1,1.78,2.48,5.06,2.48,2.77-.06,4.38-1.4,5.35-4.47.67-2.29,1.5-7.79,1.61-20.59.08-10.4.12-30,.12-58.25a2.89,2.89,0,0,1,2.8-3h21.62a2.89,2.89,0,0,1,2.8,3V91.6c0,18.07-3.63,30.14-11.11,36.91C287.82,133.39,280,135.85,270.14,135.85Z"/><path d="M312.27,133.73a2.89,2.89,0,0,1-2.8-3V24.43a2.89,2.89,0,0,1,2.8-3h22.5a2.89,2.89,0,0,1,2.8,3V104h30.32a2.9,2.9,0,0,1,2.8,3v23.76a2.89,2.89,0,0,1-2.8,3Z"/><path d="M425.52,133.73a2.83,2.83,0,0,1-2.7-2.2L419.63,119H398.54l-3.2,12.54a2.82,2.82,0,0,1-2.7,2.2H371.52a2.75,2.75,0,0,1-2.22-1.16,3.11,3.11,0,0,1-.48-2.58L395.69,23.66a2.83,2.83,0,0,1,2.7-2.2h21.38a2.83,2.83,0,0,1,2.7,2.2L449.35,130a3.15,3.15,0,0,1-.49,2.58,2.74,2.74,0,0,1-2.22,1.16ZM404.3,95.42l9.48-.31L409,69Z"/><path d="M458.52,133.73a2.89,2.89,0,0,1-2.8-3V51.16H439.64a2.88,2.88,0,0,1-2.79-3V24.43a2.88,2.88,0,0,1,2.79-3H500a2.89,2.89,0,0,1,2.8,3V48.19a2.89,2.89,0,0,1-2.8,3H483.94v79.6a2.88,2.88,0,0,1-2.79,3Z"/><path d="M508,133.73a2.89,2.89,0,0,1-2.8-3V107a2.9,2.9,0,0,1,2.8-3h9.58V51.16H508a2.89,2.89,0,0,1-2.8-3V24.43a2.89,2.89,0,0,1,2.8-3h47.25a2.89,2.89,0,0,1,2.8,3V48.19a2.89,2.89,0,0,1-2.8,3h-9.58V104h9.58a2.9,2.9,0,0,1,2.8,3v23.76a2.89,2.89,0,0,1-2.8,3Z"/><path d="M595,136.12c-16.82,0-27.6-8.09-32.06-24-2-7.63-3-18.83-3-34.3s.89-26.39,2.73-33.45C567.23,27.48,578.1,18.9,595,18.8c16.65,0,27.39,7.94,31.94,23.6,2.1,7.16,3.13,18.31,3.13,34.06v1.33c0,15.37-.85,26.13-2.6,32.91-3.9,15.41-13.31,23.92-28,25.27C597.94,136.07,596.46,136.12,595,136.12Zm0-90.4a5.45,5.45,0,0,0-2.45.52,4,4,0,0,0-1.6,1.54A28.34,28.34,0,0,0,589.23,51a17,17,0,0,0-1.08,4.07c-.33,2-.57,3.7-.73,5.09s-.28,3.32-.35,5.78-.15,4.54-.19,5.9-.06,3.21-.06,5.82c0,13,.78,21.78,2.31,26,1.83,4.88,4.27,5.49,6,5.53,4.21,0,6.81-5.2,7.65-15.47.24-3.42.37-8.84.37-16.07,0-13.13-.75-22-2.21-26.35C599.06,46.3,596.66,45.72,595,45.72Z"/><path d="M685.39,134a2.62,2.62,0,0,1-1.37-.38,3,3,0,0,1-1.67-2.59L661.69,83.71v47.18a2.89,2.89,0,0,1-2.8,3H637.14a2.88,2.88,0,0,1-2.79-3V24.43a2.88,2.88,0,0,1,2.79-3h21.75a2.78,2.78,0,0,1,2.53,1.7c3.55,8,8.86,19.77,16.25,36.09q2.58,5.76,4.68,10.4V24.43a2.88,2.88,0,0,1,2.79-3h21.75a2.89,2.89,0,0,1,2.8,3V130.89a2.89,2.89,0,0,1-2.8,3H686.35a2.53,2.53,0,0,1-.83.13Z"/><path d="M747.52,136.12c-14.21,0-23.79-4-28.48-11.72-3.14-5.1-4.76-13.55-4.94-25.8-.09-1.8-.13-4.06-.13-6.74a2.89,2.89,0,0,1,2.8-3h20.37a2.89,2.89,0,0,1,2.8,3c0,10.65.82,14.3,1.33,15.54.47.91,1.87,3.3,7.42,3.4,4,0,6.07-1.83,6.69-6.11a35.23,35.23,0,0,0,.24-6.91c-.36-.52-2.14-2.52-10.13-6.86-10.74-5.74-17.24-9.39-19.85-11.15-7.39-5.14-11.08-9.94-11.29-14.72-.52-14.43.14-24.17,2-29.8,2.77-8.11,8.85-13.21,18.08-15.2a62.4,62.4,0,0,1,13.31-1.25c15.6,0,25.83,5.17,30.4,15.37,2.38,5.53,3.52,14.1,3.52,26.23a2.89,2.89,0,0,1-2.8,3H758.52a2.89,2.89,0,0,1-2.8-3c0-8.47-.94-11-1.34-11.73-1.1-1.86-3.62-2.82-7.49-2.82-4.75,0-6.95,1.79-7.33,6A32.12,32.12,0,0,0,740,58c0,.05.8,2.07,9.2,6.32,13.2,6.47,15.88,8,16.74,8.49,9.85,6,14.8,12.28,15.1,19.28.44,13.55-.23,22.68-2,28-2.67,7.82-8.63,12.79-17.69,14.77A65.76,65.76,0,0,1,747.52,136.12Z"/><path d="M56.63,135.37c-14.26,0-23.88-3.94-28.59-11.72-3.15-5.09-4.78-13.54-5-25.8C23,96,23,93.84,23,91.12a2.89,2.89,0,0,1,2.81-3H46.22a2.89,2.89,0,0,1,2.81,3c0,10.65.82,14.3,1.34,15.53.47.92,1.87,3.3,7.44,3.4,4.07,0,6.09-1.83,6.72-6.11a34.42,34.42,0,0,0,.23-6.9c-.36-.53-2.14-2.52-10.16-6.86C43.81,84.43,37.29,80.78,34.67,79c-7.43-5.14-11.12-10-11.34-14.72-.52-14.43.15-24.17,2-29.81,2.78-8.1,8.89-13.21,18.16-15.19a62.83,62.83,0,0,1,13.36-1.25c15.66,0,25.93,5.17,30.52,15.36C89.79,39,91,47.52,91,59.66a2.89,2.89,0,0,1-2.81,3H67.68a2.89,2.89,0,0,1-2.81-3c0-8.47-.94-11-1.35-11.73-1.1-1.86-3.63-2.82-7.51-2.82-6,0-7.1,3-7.37,6a32,32,0,0,0,.47,6.19c0,.05.8,2.08,9.23,6.32,13.25,6.47,15.94,8,16.81,8.5C85,78.07,90,84.39,90.31,91.38c.44,13.56-.23,22.69-2,28-2.69,7.82-8.67,12.79-17.76,14.77A67.14,67.14,0,0,1,56.63,135.37Z"/><path d="M95.66,133a2.89,2.89,0,0,1-2.8-3V106.25a2.89,2.89,0,0,1,2.8-3h9.62V50.42H95.66a2.89,2.89,0,0,1-2.8-3V23.68a2.89,2.89,0,0,1,2.8-3h47.45a2.89,2.89,0,0,1,2.8,3V47.45a2.89,2.89,0,0,1-2.8,3h-9.62v52.86h9.62a2.89,2.89,0,0,1,2.8,3V130a2.89,2.89,0,0,1-2.8,3Z"/><path d="M204.73,133.12a2.89,2.89,0,0,1-2.81-3V69L192,83.94a2.77,2.77,0,0,1-2.29,1.26h0a2.79,2.79,0,0,1-2.29-1.27l-10-15v61.22a2.89,2.89,0,0,1-2.8,3H151.89a2.89,2.89,0,0,1-2.81-3V23.68a2.89,2.89,0,0,1,2.81-3h22.72a2.81,2.81,0,0,1,2.58,1.81l12.48,17.92,12.47-17.92a2.83,2.83,0,0,1,2.59-1.81h22.71a2.89,2.89,0,0,1,2.81,3V130.15a2.89,2.89,0,0,1-2.81,3Z"/><path d="M269.61,135.11c-16.3,0-27-7.05-31.76-20.94-2.11-6.23-3.18-14.08-3.18-23.32V23.68a2.89,2.89,0,0,1,2.81-3h21.71a2.89,2.89,0,0,1,2.81,3c0,23.39,0,43,.13,58.26.1,16,1.54,21,2.39,22.58.59,1,1.79,2.48,5.09,2.48,2.78-.06,4.4-1.4,5.37-4.48.67-2.29,1.51-7.78,1.61-20.58.08-10.41.13-30,.13-58.26a2.89,2.89,0,0,1,2.8-3h21.72a2.89,2.89,0,0,1,2.81,3V90.85c0,18.08-3.65,30.15-11.16,36.91C287.35,132.64,279.53,135.11,269.61,135.11Z"/><path d="M311.9,133a2.9,2.9,0,0,1-2.81-3V23.68a2.89,2.89,0,0,1,2.81-3h22.59a2.89,2.89,0,0,1,2.81,3v79.6h30.45a2.89,2.89,0,0,1,2.81,3V130a2.9,2.9,0,0,1-2.81,3Z"/><path d="M425.61,133a2.84,2.84,0,0,1-2.71-2.2l-3.21-12.54H398.52l-3.21,12.54a2.84,2.84,0,0,1-2.71,2.2H371.39a2.75,2.75,0,0,1-2.23-1.17,3.1,3.1,0,0,1-.48-2.58l27-106.33a2.84,2.84,0,0,1,2.72-2.2h21.46a2.84,2.84,0,0,1,2.71,2.2l27,106.33a3.1,3.1,0,0,1-.48,2.58,2.75,2.75,0,0,1-2.23,1.17ZM404.3,94.67l9.52-.31-4.76-26.09Z"/><path d="M458.74,133a2.9,2.9,0,0,1-2.81-3V50.42H439.79a2.89,2.89,0,0,1-2.81-3V23.68a2.89,2.89,0,0,1,2.81-3h60.62a2.89,2.89,0,0,1,2.81,3V47.45a2.89,2.89,0,0,1-2.81,3H484.27V130a2.9,2.9,0,0,1-2.81,3Z"/><path d="M508.44,133a2.9,2.9,0,0,1-2.81-3V106.25a2.89,2.89,0,0,1,2.81-3h9.62V50.42h-9.62a2.89,2.89,0,0,1-2.81-3V23.68a2.89,2.89,0,0,1,2.81-3h47.44a2.89,2.89,0,0,1,2.81,3V47.45a2.89,2.89,0,0,1-2.81,3h-9.62v52.86h9.62a2.89,2.89,0,0,1,2.81,3V130a2.9,2.9,0,0,1-2.81,3Z"/><path d="M595.79,135.37c-16.88,0-27.71-8.08-32.19-24-2-7.63-3-18.84-3-34.3s.9-26.4,2.74-33.45c4.55-16.86,15.46-25.45,32.44-25.54,16.71,0,27.49,7.94,32.06,23.6C630,48.82,631,60,631,75.72v1.33c0,15.36-.85,26.13-2.61,32.91-3.92,15.41-13.36,23.92-28.07,25.27C598.73,135.33,597.24,135.37,595.79,135.37Zm0-90.4a5.37,5.37,0,0,0-2.46.53,3.91,3.91,0,0,0-1.6,1.54A27.74,27.74,0,0,0,590,50.26a16.89,16.89,0,0,0-1.08,4.06c-.32,2-.57,3.7-.73,5.1s-.28,3.31-.36,5.78-.14,4.53-.18,5.9-.07,3.21-.07,5.82c0,13,.79,21.77,2.33,26,1.84,4.87,4.29,5.49,6,5.53,4.23,0,6.83-5.21,7.68-15.48.25-3.41.37-8.83.37-16.06,0-13.13-.75-22-2.22-26.35C599.85,45.56,597.44,45,595.79,45Z"/><path d="M686.53,133.25a2.72,2.72,0,0,1-1.38-.38,3,3,0,0,1-1.68-2.59L662.73,83v47.18a2.89,2.89,0,0,1-2.81,3H638.08a2.89,2.89,0,0,1-2.81-3V23.68a2.89,2.89,0,0,1,2.81-3h21.84a2.79,2.79,0,0,1,2.54,1.7c3.56,8,8.89,19.78,16.31,36.09l4.7,10.41V23.68a2.89,2.89,0,0,1,2.81-3h21.83a2.89,2.89,0,0,1,2.81,3V130.15a2.89,2.89,0,0,1-2.81,3H687.49a3,3,0,0,1-.84.13Z"/><path d="M748.9,135.37c-14.26,0-23.88-3.94-28.59-11.72-3.16-5.1-4.79-13.54-5-25.8-.08-1.79-.12-4.06-.12-6.73a2.89,2.89,0,0,1,2.81-3h20.45a2.89,2.89,0,0,1,2.81,3c0,10.65.83,14.3,1.34,15.53.48.92,1.88,3.3,7.45,3.4,4.07,0,6.09-1.83,6.71-6.11A34.4,34.4,0,0,0,757,97c-.36-.53-2.14-2.52-10.16-6.86-10.79-5.75-17.31-9.4-19.93-11.15-7.43-5.14-11.13-10-11.34-14.72-.52-14.43.14-24.17,2-29.81,2.78-8.1,8.88-13.21,18.15-15.19a62.9,62.9,0,0,1,13.36-1.25c15.67,0,25.94,5.17,30.53,15.36,2.38,5.54,3.53,14.1,3.53,26.24a2.89,2.89,0,0,1-2.81,3H760a2.89,2.89,0,0,1-2.81-3c0-8.47-.95-11-1.35-11.73-1.1-1.86-3.64-2.82-7.52-2.82-4.77,0-7,1.79-7.36,6a31.27,31.27,0,0,0,.47,6.19c0,.05.8,2.08,9.23,6.32,13.26,6.47,15.94,8,16.8,8.5,9.89,6,14.87,12.28,15.17,19.27.44,13.56-.23,22.69-2.05,28-2.69,7.82-8.66,12.79-17.76,14.77A67,67,0,0,1,748.9,135.37Z"/><path d="M55.24,134.63c-14.32,0-24-3.94-28.71-11.72-3.16-5.1-4.8-13.54-5-25.8-.08-1.81-.13-4-.13-6.73a2.91,2.91,0,0,1,2.82-3H44.78a2.9,2.9,0,0,1,2.82,3c0,10.65.83,14.29,1.35,15.53.47.91,1.88,3.3,7.47,3.4,4.09,0,6.12-1.83,6.75-6.11a35.23,35.23,0,0,0,.24-6.91c-.37-.52-2.15-2.52-10.21-6.85-10.83-5.75-17.38-9.4-20-11.16C25.73,73.15,22,68.34,21.81,63.57c-.53-14.43.14-24.18,2.05-29.81,2.78-8.1,8.91-13.21,18.22-15.19a63.34,63.34,0,0,1,13.41-1.26c15.73,0,26.05,5.17,30.65,15.37,2.4,5.53,3.55,14.1,3.55,26.23a2.9,2.9,0,0,1-2.82,3H66.33a2.9,2.9,0,0,1-2.82-3c0-8.47-.95-11-1.35-11.73-1.11-1.86-3.65-2.82-7.55-2.82-6,0-7.12,3-7.39,6a31.36,31.36,0,0,0,.47,6.2c0,.05.8,2.08,9.27,6.32,13.3,6.47,16,7.95,16.87,8.5,9.93,6,14.93,12.27,15.23,19.27.44,13.55-.24,22.69-2.06,28-2.7,7.82-8.7,12.79-17.83,14.78A67.59,67.59,0,0,1,55.24,134.63Z"/><path d="M94.43,132.24a2.9,2.9,0,0,1-2.82-3V105.51a2.9,2.9,0,0,1,2.82-3h9.65V49.67H94.43a2.9,2.9,0,0,1-2.82-3V22.94a2.9,2.9,0,0,1,2.82-3h47.63a2.9,2.9,0,0,1,2.82,3V46.7a2.9,2.9,0,0,1-2.82,3h-9.65v52.87h9.65a2.9,2.9,0,0,1,2.82,3v23.76a2.9,2.9,0,0,1-2.82,3Z"/><path d="M203.93,132.38a2.91,2.91,0,0,1-2.82-3V68.28l-10,14.91a2.78,2.78,0,0,1-2.3,1.26h0a2.78,2.78,0,0,1-2.3-1.26l-10-15V129.4a2.91,2.91,0,0,1-2.82,3H150.88a2.91,2.91,0,0,1-2.82-3V22.94a2.9,2.9,0,0,1,2.82-3h22.81a2.82,2.82,0,0,1,2.59,1.8L188.81,39.7l12.52-17.93a2.83,2.83,0,0,1,2.6-1.8h22.81a2.9,2.9,0,0,1,2.82,3V129.4a2.91,2.91,0,0,1-2.82,3Z"/><path d="M269.07,134.37c-16.36,0-27.09-7.05-31.88-20.94-2.12-6.24-3.2-14.08-3.2-23.32V22.94a2.9,2.9,0,0,1,2.83-3h21.79a2.9,2.9,0,0,1,2.82,3c0,23.39.05,43,.13,58.26.1,16,1.55,21,2.41,22.58.58,1,1.79,2.47,5.1,2.47,2.79-.06,4.42-1.39,5.39-4.47.67-2.29,1.52-7.79,1.62-20.59.09-10.4.13-30,.13-58.25A2.9,2.9,0,0,1,279,20h21.8a2.9,2.9,0,0,1,2.82,3V90.11c0,18.07-3.67,30.15-11.2,36.91C286.89,131.9,279,134.37,269.07,134.37Z"/><path d="M311.54,132.24a2.9,2.9,0,0,1-2.82-3V22.94a2.9,2.9,0,0,1,2.82-3h22.68a2.9,2.9,0,0,1,2.82,3v79.6h30.57a2.9,2.9,0,0,1,2.82,3v23.76a2.9,2.9,0,0,1-2.82,3Z"/><path d="M425.7,132.24a2.85,2.85,0,0,1-2.72-2.19l-3.22-12.54H398.5l-3.22,12.54a2.85,2.85,0,0,1-2.72,2.19h-21.3a2.77,2.77,0,0,1-2.23-1.16,3.07,3.07,0,0,1-.49-2.58L395.63,22.17a2.85,2.85,0,0,1,2.73-2.2H419.9a2.85,2.85,0,0,1,2.73,2.2L449.72,128.5a3.07,3.07,0,0,1-.49,2.58,2.77,2.77,0,0,1-2.23,1.16ZM404.31,93.93l9.55-.31-4.78-26.1Z"/><path d="M459,132.24a2.9,2.9,0,0,1-2.82-3V49.67H439.94a2.9,2.9,0,0,1-2.82-3V22.94a2.9,2.9,0,0,1,2.82-3H500.8a2.9,2.9,0,0,1,2.82,3V46.7a2.9,2.9,0,0,1-2.82,3H484.59v79.6a2.9,2.9,0,0,1-2.82,3Z"/><path d="M508.86,132.24a2.9,2.9,0,0,1-2.82-3V105.51a2.9,2.9,0,0,1,2.82-3h9.66V49.67h-9.66a2.9,2.9,0,0,1-2.82-3V22.94a2.9,2.9,0,0,1,2.82-3h47.63a2.9,2.9,0,0,1,2.82,3V46.7a2.9,2.9,0,0,1-2.82,3h-9.65v52.87h9.65a2.9,2.9,0,0,1,2.82,3v23.76a2.9,2.9,0,0,1-2.82,3Z"/><path d="M596.56,134.63c-16.95,0-27.82-8.08-32.31-24-2-7.62-3-18.83-3-34.3s.9-26.39,2.75-33.44c4.57-16.86,15.53-25.45,32.57-25.55,16.78,0,27.61,7.94,32.2,23.6,2.11,7.16,3.14,18.31,3.14,34.07V76.3c0,15.37-.85,26.13-2.62,32.91-3.93,15.42-13.41,23.92-28.18,25.28C599.51,134.59,598,134.63,596.56,134.63Zm0-90.4a5.54,5.54,0,0,0-2.47.52,4.12,4.12,0,0,0-1.61,1.54,28.69,28.69,0,0,0-1.76,3.23,16.89,16.89,0,0,0-1.08,4.06c-.33,2-.58,3.7-.73,5.09s-.28,3.32-.36,5.79-.15,4.53-.19,5.9-.06,3.21-.06,5.81c0,13,.78,21.78,2.33,26,1.85,4.87,4.31,5.49,6,5.53,4.25,0,6.87-5.21,7.72-15.48.24-3.42.37-8.83.37-16.07,0-13.13-.75-22-2.23-26.34C600.64,44.82,598.22,44.23,596.56,44.23Z"/><path d="M687.67,132.51a2.73,2.73,0,0,1-1.39-.38,3,3,0,0,1-1.68-2.6l-20.83-47.3V129.4a2.91,2.91,0,0,1-2.82,3H639a2.91,2.91,0,0,1-2.82-3V22.94A2.9,2.9,0,0,1,639,20H661a2.8,2.8,0,0,1,2.55,1.7c3.57,8,8.93,19.77,16.38,36.09l4.71,10.4V22.94a2.9,2.9,0,0,1,2.82-3h21.93a2.9,2.9,0,0,1,2.82,3V129.4a2.91,2.91,0,0,1-2.82,3H688.63a3,3,0,0,1-.84.13Z"/><path d="M750.29,134.63c-14.32,0-24-3.94-28.71-11.72-3.17-5.1-4.8-13.55-5-25.8-.09-1.8-.13-4.06-.13-6.73a2.9,2.9,0,0,1,2.82-3h20.54a2.9,2.9,0,0,1,2.82,3c0,10.65.83,14.29,1.35,15.53.47.92,1.88,3.3,7.47,3.4,4.09,0,6.12-1.83,6.74-6.11a33.74,33.74,0,0,0,.24-6.91c-.36-.52-2.15-2.52-10.2-6.85-10.83-5.75-17.38-9.4-20-11.16-7.46-5.14-11.17-9.94-11.39-14.71-.52-14.43.15-24.18,2-29.81,2.79-8.1,8.92-13.21,18.23-15.19a63.34,63.34,0,0,1,13.41-1.26c15.73,0,26,5.17,30.65,15.37,2.39,5.53,3.55,14.1,3.55,26.23a2.9,2.9,0,0,1-2.82,3H761.38a2.9,2.9,0,0,1-2.82-3c0-8.47-.95-11-1.36-11.73-1.1-1.86-3.65-2.82-7.54-2.82-4.79,0-7,1.8-7.39,6a31.36,31.36,0,0,0,.47,6.2c0,.05.8,2.08,9.27,6.32,13.31,6.47,16,7.95,16.87,8.5,9.93,6,14.92,12.27,15.23,19.27.43,13.55-.24,22.69-2.06,28-2.7,7.82-8.7,12.79-17.83,14.78A67.66,67.66,0,0,1,750.29,134.63Z"/><path d="M53.85,133.89c-14.38,0-24.08-3.95-28.83-11.72-3.18-5.1-4.82-13.55-5-25.8-.09-1.81-.13-4-.13-6.74a2.9,2.9,0,0,1,2.83-3H43.35a2.9,2.9,0,0,1,2.83,3c0,10.66.83,14.3,1.35,15.54.47.91,1.88,3.3,7.5,3.4,4.1,0,6.14-1.83,6.77-6.11A33.74,33.74,0,0,0,62,95.55C61.68,95,59.88,93,51.8,88.69,40.92,83,34.35,79.29,31.71,77.54,24.22,72.4,20.49,67.6,20.27,62.82c-.52-14.43.15-24.17,2.06-29.81,2.8-8.1,9-13.2,18.3-15.19A63.86,63.86,0,0,1,54.1,16.57c15.79,0,26.14,5.17,30.77,15.37,2.4,5.53,3.56,14.1,3.56,26.23a2.9,2.9,0,0,1-2.83,3H65a2.9,2.9,0,0,1-2.83-3c0-8.47-.95-11-1.36-11.73-1.11-1.86-3.67-2.82-7.58-2.82-6,0-7.15,3-7.42,6a31.36,31.36,0,0,0,.47,6.2s.81,2.07,9.31,6.32c13.36,6.46,16.07,7.94,16.94,8.49,10,6,15,12.28,15.29,19.28.44,13.55-.24,22.69-2.07,28C83,125.68,77,130.65,67.83,132.63A67.42,67.42,0,0,1,53.85,133.89Z"/><path d="M93.19,131.5a2.9,2.9,0,0,1-2.83-3V104.77a2.91,2.91,0,0,1,2.83-3h9.69V48.93H93.19a2.9,2.9,0,0,1-2.83-3V22.2a2.91,2.91,0,0,1,2.83-3H141a2.91,2.91,0,0,1,2.83,3V46a2.9,2.9,0,0,1-2.83,3h-9.69v52.86H141a2.9,2.9,0,0,1,2.83,3v23.76a2.9,2.9,0,0,1-2.83,3Z"/><path d="M203.13,131.63a2.9,2.9,0,0,1-2.83-3V67.53l-10,14.92A2.79,2.79,0,0,1,188,83.71h0a2.77,2.77,0,0,1-2.31-1.27l-10-15v61.22a2.9,2.9,0,0,1-2.83,3h-22.9a2.9,2.9,0,0,1-2.83-3V22.2a2.91,2.91,0,0,1,2.83-3h22.9a2.83,2.83,0,0,1,2.6,1.81L188,39,200.52,21a2.85,2.85,0,0,1,2.61-1.81H226a2.91,2.91,0,0,1,2.83,3V128.66a2.9,2.9,0,0,1-2.83,3Z"/><path d="M268.54,133.62c-16.43,0-27.2-7-32-20.94-2.13-6.23-3.2-14.07-3.2-23.31V22.2a2.91,2.91,0,0,1,2.83-3H258a2.92,2.92,0,0,1,2.84,3c0,23.39,0,43,.12,58.26.11,16,1.56,21,2.42,22.57.59,1,1.8,2.48,5.13,2.48,2.79-.06,4.43-1.4,5.41-4.47.67-2.29,1.52-7.79,1.62-20.59.09-10.4.13-30,.13-58.25a2.91,2.91,0,0,1,2.83-3h21.89a2.91,2.91,0,0,1,2.83,3V89.37c0,18.07-3.68,30.14-11.24,36.91C286.42,131.16,278.53,133.62,268.54,133.62Z"/><path d="M311.17,131.5a2.9,2.9,0,0,1-2.83-3V22.2a2.91,2.91,0,0,1,2.83-3h22.77a2.91,2.91,0,0,1,2.83,3v79.59h30.7a2.91,2.91,0,0,1,2.83,3v23.76a2.9,2.9,0,0,1-2.83,3Z"/><path d="M425.79,131.5a2.85,2.85,0,0,1-2.73-2.2l-3.23-12.54H398.48l-3.23,12.54a2.85,2.85,0,0,1-2.73,2.2H371.14a2.81,2.81,0,0,1-2.25-1.16,3.08,3.08,0,0,1-.49-2.58L395.6,21.43a2.87,2.87,0,0,1,2.74-2.21H420a2.88,2.88,0,0,1,2.74,2.21l27.2,106.33a3.11,3.11,0,0,1-.49,2.58,2.81,2.81,0,0,1-2.25,1.16ZM404.31,93.19l9.59-.31-4.79-26.1Z"/><path d="M459.19,131.5a2.9,2.9,0,0,1-2.83-3V48.93H440.09a2.9,2.9,0,0,1-2.83-3V22.2a2.91,2.91,0,0,1,2.83-3h61.1a2.91,2.91,0,0,1,2.83,3V46a2.9,2.9,0,0,1-2.83,3H484.92v79.6a2.9,2.9,0,0,1-2.83,3Z"/><path d="M509.29,131.5a2.9,2.9,0,0,1-2.83-3V104.77a2.9,2.9,0,0,1,2.83-3H519V48.93h-9.69a2.9,2.9,0,0,1-2.83-3V22.2a2.91,2.91,0,0,1,2.83-3h47.82a2.91,2.91,0,0,1,2.83,3V46a2.9,2.9,0,0,1-2.83,3h-9.69v52.86h9.69a2.91,2.91,0,0,1,2.83,3v23.76a2.9,2.9,0,0,1-2.83,3Z"/><path d="M597.34,133.89c-17,0-27.93-8.09-32.44-24-2-7.63-3-18.83-3-34.3s.9-26.39,2.76-33.45c4.59-16.86,15.59-25.44,32.7-25.54,16.84,0,27.71,7.94,32.32,23.6,2.13,7.16,3.16,18.31,3.16,34.06v1.33c0,15.36-.86,26.13-2.63,32.91-3.95,15.41-13.47,23.92-28.29,25.27C600.3,133.84,598.8,133.89,597.34,133.89Zm0-90.4a5.58,5.58,0,0,0-2.48.52,4,4,0,0,0-1.62,1.54,28.58,28.58,0,0,0-1.76,3.22,16.47,16.47,0,0,0-1.09,4.07c-.33,2-.58,3.7-.74,5.09s-.28,3.32-.36,5.78-.15,4.54-.19,5.9-.06,3.21-.06,5.82c0,13,.79,21.78,2.34,26,1.86,4.88,4.33,5.49,6,5.53,4.26,0,6.89-5.2,7.75-15.47.24-3.42.37-8.84.37-16.07,0-13.13-.76-22-2.24-26.35C601.43,44.07,599,43.49,597.34,43.49Z"/><path d="M688.81,131.76a2.64,2.64,0,0,1-1.39-.38,3,3,0,0,1-1.69-2.59L664.82,81.48v47.18a2.9,2.9,0,0,1-2.83,3H640a2.9,2.9,0,0,1-2.83-3V22.2a2.91,2.91,0,0,1,2.83-3h22a2.84,2.84,0,0,1,2.56,1.71c3.59,8,9,19.77,16.44,36.09q2.61,5.76,4.74,10.4V22.2a2.91,2.91,0,0,1,2.83-3h22a2.91,2.91,0,0,1,2.83,3V128.66a2.9,2.9,0,0,1-2.83,3H689.78a2.63,2.63,0,0,1-.84.13Z"/><path d="M751.68,133.89c-14.37,0-24.07-3.95-28.82-11.72-3.18-5.1-4.82-13.55-5-25.8-.09-1.8-.13-4.07-.13-6.74a2.9,2.9,0,0,1,2.83-3h20.62a2.9,2.9,0,0,1,2.83,3c0,10.65.84,14.3,1.36,15.54.47.91,1.88,3.3,7.5,3.4,4.1,0,6.14-1.83,6.77-6.12a35.09,35.09,0,0,0,.24-6.9c-.36-.52-2.16-2.52-10.24-6.86-10.88-5.74-17.45-9.4-20.09-11.15-7.49-5.14-11.22-9.94-11.44-14.72-.52-14.43.15-24.17,2.06-29.81,2.8-8.1,9-13.2,18.3-15.19a63.86,63.86,0,0,1,13.47-1.25c15.79,0,26.14,5.17,30.77,15.37,2.4,5.53,3.56,14.09,3.56,26.23a2.9,2.9,0,0,1-2.83,3H762.82a2.9,2.9,0,0,1-2.83-3c0-8.47-1-11-1.36-11.73-1.11-1.86-3.67-2.82-7.58-2.82-4.81,0-7,1.79-7.42,6a31.41,31.41,0,0,0,.47,6.2s.81,2.07,9.31,6.32c13.36,6.47,16.07,7.95,16.94,8.49,10,6,15,12.28,15.29,19.28.43,13.55-.24,22.68-2.07,28-2.71,7.82-8.73,12.79-17.9,14.77A67.45,67.45,0,0,1,751.68,133.89Z"/><path d="M52.44,133.14c-14.43,0-24.17-3.94-28.94-11.72-3.19-5.1-4.84-13.54-5-25.8-.09-1.81-.13-4-.13-6.73a2.91,2.91,0,0,1,2.85-3H41.9a2.91,2.91,0,0,1,2.84,3c0,10.65.84,14.3,1.36,15.53.48.92,1.89,3.3,7.53,3.4,4.12,0,6.17-1.83,6.8-6.11a33.61,33.61,0,0,0,.24-6.9c-.36-.53-2.17-2.52-10.28-6.86C39.47,82.2,32.87,78.55,30.22,76.8,22.7,71.66,19,66.85,18.74,62.08c-.53-14.43.15-24.17,2.06-29.81,2.81-8.1,9-13.21,18.38-15.19A64.3,64.3,0,0,1,52.7,15.83C68.55,15.83,79,21,83.59,31.19c2.41,5.54,3.58,14.1,3.58,26.24a2.91,2.91,0,0,1-2.84,3H63.62a2.91,2.91,0,0,1-2.84-3c0-8.47-1-11-1.37-11.73-1.11-1.86-3.68-2.82-7.6-2.82-6.06,0-7.18,3-7.45,6a31.27,31.27,0,0,0,.47,6.19s.81,2.08,9.34,6.32c13.41,6.47,16.13,7.95,17,8.5,10,6,15,12.28,15.35,19.27.44,13.56-.24,22.69-2.07,28-2.72,7.81-8.77,12.78-18,14.77A68.66,68.66,0,0,1,52.44,133.14Z"/><path d="M92,130.76a2.92,2.92,0,0,1-2.85-3V104a2.91,2.91,0,0,1,2.85-3h9.73V48.19H92a2.92,2.92,0,0,1-2.85-3V21.45a2.91,2.91,0,0,1,2.85-3h48a2.91,2.91,0,0,1,2.84,3V45.21a2.91,2.91,0,0,1-2.84,3h-9.73v52.86H140a2.91,2.91,0,0,1,2.84,3v23.76a2.92,2.92,0,0,1-2.84,3Z"/><path d="M202.33,130.89a2.91,2.91,0,0,1-2.85-3V66.79L189.41,81.71A2.82,2.82,0,0,1,187.08,83h0a2.84,2.84,0,0,1-2.32-1.27l-10.08-15v61.22a2.91,2.91,0,0,1-2.84,3h-23a2.91,2.91,0,0,1-2.84-3V21.45a2.91,2.91,0,0,1,2.84-3h23a2.86,2.86,0,0,1,2.62,1.81l12.62,17.92,12.63-17.92a2.85,2.85,0,0,1,2.62-1.81h23a2.91,2.91,0,0,1,2.84,3V127.92a2.91,2.91,0,0,1-2.84,3Z"/><path d="M268,132.88c-16.49,0-27.3-7-32.14-20.94-2.13-6.24-3.22-14.08-3.22-23.32V21.45a2.91,2.91,0,0,1,2.85-3h22a2.91,2.91,0,0,1,2.84,3c0,23.39,0,43,.13,58.26.11,16,1.57,21,2.43,22.58.59,1,1.81,2.48,5.14,2.48,2.81-.06,4.46-1.4,5.44-4.48.68-2.29,1.53-7.78,1.63-20.59.08-10.4.13-30,.13-58.25a2.91,2.91,0,0,1,2.84-3h22a2.91,2.91,0,0,1,2.85,3V88.62c0,18.08-3.69,30.15-11.29,36.91C286,130.41,278,132.88,268,132.88Z"/><path d="M310.8,130.76a2.92,2.92,0,0,1-2.84-3V21.45a2.91,2.91,0,0,1,2.84-3h22.86a2.91,2.91,0,0,1,2.85,3v79.6h30.81a2.91,2.91,0,0,1,2.85,3v23.76a2.92,2.92,0,0,1-2.85,3Z"/><path d="M425.88,130.76a2.87,2.87,0,0,1-2.74-2.2L419.9,116H398.46l-3.24,12.54a2.88,2.88,0,0,1-2.74,2.2H371a2.79,2.79,0,0,1-2.26-1.17,3.06,3.06,0,0,1-.49-2.58L395.57,20.68a2.87,2.87,0,0,1,2.75-2.2H420a2.86,2.86,0,0,1,2.74,2.2L450.09,127a3.06,3.06,0,0,1-.49,2.58,2.77,2.77,0,0,1-2.25,1.17ZM404.31,92.44l9.64-.31L409.13,66Z"/><path d="M459.42,130.76a2.92,2.92,0,0,1-2.85-3V48.19H440.24a2.92,2.92,0,0,1-2.85-3V21.45a2.91,2.91,0,0,1,2.85-3h61.35a2.91,2.91,0,0,1,2.84,3V45.21a2.91,2.91,0,0,1-2.84,3H485.25v79.59a2.92,2.92,0,0,1-2.84,3Z"/><path d="M509.71,130.76a2.92,2.92,0,0,1-2.84-3V104a2.91,2.91,0,0,1,2.84-3h9.74V48.19h-9.74a2.91,2.91,0,0,1-2.84-3V21.45a2.91,2.91,0,0,1,2.84-3h48a2.91,2.91,0,0,1,2.84,3V45.21a2.91,2.91,0,0,1-2.84,3H548v52.86h9.73a2.91,2.91,0,0,1,2.84,3v23.76a2.92,2.92,0,0,1-2.84,3Z"/><path d="M598.12,133.14c-17.09,0-28-8.08-32.57-24-2-7.63-3-18.84-3-34.3s.9-26.4,2.77-33.45c4.61-16.86,15.65-25.45,32.83-25.54,16.91,0,27.82,7.94,32.45,23.6,2.14,7.16,3.18,18.3,3.18,34.06v1.33c0,15.36-.87,26.13-2.65,32.91-4,15.41-13.52,23.92-28.4,25.27C601.09,133.1,599.59,133.14,598.12,133.14Zm0-90.4a5.49,5.49,0,0,0-2.49.53A4,4,0,0,0,594,44.81,25.13,25.13,0,0,0,592.24,48a16.32,16.32,0,0,0-1.1,4.06c-.33,2-.58,3.7-.74,5.09S590.12,60.5,590,63s-.15,4.53-.19,5.9-.06,3.21-.06,5.81c0,13,.79,21.78,2.35,26,1.86,4.87,4.34,5.49,6,5.53,4.28,0,6.92-5.21,7.78-15.48.24-3.41.37-8.83.37-16.07,0-13.13-.76-22-2.25-26.34C602.23,43.33,599.79,42.74,598.12,42.74Z"/><path d="M690,131a2.77,2.77,0,0,1-1.4-.38,3,3,0,0,1-1.7-2.59l-21-47.31v47.18a2.91,2.91,0,0,1-2.84,3h-22.1a2.91,2.91,0,0,1-2.85-3V21.45a2.91,2.91,0,0,1,2.85-3H663a2.83,2.83,0,0,1,2.57,1.7c3.6,8,9,19.78,16.5,36.09q2.64,5.76,4.76,10.4V21.45a2.91,2.91,0,0,1,2.84-3h22.1a2.91,2.91,0,0,1,2.85,3V127.92a2.91,2.91,0,0,1-2.85,3H690.93a3,3,0,0,1-.85.13Z"/><path d="M753.08,133.14c-14.43,0-24.17-3.94-28.94-11.72-3.19-5.1-4.84-13.54-5-25.8-.08-1.79-.13-4.06-.13-6.73a2.91,2.91,0,0,1,2.85-3h20.7a2.91,2.91,0,0,1,2.84,3c0,10.65.84,14.3,1.36,15.53.48.92,1.9,3.3,7.54,3.4,4.11,0,6.16-1.83,6.79-6.11a33.67,33.67,0,0,0,.24-6.9C761,94.28,759.15,92.29,751,88c-10.92-5.75-17.52-9.4-20.17-11.15-7.52-5.14-11.27-10-11.48-14.72-.53-14.43.15-24.17,2.07-29.81,2.8-8.1,9-13.21,18.37-15.19a64.3,64.3,0,0,1,13.52-1.25c15.85,0,26.25,5.17,30.89,15.36,2.42,5.53,3.58,14.1,3.58,26.24a2.91,2.91,0,0,1-2.84,3H764.26a2.91,2.91,0,0,1-2.84-3c0-8.47-.95-11-1.37-11.73-1.11-1.86-3.67-2.82-7.6-2.82-4.83,0-7.07,1.79-7.45,6a31.27,31.27,0,0,0,.47,6.19s.81,2.08,9.34,6.32c13.42,6.47,16.14,7.95,17,8.5,10,6,15,12.28,15.35,19.27.44,13.55-.24,22.69-2.07,28-2.72,7.82-8.77,12.79-18,14.77A68.66,68.66,0,0,1,753.08,133.14Z"/><path d="M51,132.4c-14.5,0-24.27-3.94-29.06-11.72-3.21-5.1-4.86-13.55-5-25.8-.09-1.81-.13-4-.13-6.73a2.92,2.92,0,0,1,2.85-3H40.45a2.91,2.91,0,0,1,2.85,3c0,10.65.84,14.29,1.36,15.53.49.91,1.91,3.3,7.57,3.4,4.14,0,6.19-1.83,6.82-6.11a34.38,34.38,0,0,0,.25-6.91c-.37-.52-2.18-2.52-10.33-6.85-11-5.75-17.59-9.4-20.25-11.16-7.55-5.14-11.31-9.94-11.53-14.71-.53-14.44.15-24.18,2.08-29.81,2.82-8.11,9-13.21,18.45-15.19a64.74,64.74,0,0,1,13.57-1.26c15.92,0,26.36,5.17,31,15.37C84.73,36,85.9,44.55,85.9,56.68a2.92,2.92,0,0,1-2.85,3H62.26a2.93,2.93,0,0,1-2.86-3c0-8.47-.95-11-1.37-11.73-1.12-1.86-3.69-2.82-7.63-2.82-6.09,0-7.21,3-7.48,6a31.36,31.36,0,0,0,.47,6.2s.81,2.08,9.38,6.32c13.47,6.47,16.2,8,17.08,8.5C79.9,75.1,85,81.41,85.26,88.41c.44,13.55-.24,22.69-2.08,28-2.73,7.82-8.81,12.79-18.05,14.78A69.24,69.24,0,0,1,51,132.4Z"/><path d="M90.7,130a2.92,2.92,0,0,1-2.86-3V103.28a2.92,2.92,0,0,1,2.86-3h9.77V47.44H90.7a2.92,2.92,0,0,1-2.86-3V20.71a2.92,2.92,0,0,1,2.86-3h48.2a2.92,2.92,0,0,1,2.86,3V44.47a2.92,2.92,0,0,1-2.86,3h-9.77v52.87h9.77a2.92,2.92,0,0,1,2.86,3V127a2.92,2.92,0,0,1-2.86,3Z"/><path d="M201.52,130.14a2.91,2.91,0,0,1-2.85-3V66L188.55,81a2.83,2.83,0,0,1-2.33,1.26h0A2.81,2.81,0,0,1,183.88,81L173.77,66v61.21a2.92,2.92,0,0,1-2.86,3H147.83a2.92,2.92,0,0,1-2.86-3V20.71a2.92,2.92,0,0,1,2.86-3h23.08a2.86,2.86,0,0,1,2.63,1.8l12.68,17.93,12.67-17.93a2.86,2.86,0,0,1,2.63-1.8H224.6a2.92,2.92,0,0,1,2.86,3V127.17a2.92,2.92,0,0,1-2.86,3Z"/><path d="M267.45,132.14c-16.56,0-27.42-7-32.27-20.94C233,105,232,97.12,232,87.88V20.71a2.91,2.91,0,0,1,2.85-3h22.07a2.91,2.91,0,0,1,2.85,3c0,23.39,0,43,.13,58.26.1,16,1.57,21,2.43,22.58.6,1,1.82,2.47,5.17,2.47,2.82-.06,4.47-1.39,5.46-4.47.68-2.29,1.53-7.79,1.64-20.59.08-10.4.12-30,.12-58.25a2.92,2.92,0,0,1,2.86-3h22.06a2.92,2.92,0,0,1,2.86,3V87.88c0,18.07-3.71,30.15-11.34,36.91C285.48,129.67,277.53,132.14,267.45,132.14Z"/><path d="M310.43,130a2.92,2.92,0,0,1-2.86-3V20.71a2.92,2.92,0,0,1,2.86-3h22.95a2.92,2.92,0,0,1,2.86,3v79.6h30.94a2.92,2.92,0,0,1,2.86,3V127a2.92,2.92,0,0,1-2.86,3Z"/><path d="M426,130a2.87,2.87,0,0,1-2.75-2.19L420,115.28H398.44l-3.25,12.54a2.88,2.88,0,0,1-2.76,2.19H370.88a2.83,2.83,0,0,1-2.27-1.16,3.07,3.07,0,0,1-.49-2.58L395.54,19.94a2.88,2.88,0,0,1,2.76-2.2h21.81a2.86,2.86,0,0,1,2.75,2.2l27.42,106.33a3.07,3.07,0,0,1-.49,2.58,2.82,2.82,0,0,1-2.26,1.16ZM404.32,91.7l9.67-.31-4.83-26.1Z"/><path d="M459.64,130a2.91,2.91,0,0,1-2.85-3V47.44h-16.4a2.92,2.92,0,0,1-2.86-3V20.71a2.92,2.92,0,0,1,2.86-3H502a2.92,2.92,0,0,1,2.86,3V44.47a2.92,2.92,0,0,1-2.86,3h-16.4V127a2.91,2.91,0,0,1-2.85,3Z"/><path d="M510.14,130a2.91,2.91,0,0,1-2.85-3V103.28a2.91,2.91,0,0,1,2.85-3h9.78V47.44h-9.78a2.91,2.91,0,0,1-2.85-3V20.71a2.91,2.91,0,0,1,2.85-3h48.21a2.91,2.91,0,0,1,2.85,3V44.47a2.91,2.91,0,0,1-2.85,3h-9.77v52.87h9.77a2.91,2.91,0,0,1,2.85,3V127a2.91,2.91,0,0,1-2.85,3Z"/><path d="M598.9,132.4c-17.15,0-28.15-8.08-32.7-24-2.06-7.62-3.05-18.83-3.05-34.3s.91-26.39,2.78-33.44c4.63-16.86,15.71-25.45,33-25.55,17,0,27.94,7.94,32.58,23.6,2.15,7.16,3.19,18.31,3.19,34.07v1.32c0,15.37-.86,26.13-2.65,32.91-4,15.41-13.58,23.92-28.52,25.28C601.89,132.35,600.37,132.4,598.9,132.4Zm0-90.4a5.67,5.67,0,0,0-2.5.52,4.16,4.16,0,0,0-1.63,1.54A30.65,30.65,0,0,0,593,47.29a16.83,16.83,0,0,0-1.09,4.06c-.34,2-.59,3.7-.75,5.09s-.28,3.32-.36,5.79-.15,4.53-.19,5.9-.06,3.21-.06,5.81c0,13,.79,21.78,2.36,26,1.87,4.88,4.36,5.5,6.07,5.54,4.29,0,6.94-5.21,7.8-15.48.25-3.42.38-8.83.38-16.07,0-13.13-.76-22-2.26-26.34C603,42.59,600.58,42,598.9,42Z"/><path d="M691.11,130.28a2.77,2.77,0,0,1-1.4-.38,3,3,0,0,1-1.71-2.6L666.93,80v47.17a2.92,2.92,0,0,1-2.86,3H641.88a2.91,2.91,0,0,1-2.85-3V20.71a2.91,2.91,0,0,1,2.85-3h22.19a2.84,2.84,0,0,1,2.58,1.7c3.62,8,9,19.77,16.57,36.09q2.64,5.76,4.78,10.4V20.71a2.91,2.91,0,0,1,2.85-3H713a2.92,2.92,0,0,1,2.86,3V127.17a2.92,2.92,0,0,1-2.86,3h-21a2.6,2.6,0,0,1-.84.14Z"/><path d="M754.49,132.4c-14.49,0-24.27-3.94-29.06-11.72-3.2-5.1-4.86-13.55-5-25.8-.08-1.8-.13-4.06-.13-6.73a2.92,2.92,0,0,1,2.86-3H743.9a2.92,2.92,0,0,1,2.86,3c0,10.64.84,14.29,1.36,15.53.48.91,1.9,3.3,7.57,3.4,4.13,0,6.19-1.83,6.82-6.11a33.74,33.74,0,0,0,.24-6.91c-.37-.52-2.17-2.52-10.32-6.85-11-5.75-17.59-9.4-20.26-11.16-7.55-5.14-11.3-9.94-11.52-14.71-.53-14.44.15-24.18,2.07-29.81,2.82-8.11,9-13.21,18.45-15.19a64.84,64.84,0,0,1,13.58-1.26c15.91,0,26.35,5.17,31,15.37,2.43,5.53,3.59,14.1,3.59,26.23a2.92,2.92,0,0,1-2.85,3H765.71a2.92,2.92,0,0,1-2.85-3c0-8.47-1-11-1.37-11.73-1.12-1.86-3.7-2.82-7.64-2.82-4.85,0-7.09,1.79-7.48,6a31.36,31.36,0,0,0,.47,6.2s.82,2.08,9.39,6.32c13.47,6.47,16.2,8,17.07,8.5,10.05,6,15.11,12.27,15.41,19.27.45,13.55-.23,22.69-2.08,28-2.73,7.82-8.8,12.79-18,14.78A69.11,69.11,0,0,1,754.49,132.4Z"/><path d="M49.62,131.66c-14.55,0-24.36-4-29.17-11.72-3.22-5.1-4.88-13.55-5.06-25.8-.09-1.81-.13-4-.13-6.74a2.92,2.92,0,0,1,2.86-3H39a2.92,2.92,0,0,1,2.87,3c0,10.66.84,14.3,1.37,15.54.48.91,1.91,3.3,7.59,3.39,4.15,0,6.22-1.82,6.85-6.11a34.25,34.25,0,0,0,.25-6.9c-.37-.52-2.19-2.52-10.37-6.86-11-5.75-17.66-9.4-20.33-11.15-7.58-5.14-11.36-9.94-11.58-14.72-.53-14.43.15-24.17,2.09-29.81,2.83-8.1,9.06-13.2,18.52-15.19a65.4,65.4,0,0,1,13.63-1.25c16,0,26.46,5.17,31.14,15.37,2.43,5.53,3.61,14.1,3.61,26.23a2.92,2.92,0,0,1-2.87,3H60.89a2.92,2.92,0,0,1-2.87-3c0-8.47-1-11-1.37-11.73-1.13-1.86-3.71-2.82-7.67-2.82-6.11,0-7.24,3-7.51,6a30.74,30.74,0,0,0,.48,6.2s.81,2.07,9.41,6.31c13.52,6.47,16.27,8,17.15,8.5C78.6,74.36,83.68,80.67,84,87.67c.45,13.55-.24,22.69-2.09,28-2.74,7.82-8.84,12.79-18.12,14.77A69,69,0,0,1,49.62,131.66Z"/><path d="M89.44,129.27a2.92,2.92,0,0,1-2.86-3V102.53a2.92,2.92,0,0,1,2.86-3h9.81V46.7H89.44a2.92,2.92,0,0,1-2.86-3V20a2.92,2.92,0,0,1,2.86-3h48.4a2.92,2.92,0,0,1,2.87,3V43.73a2.92,2.92,0,0,1-2.87,3H128V99.56h9.81a2.92,2.92,0,0,1,2.87,3V126.3a2.92,2.92,0,0,1-2.87,3Z"/><path d="M200.71,129.4a2.92,2.92,0,0,1-2.86-3V65.3L187.69,80.22a2.84,2.84,0,0,1-2.34,1.26h0A2.82,2.82,0,0,1,183,80.21l-10.15-15v61.22a2.92,2.92,0,0,1-2.87,3H146.8a2.92,2.92,0,0,1-2.86-3V20a2.92,2.92,0,0,1,2.86-3H170a2.88,2.88,0,0,1,2.64,1.81l12.73,17.93L198.07,18.8A2.88,2.88,0,0,1,200.71,17h23.18a2.92,2.92,0,0,1,2.86,3V126.43a2.92,2.92,0,0,1-2.86,3Z"/><path d="M266.91,131.39c-16.63,0-27.53-7-32.4-20.94-2.16-6.23-3.25-14.07-3.25-23.31V20a2.93,2.93,0,0,1,2.87-3h22.15a2.93,2.93,0,0,1,2.87,3c0,23.39,0,43,.12,58.26.11,16,1.58,21,2.45,22.57.59,1,1.82,2.48,5.19,2.48,2.83-.06,4.49-1.4,5.47-4.47.69-2.3,1.55-7.79,1.65-20.59.08-10.4.13-30,.13-58.25A2.92,2.92,0,0,1,277,17h22.15A2.92,2.92,0,0,1,302,20V87.14c0,18.07-3.72,30.14-11.38,36.91C285,128.93,277,131.39,266.91,131.39Z"/><path d="M310.06,129.27a2.92,2.92,0,0,1-2.87-3V20a2.92,2.92,0,0,1,2.87-3h23A2.92,2.92,0,0,1,336,20V99.56H367a2.92,2.92,0,0,1,2.86,3V126.3a2.92,2.92,0,0,1-2.86,3Z"/><path d="M426.07,129.27a2.89,2.89,0,0,1-2.77-2.2L420,114.53H398.42l-3.26,12.54a2.89,2.89,0,0,1-2.77,2.2H370.75a2.83,2.83,0,0,1-2.27-1.16,3,3,0,0,1-.5-2.58L395.51,19.2A2.89,2.89,0,0,1,398.28,17h21.9a2.88,2.88,0,0,1,2.76,2.21l27.53,106.33a3.08,3.08,0,0,1-.49,2.58,2.83,2.83,0,0,1-2.27,1.16ZM404.32,91l9.72-.31-4.86-26.1Z"/><path d="M459.87,129.27a2.92,2.92,0,0,1-2.87-3V46.7H440.53a2.92,2.92,0,0,1-2.86-3V20a2.92,2.92,0,0,1,2.86-3h61.85a2.93,2.93,0,0,1,2.87,3V43.73a2.92,2.92,0,0,1-2.87,3H485.91v79.6a2.92,2.92,0,0,1-2.86,3Z"/><path d="M510.57,129.27a2.92,2.92,0,0,1-2.86-3V102.53a2.92,2.92,0,0,1,2.86-3h9.81V46.7h-9.81a2.92,2.92,0,0,1-2.86-3V20a2.92,2.92,0,0,1,2.86-3H559a2.92,2.92,0,0,1,2.87,3V43.73a2.92,2.92,0,0,1-2.87,3h-9.81V99.56H559a2.92,2.92,0,0,1,2.87,3V126.3a2.92,2.92,0,0,1-2.87,3Z"/><path d="M599.69,131.66c-17.22,0-28.27-8.09-32.84-24-2.06-7.63-3.06-18.83-3.06-34.3s.91-26.39,2.79-33.45c4.65-16.86,15.78-25.44,33.1-25.54,17.05,0,28.05,7.94,32.71,23.6,2.15,7.16,3.2,18.31,3.2,34.06v1.33c0,15.36-.87,26.13-2.66,32.91-4,15.41-13.63,23.92-28.64,25.27C602.69,131.61,601.17,131.66,599.69,131.66Zm0-90.4a5.72,5.72,0,0,0-2.51.52,4,4,0,0,0-1.64,1.54,27.3,27.3,0,0,0-1.78,3.22,16.42,16.42,0,0,0-1.1,4.07c-.34,2-.59,3.7-.75,5.09s-.29,3.32-.37,5.78-.15,4.53-.19,5.9-.06,3.21-.06,5.82c0,13,.8,21.78,2.37,26,1.88,4.88,4.38,5.49,6.09,5.53,4.32,0,7-5.21,7.84-15.47.25-3.42.38-8.84.38-16.07,0-13.13-.77-22-2.27-26.35C603.83,41.84,601.38,41.26,599.69,41.26Z"/><path d="M692.27,129.53a2.71,2.71,0,0,1-1.41-.38,3,3,0,0,1-1.71-2.59L668,79.25v47.18a2.92,2.92,0,0,1-2.87,3H642.84a2.92,2.92,0,0,1-2.87-3V20a2.93,2.93,0,0,1,2.87-3h22.28a2.86,2.86,0,0,1,2.59,1.71c3.63,8,9.07,19.77,16.64,36.09q2.65,5.76,4.79,10.4V20A2.93,2.93,0,0,1,692,17h22.28a2.92,2.92,0,0,1,2.86,3V126.43a2.92,2.92,0,0,1-2.86,3h-21a2.61,2.61,0,0,1-.85.13Z"/><path d="M755.9,131.66c-14.55,0-24.36-4-29.17-11.72-3.22-5.1-4.88-13.55-5.06-25.8-.09-1.8-.13-4.07-.13-6.74a2.92,2.92,0,0,1,2.86-3h20.87a2.92,2.92,0,0,1,2.87,3c0,10.65.84,14.3,1.37,15.54.48.91,1.91,3.3,7.59,3.39,4.15,0,6.22-1.82,6.85-6.11a34.28,34.28,0,0,0,.25-6.9c-.37-.52-2.19-2.52-10.37-6.86-11-5.74-17.66-9.4-20.33-11.15-7.58-5.14-11.36-10-11.58-14.72-.53-14.43.15-24.17,2.09-29.81,2.83-8.1,9.06-13.2,18.52-15.19a65.4,65.4,0,0,1,13.63-1.25c16,0,26.46,5.17,31.14,15.37,2.43,5.53,3.61,14.09,3.61,26.23a2.92,2.92,0,0,1-2.87,3H767.17a2.92,2.92,0,0,1-2.87-3c0-8.47-1-11-1.37-11.73-1.13-1.86-3.71-2.82-7.67-2.82-4.87,0-7.12,1.79-7.51,6a30.74,30.74,0,0,0,.48,6.2s.81,2.07,9.42,6.31c13.52,6.48,16.26,8,17.14,8.5,10.09,6,15.17,12.28,15.47,19.28.45,13.55-.24,22.68-2.09,28-2.74,7.82-8.84,12.79-18.12,14.77A69,69,0,0,1,755.9,131.66Z"/><path d="M48.2,130.91c-14.61,0-24.46-3.94-29.29-11.72-3.23-5.1-4.9-13.54-5.08-25.8-.09-1.81-.13-4-.13-6.73a2.93,2.93,0,0,1,2.88-3h21a2.93,2.93,0,0,1,2.88,3c0,10.65.84,14.3,1.37,15.53.48.92,1.92,3.3,7.63,3.4,4.17,0,6.24-1.83,6.88-6.11a33.61,33.61,0,0,0,.24-6.9c-.37-.53-2.19-2.52-10.41-6.86-11-5.75-17.73-9.4-20.41-11.15-7.61-5.14-11.4-9.95-11.62-14.72-.54-14.43.15-24.17,2.09-29.81,2.84-8.1,9.1-13.21,18.6-15.19A65.84,65.84,0,0,1,48.46,13.6C64.51,13.6,75,18.77,79.73,29c2.44,5.54,3.62,14.1,3.62,26.24a2.93,2.93,0,0,1-2.88,3h-21a2.92,2.92,0,0,1-2.87-3c0-8.47-1-11-1.38-11.73-1.13-1.87-3.73-2.82-7.7-2.82-6.14,0-7.27,3-7.54,6a30.6,30.6,0,0,0,.48,6.19c0,.05.82,2.08,9.45,6.32,13.58,6.47,16.33,7.95,17.22,8.5,10.12,6,15.22,12.28,15.53,19.27.45,13.56-.24,22.69-2.1,28-2.75,7.81-8.87,12.78-18.19,14.77A70.36,70.36,0,0,1,48.2,130.91Z"/><path d="M88.18,128.52a2.92,2.92,0,0,1-2.87-3V101.79a2.92,2.92,0,0,1,2.87-3H98V46H88.18a2.93,2.93,0,0,1-2.87-3V19.22a2.92,2.92,0,0,1,2.87-3h48.6a2.93,2.93,0,0,1,2.88,3V43a2.94,2.94,0,0,1-2.88,3h-9.85V98.82h9.85a2.93,2.93,0,0,1,2.88,3v23.76a2.93,2.93,0,0,1-2.88,3Z"/><path d="M199.9,128.66a2.93,2.93,0,0,1-2.88-3V64.56l-10.2,14.92a2.84,2.84,0,0,1-2.35,1.26h0a2.86,2.86,0,0,1-2.35-1.27l-10.2-15v61.22a2.93,2.93,0,0,1-2.88,3H145.78a2.93,2.93,0,0,1-2.88-3V19.22a2.93,2.93,0,0,1,2.88-3H169a2.89,2.89,0,0,1,2.65,1.81L184.47,36l12.78-17.92a2.89,2.89,0,0,1,2.65-1.81h23.27a2.93,2.93,0,0,1,2.88,3V125.69a2.93,2.93,0,0,1-2.88,3Z"/><path d="M266.36,130.65c-16.69,0-27.64-7.05-32.53-20.94-2.16-6.24-3.26-14.08-3.26-23.32V19.22a2.93,2.93,0,0,1,2.88-3h22.24a2.93,2.93,0,0,1,2.88,3c0,23.39,0,43,.13,58.26.1,16,1.58,21,2.45,22.58.6,1,1.83,2.48,5.21,2.48,2.84-.06,4.51-1.4,5.5-4.48.68-2.29,1.55-7.78,1.65-20.59.09-10.4.13-30,.13-58.25a2.93,2.93,0,0,1,2.88-3h22.24a2.93,2.93,0,0,1,2.88,3V86.39c0,18.08-3.74,30.15-11.43,36.91C284.54,128.18,276.52,130.65,266.36,130.65Z"/><path d="M309.68,128.52a2.92,2.92,0,0,1-2.87-3V19.22a2.92,2.92,0,0,1,2.87-3h23.14a2.93,2.93,0,0,1,2.88,3v79.6h31.19a2.93,2.93,0,0,1,2.88,3v23.76a2.93,2.93,0,0,1-2.88,3Z"/><path d="M426.16,128.52a2.9,2.9,0,0,1-2.78-2.19l-3.28-12.54H398.41l-3.29,12.54a2.88,2.88,0,0,1-2.77,2.19H370.62a2.85,2.85,0,0,1-2.28-1.16,3,3,0,0,1-.5-2.58L395.48,18.45a2.9,2.9,0,0,1,2.78-2.2h22a2.89,2.89,0,0,1,2.78,2.2l27.64,106.33a3,3,0,0,1-.49,2.58,2.87,2.87,0,0,1-2.29,1.16ZM404.33,90.21l9.75-.31-4.87-26.1Z"/><path d="M460.1,128.52a2.93,2.93,0,0,1-2.88-3V46H440.69a2.94,2.94,0,0,1-2.88-3V19.22a2.93,2.93,0,0,1,2.88-3h62.09a2.93,2.93,0,0,1,2.88,3V43a2.94,2.94,0,0,1-2.88,3H486.24v79.59a2.92,2.92,0,0,1-2.87,3Z"/><path d="M511,128.52a2.92,2.92,0,0,1-2.87-3V101.79a2.92,2.92,0,0,1,2.87-3h9.86V46H511a2.93,2.93,0,0,1-2.87-3V19.22a2.92,2.92,0,0,1,2.87-3h48.6a2.93,2.93,0,0,1,2.88,3V43a2.94,2.94,0,0,1-2.88,3h-9.85V98.82h9.85a2.93,2.93,0,0,1,2.88,3v23.76a2.93,2.93,0,0,1-2.88,3Z"/><path d="M600.48,130.91c-17.29,0-28.39-8.08-33-24-2.07-7.63-3.07-18.84-3.07-34.3s.91-26.4,2.8-33.45c4.66-16.86,15.84-25.45,33.23-25.54,17.11,0,28.16,7.94,32.84,23.6,2.16,7.16,3.22,18.3,3.22,34.06v1.33c0,15.36-.88,26.13-2.68,32.91-4,15.41-13.68,23.92-28.75,25.27C603.49,130.87,602,130.91,600.48,130.91Zm0-90.4A5.76,5.76,0,0,0,598,41a4,4,0,0,0-1.64,1.55,26.75,26.75,0,0,0-1.8,3.22,16.32,16.32,0,0,0-1.1,4.06c-.34,2-.59,3.7-.75,5.09s-.29,3.32-.37,5.79-.15,4.53-.19,5.9-.07,3.21-.07,5.81c0,13,.81,21.78,2.38,26,1.89,4.87,4.4,5.49,6.12,5.53,4.33,0,7-5.21,7.87-15.48.25-3.41.38-8.83.38-16.07,0-13.13-.77-22-2.28-26.34C604.64,41.1,602.17,40.51,600.48,40.51Z"/><path d="M693.43,128.79a2.78,2.78,0,0,1-1.41-.38,3,3,0,0,1-1.72-2.59L669.05,78.51v47.18a2.93,2.93,0,0,1-2.88,3H643.8a2.92,2.92,0,0,1-2.87-3V19.22a2.92,2.92,0,0,1,2.87-3h22.37a2.85,2.85,0,0,1,2.6,1.7c3.65,8,9.11,19.78,16.71,36.09q2.65,5.76,4.81,10.4V19.22a2.93,2.93,0,0,1,2.88-3h22.37a2.93,2.93,0,0,1,2.88,3V125.69a2.93,2.93,0,0,1-2.88,3H694.41a3,3,0,0,1-.85.13Z"/><path d="M757.32,130.91c-14.61,0-24.47-3.94-29.29-11.72-3.23-5.1-4.9-13.54-5.08-25.8-.09-1.79-.13-4.06-.13-6.73a2.92,2.92,0,0,1,2.87-3h21a2.92,2.92,0,0,1,2.87,3c0,10.65.85,14.3,1.38,15.53.48.92,1.92,3.3,7.62,3.4,4.17,0,6.24-1.83,6.88-6.11a34.31,34.31,0,0,0,.25-6.9c-.37-.53-2.2-2.52-10.41-6.86-11-5.75-17.73-9.4-20.42-11.15-7.61-5.14-11.4-9.95-11.62-14.72-.53-14.43.15-24.17,2.1-29.81,2.84-8.1,9.09-13.21,18.59-15.19a65.88,65.88,0,0,1,13.69-1.25c16,0,26.56,5.17,31.26,15.36,2.45,5.53,3.62,14.1,3.62,26.24a2.92,2.92,0,0,1-2.87,3h-21a2.93,2.93,0,0,1-2.88-3c0-8.47-1-11-1.38-11.73-1.12-1.87-3.72-2.82-7.69-2.82-4.9,0-7.15,1.79-7.55,6a30.6,30.6,0,0,0,.48,6.19c0,.05.82,2.08,9.46,6.32,13.58,6.47,16.33,7.95,17.21,8.5,10.13,6,15.23,12.28,15.54,19.27.44,13.55-.24,22.69-2.1,28-2.75,7.81-8.88,12.78-18.19,14.77A70.36,70.36,0,0,1,757.32,130.91Z"/><path d="M46.78,130.17c-14.67,0-24.57-3.94-29.41-11.72-3.25-5.1-4.92-13.55-5.1-25.8-.09-1.81-.14-4-.14-6.74a2.93,2.93,0,0,1,2.89-3h21a2.93,2.93,0,0,1,2.89,3c0,10.66.85,14.3,1.38,15.54.49.91,1.93,3.3,7.66,3.4,4.18,0,6.26-1.83,6.9-6.11a34.38,34.38,0,0,0,.25-6.91c-.37-.52-2.2-2.52-10.45-6.85-11.1-5.75-17.81-9.4-20.5-11.16-7.64-5.14-11.44-9.94-11.66-14.71-.54-14.44.15-24.18,2.1-29.81,2.85-8.11,9.13-13.21,18.67-15.19A66.23,66.23,0,0,1,47,12.85c16.12,0,26.68,5.17,31.4,15.37,2.45,5.53,3.63,14.1,3.63,26.23a2.93,2.93,0,0,1-2.89,3h-21a2.93,2.93,0,0,1-2.89-3c0-8.47-1-11-1.39-11.73-1.13-1.86-3.74-2.82-7.73-2.82-6.16,0-7.3,3-7.57,6a30.69,30.69,0,0,0,.48,6.2s.82,2.08,9.49,6.32c13.63,6.47,16.4,8,17.29,8.5,10.17,6,15.29,12.27,15.59,19.27.45,13.55-.24,22.69-2.1,28C76.54,122,70.4,126.93,61,128.91A70,70,0,0,1,46.78,130.17Z"/><path d="M86.92,127.78a2.93,2.93,0,0,1-2.89-3V101.05a2.93,2.93,0,0,1,2.89-3h9.89V45.21H86.92a2.93,2.93,0,0,1-2.89-3V18.48a2.93,2.93,0,0,1,2.89-3h48.79a2.93,2.93,0,0,1,2.89,3V42.24a2.93,2.93,0,0,1-2.89,3h-9.89V98.08h9.89a2.93,2.93,0,0,1,2.89,3v23.76a2.93,2.93,0,0,1-2.89,3Z"/><path d="M199.08,127.91a2.93,2.93,0,0,1-2.89-3V63.81L186,78.73A2.86,2.86,0,0,1,183.59,80h0a2.86,2.86,0,0,1-2.36-1.26L171,63.73v61.21a2.93,2.93,0,0,1-2.89,3H144.74a2.93,2.93,0,0,1-2.89-3V18.48a2.93,2.93,0,0,1,2.89-3H168.1a2.88,2.88,0,0,1,2.66,1.8l12.83,17.93,12.83-17.93a2.9,2.9,0,0,1,2.66-1.8h23.37a2.93,2.93,0,0,1,2.88,3V124.94a2.93,2.93,0,0,1-2.88,3Z"/><path d="M265.81,129.91c-16.76,0-27.75-7-32.66-20.94-2.17-6.24-3.27-14.08-3.27-23.32V18.48a2.93,2.93,0,0,1,2.89-3H255.1a2.93,2.93,0,0,1,2.89,3c0,23.39,0,43,.13,58.26.1,16,1.59,21,2.46,22.58.6,1,1.84,2.47,5.23,2.47,2.86-.06,4.53-1.39,5.52-4.47C272,95,272.89,89.53,273,76.73c.09-10.4.13-30,.13-58.25a2.93,2.93,0,0,1,2.89-3h22.33a2.93,2.93,0,0,1,2.89,3V85.65c0,18.07-3.75,30.15-11.47,36.91C284.06,127.44,276,129.91,265.81,129.91Z"/><path d="M309.31,127.78a2.93,2.93,0,0,1-2.89-3V18.48a2.93,2.93,0,0,1,2.89-3h23.23a2.93,2.93,0,0,1,2.89,3v79.6h31.32a2.93,2.93,0,0,1,2.89,3v23.76a2.93,2.93,0,0,1-2.89,3Z"/><path d="M426.25,127.78a2.91,2.91,0,0,1-2.79-2.2l-3.29-12.53H398.39l-3.3,12.54a2.9,2.9,0,0,1-2.79,2.19H370.49a2.85,2.85,0,0,1-2.29-1.16,3,3,0,0,1-.5-2.58L395.45,17.71a2.9,2.9,0,0,1,2.79-2.2h22.07a2.9,2.9,0,0,1,2.79,2.2L450.85,124a3,3,0,0,1-.49,2.58,2.88,2.88,0,0,1-2.3,1.16ZM404.33,89.47l9.79-.31-4.89-26.1Z"/><path d="M460.33,127.78a2.93,2.93,0,0,1-2.89-3V45.21h-16.6a2.93,2.93,0,0,1-2.89-3V18.48a2.93,2.93,0,0,1,2.89-3h62.34a2.93,2.93,0,0,1,2.89,3V42.24a2.93,2.93,0,0,1-2.89,3h-16.6v79.6a2.93,2.93,0,0,1-2.89,3Z"/><path d="M511.44,127.78a2.93,2.93,0,0,1-2.89-3V101.05a2.93,2.93,0,0,1,2.89-3h9.89V45.21h-9.89a2.93,2.93,0,0,1-2.89-3V18.48a2.93,2.93,0,0,1,2.89-3h48.79a2.93,2.93,0,0,1,2.89,3V42.24a2.93,2.93,0,0,1-2.89,3h-9.89V98.08h9.89a2.93,2.93,0,0,1,2.89,3v23.76a2.93,2.93,0,0,1-2.89,3Z"/><path d="M601.27,130.17c-17.36,0-28.5-8.08-33.1-24-2.08-7.62-3.09-18.83-3.09-34.3S566,45.45,567.9,38.4c4.68-16.86,15.9-25.45,33.36-25.55,17.19,0,28.28,7.94,33,23.6,2.17,7.16,3.22,18.31,3.22,34.07v1.32c0,15.37-.87,26.13-2.68,32.91-4,15.41-13.74,23.92-28.87,25.28C604.29,130.12,602.76,130.17,601.27,130.17Zm0-90.4a5.81,5.81,0,0,0-2.53.52,4.07,4.07,0,0,0-1.65,1.54,29.19,29.19,0,0,0-1.8,3.23,16.71,16.71,0,0,0-1.11,4.06c-.34,2-.59,3.7-.75,5.09s-.29,3.32-.37,5.79-.15,4.53-.19,5.9-.07,3.21-.07,5.81c0,13,.81,21.78,2.39,26,1.9,4.88,4.42,5.5,6.15,5.53,4.34,0,7-5.2,7.9-15.47.25-3.42.37-8.83.37-16.07,0-13.13-.76-22-2.28-26.34C605.45,40.36,603,39.77,601.27,39.77Z"/><path d="M694.59,128.05a2.81,2.81,0,0,1-1.41-.38,3,3,0,0,1-1.73-2.6l-21.33-47.3v47.17a2.93,2.93,0,0,1-2.89,3H644.77a2.93,2.93,0,0,1-2.89-3V18.48a2.93,2.93,0,0,1,2.89-3h22.46a2.88,2.88,0,0,1,2.61,1.7c3.66,8,9.15,19.77,16.77,36.09l4.84,10.4V18.48a2.93,2.93,0,0,1,2.89-3h22.45a2.93,2.93,0,0,1,2.89,3V124.94a2.93,2.93,0,0,1-2.89,3H695.58a2.72,2.72,0,0,1-.86.14Z"/><path d="M758.74,130.17c-14.67,0-24.56-3.94-29.41-11.72-3.24-5.1-4.91-13.55-5.1-25.8-.09-1.8-.13-4.06-.13-6.74a2.93,2.93,0,0,1,2.89-3h21a2.93,2.93,0,0,1,2.89,3c0,10.65.84,14.3,1.37,15.54.49.91,1.93,3.3,7.66,3.4,4.19,0,6.27-1.83,6.91-6.11a33.74,33.74,0,0,0,.24-6.91c-.37-.52-2.2-2.52-10.45-6.85-11.09-5.75-17.8-9.4-20.49-11.16-7.65-5.14-11.45-9.94-11.67-14.71-.54-14.44.15-24.18,2.1-29.81,2.85-8.11,9.14-13.21,18.67-15.19A66.4,66.4,0,0,1,759,12.85c16.11,0,26.67,5.17,31.39,15.37,2.45,5.53,3.64,14.1,3.64,26.23a2.93,2.93,0,0,1-2.89,3h-21a2.93,2.93,0,0,1-2.89-3c0-8.47-1-11-1.39-11.73-1.13-1.86-3.73-2.82-7.72-2.82-4.91,0-7.18,1.79-7.58,6a30.69,30.69,0,0,0,.48,6.2s.83,2.08,9.5,6.32c13.63,6.47,16.39,8,17.28,8.5,10.17,6,15.29,12.27,15.6,19.27.45,13.55-.24,22.69-2.11,28-2.76,7.82-8.91,12.79-18.26,14.77A70.21,70.21,0,0,1,758.74,130.17Z"/><path d="M45.35,129.43c-14.73,0-24.66-4-29.53-11.73-3.26-5.09-4.94-13.54-5.12-25.79-.09-1.81-.14-4-.14-6.74a2.94,2.94,0,0,1,2.91-3H34.59a2.94,2.94,0,0,1,2.9,3c0,10.65.85,14.3,1.38,15.54.49.91,1.94,3.3,7.69,3.39,4.2,0,6.29-1.82,6.93-6.11a32.83,32.83,0,0,0,.25-6.9c-.37-.52-2.21-2.52-10.49-6.86-11.14-5.75-17.88-9.4-20.58-11.15C15,67.94,11.18,63.13,11,58.36c-.54-14.43.15-24.17,2.11-29.81,2.86-8.1,9.17-13.2,18.74-15.19A66.9,66.9,0,0,1,45.6,12.11c16.18,0,26.79,5.17,31.52,15.37,2.47,5.53,3.65,14.1,3.65,26.23a2.93,2.93,0,0,1-2.9,3H56.75a2.94,2.94,0,0,1-2.9-3c0-8.47-1-11-1.39-11.73-1.14-1.86-3.76-2.82-7.76-2.82-6.19,0-7.33,3-7.6,6a29.89,29.89,0,0,0,.48,6.19s.82,2.08,9.53,6.32c13.68,6.47,16.46,8,17.35,8.5,10.21,6,15.35,12.28,15.66,19.27.45,13.56-.24,22.7-2.11,28-2.78,7.82-9,12.79-18.34,14.77A71.39,71.39,0,0,1,45.35,129.43Z"/><path d="M85.65,127a2.94,2.94,0,0,1-2.9-3V100.3a2.94,2.94,0,0,1,2.9-3h9.93V44.47H85.65a2.94,2.94,0,0,1-2.9-3V17.73a2.94,2.94,0,0,1,2.9-3h49a2.94,2.94,0,0,1,2.91,3V41.5a2.94,2.94,0,0,1-2.91,3h-9.92V97.33h9.92a2.94,2.94,0,0,1,2.91,3v23.77a2.94,2.94,0,0,1-2.91,3Z"/><path d="M198.26,127.17a2.94,2.94,0,0,1-2.9-3V63.07L185.08,78a2.88,2.88,0,0,1-2.37,1.26h0A2.85,2.85,0,0,1,180.34,78L170.06,63V124.2a2.94,2.94,0,0,1-2.9,3H143.7a2.94,2.94,0,0,1-2.9-3V17.73a2.94,2.94,0,0,1,2.9-3h23.46a2.9,2.9,0,0,1,2.67,1.81l12.88,17.92,12.88-17.92a2.93,2.93,0,0,1,2.67-1.81h23.46a2.94,2.94,0,0,1,2.9,3V124.2a2.94,2.94,0,0,1-2.9,3Z"/><path d="M265.26,129.16c-16.83,0-27.86-7-32.79-20.94-2.18-6.23-3.29-14.07-3.29-23.31V17.73a2.94,2.94,0,0,1,2.9-3H254.5a2.93,2.93,0,0,1,2.9,3c0,23.4.05,43,.13,58.26.11,16,1.6,21,2.48,22.58.6,1,1.84,2.48,5.25,2.48,2.87-.06,4.54-1.4,5.54-4.47.69-2.3,1.56-7.79,1.67-20.59.08-10.4.13-30,.13-58.26a2.94,2.94,0,0,1,2.9-3h22.42a2.94,2.94,0,0,1,2.9,3V84.91c0,18.07-3.77,30.14-11.52,36.9C283.58,126.7,275.5,129.16,265.26,129.16Z"/><path d="M308.93,127a2.94,2.94,0,0,1-2.9-3V17.73a2.94,2.94,0,0,1,2.9-3h23.33a2.94,2.94,0,0,1,2.9,3v79.6H366.6a2.94,2.94,0,0,1,2.9,3v23.77a2.94,2.94,0,0,1-2.9,3Z"/><path d="M426.34,127a2.92,2.92,0,0,1-2.8-2.2l-3.3-12.54H398.37l-3.31,12.54a2.91,2.91,0,0,1-2.8,2.2h-21.9a2.87,2.87,0,0,1-2.3-1.17,3,3,0,0,1-.5-2.57L395.42,17a2.92,2.92,0,0,1,2.8-2.2h22.16a2.92,2.92,0,0,1,2.8,2.2L451.05,123.3a3,3,0,0,1-.5,2.57,2.87,2.87,0,0,1-2.31,1.17Zm-22-38.31,9.83-.31-4.92-26.1Z"/><path d="M460.56,127a2.93,2.93,0,0,1-2.9-3V44.47H441a2.94,2.94,0,0,1-2.9-3V17.73a2.94,2.94,0,0,1,2.9-3h62.59a2.94,2.94,0,0,1,2.9,3V41.5a2.94,2.94,0,0,1-2.9,3H486.91v79.6a2.94,2.94,0,0,1-2.9,3Z"/><path d="M511.87,127a2.94,2.94,0,0,1-2.9-3V100.3a2.94,2.94,0,0,1,2.9-3h9.93V44.47h-9.93a2.94,2.94,0,0,1-2.9-3V17.73a2.94,2.94,0,0,1,2.9-3h49a2.94,2.94,0,0,1,2.9,3V41.5a2.94,2.94,0,0,1-2.9,3h-9.93V97.33h9.93a2.94,2.94,0,0,1,2.9,3v23.77a2.94,2.94,0,0,1-2.9,3Z"/><path d="M602.07,129.43c-17.43,0-28.61-8.09-33.23-24-2.1-7.63-3.11-18.83-3.11-34.3s.93-26.4,2.83-33.45c4.7-16.86,16-25.44,33.49-25.54,17.26,0,28.4,7.94,33.12,23.6,2.17,7.16,3.23,18.3,3.23,34.06V71.1c0,15.36-.88,26.13-2.69,32.91-4,15.41-13.8,23.92-29,25.27C605.1,129.38,603.56,129.43,602.07,129.43Zm0-90.4a5.82,5.82,0,0,0-2.54.52,4,4,0,0,0-1.66,1.54,27.66,27.66,0,0,0-1.81,3.22A16.81,16.81,0,0,0,595,48.38c-.34,2-.59,3.7-.76,5.09s-.29,3.32-.37,5.78-.15,4.53-.19,5.9-.06,3.21-.06,5.82c0,13,.8,21.78,2.39,26,1.91,4.88,4.44,5.49,6.17,5.53,4.37,0,7.06-5.21,7.94-15.47.25-3.42.37-8.84.37-16.07,0-13.13-.77-22-2.29-26.35C606.26,39.61,603.77,39,602.07,39Z"/><path d="M695.76,127.3a2.87,2.87,0,0,1-1.42-.38,3,3,0,0,1-1.73-2.59L671.19,77V124.2a2.94,2.94,0,0,1-2.9,3H645.74a2.94,2.94,0,0,1-2.9-3V17.73a2.94,2.94,0,0,1,2.9-3h22.55a2.9,2.9,0,0,1,2.62,1.71c3.68,8,9.18,19.77,16.84,36.09q2.68,5.76,4.85,10.4V17.73a2.94,2.94,0,0,1,2.91-3h22.54a2.93,2.93,0,0,1,2.9,3V124.2a2.93,2.93,0,0,1-2.9,3h-21.3a2.71,2.71,0,0,1-.86.13Z"/><path d="M760.17,129.43c-14.73,0-24.66-4-29.53-11.73-3.25-5.09-4.93-13.54-5.12-25.79-.09-1.8-.13-4.07-.13-6.74a2.94,2.94,0,0,1,2.9-3h21.12a2.94,2.94,0,0,1,2.9,3c0,10.65.85,14.3,1.39,15.54.48.91,1.93,3.3,7.68,3.39,4.21,0,6.29-1.82,6.94-6.11a33.64,33.64,0,0,0,.24-6.9c-.37-.52-2.21-2.52-10.49-6.86-11.14-5.75-17.87-9.4-20.58-11.15-7.67-5.14-11.49-9.95-11.71-14.72-.54-14.43.15-24.17,2.11-29.81,2.87-8.1,9.17-13.2,18.74-15.19a67.07,67.07,0,0,1,13.8-1.25c16.18,0,26.78,5.17,31.52,15.37,2.46,5.53,3.65,14.09,3.65,26.23a2.94,2.94,0,0,1-2.9,3H771.57a2.94,2.94,0,0,1-2.9-3c0-8.47-1-11-1.39-11.73-1.14-1.86-3.75-2.82-7.76-2.82-4.93,0-7.21,1.79-7.6,6a30.74,30.74,0,0,0,.48,6.2s.83,2.07,9.53,6.31c13.69,6.48,16.46,8,17.36,8.5,10.21,6,15.35,12.28,15.66,19.27.45,13.56-.25,22.69-2.12,28-2.77,7.82-8.94,12.79-18.34,14.77A71.32,71.32,0,0,1,760.17,129.43Z"/><path d="M43.91,128.68c-14.79,0-24.76-3.94-29.65-11.72-3.27-5.1-4.95-13.54-5.14-25.8C9,89.35,9,87.15,9,84.43a2.94,2.94,0,0,1,2.91-3H33.11a2.94,2.94,0,0,1,2.91,3c0,10.65.86,14.3,1.39,15.53.49.92,1.94,3.3,7.72,3.4,4.22,0,6.31-1.83,7-6.11a33.62,33.62,0,0,0,.25-6.91c-.38-.52-2.22-2.52-10.54-6.85-11.18-5.75-17.94-9.4-20.66-11.15-7.7-5.14-11.54-10-11.76-14.72-.54-14.43.15-24.17,2.12-29.81,2.88-8.1,9.21-13.21,18.82-15.19a67.45,67.45,0,0,1,13.85-1.25c16.24,0,26.89,5.17,31.64,15.36,2.48,5.54,3.67,14.1,3.67,26.24a2.94,2.94,0,0,1-2.91,3H55.36a2.94,2.94,0,0,1-2.91-3c0-8.48-1-11-1.4-11.73-1.14-1.87-3.77-2.83-7.79-2.83-6.21,0-7.36,3-7.63,6a29.89,29.89,0,0,0,.48,6.19s.83,2.08,9.57,6.32c13.74,6.47,16.52,8,17.42,8.5,10.25,6,15.41,12.28,15.73,19.27.45,13.55-.25,22.69-2.13,28-2.78,7.81-9,12.78-18.41,14.77A72,72,0,0,1,43.91,128.68Z"/><path d="M84.37,126.29a3,3,0,0,1-2.91-3V99.56a3,3,0,0,1,2.91-3h10V43.72h-10a3,3,0,0,1-2.91-3V17a3,3,0,0,1,2.91-3h49.19a3,3,0,0,1,2.91,3V40.75a3,3,0,0,1-2.91,3h-10V96.59h10a3,3,0,0,1,2.91,3v23.76a3,3,0,0,1-2.91,3Z"/><path d="M197.44,126.43a2.94,2.94,0,0,1-2.91-3V62.33L184.21,77.25a2.9,2.9,0,0,1-2.38,1.25h0a2.91,2.91,0,0,1-2.38-1.26l-10.31-15v61.22a3,3,0,0,1-2.92,3H142.66a2.94,2.94,0,0,1-2.91-3V17a2.94,2.94,0,0,1,2.91-3h23.55a2.89,2.89,0,0,1,2.68,1.81l12.94,17.92,12.93-17.92A2.91,2.91,0,0,1,197.44,14H221a2.94,2.94,0,0,1,2.91,3V123.46a2.94,2.94,0,0,1-2.91,3Z"/><path d="M264.71,128.42c-16.9,0-28-7-32.93-20.94-2.19-6.24-3.29-14.08-3.29-23.32V17a2.94,2.94,0,0,1,2.91-3h22.51a2.94,2.94,0,0,1,2.91,3c0,23.39,0,43,.13,58.26.11,16,1.6,21,2.48,22.58.61,1,1.86,2.48,5.28,2.48,2.87-.06,4.56-1.4,5.56-4.48.7-2.29,1.57-7.78,1.67-20.59.09-10.4.13-30,.13-58.25A3,3,0,0,1,275,14H297.5a3,3,0,0,1,2.91,3V84.16c0,18.08-3.78,30.15-11.56,36.91C283.1,126,275,128.42,264.71,128.42Z"/><path d="M308.55,126.29a3,3,0,0,1-2.91-3V17a3,3,0,0,1,2.91-3H332a3,3,0,0,1,2.92,3v79.6h31.56a3,3,0,0,1,2.92,3v23.76a3,3,0,0,1-2.92,3Z"/><path d="M426.44,126.29a2.92,2.92,0,0,1-2.81-2.19l-3.32-12.54h-22L395,124.1a2.92,2.92,0,0,1-2.81,2.19h-22a2.89,2.89,0,0,1-2.31-1.16,3,3,0,0,1-.51-2.58l28-106.33A2.91,2.91,0,0,1,398.2,14h22.25a2.91,2.91,0,0,1,2.81,2.2l28,106.33a3,3,0,0,1-.5,2.58,2.9,2.9,0,0,1-2.31,1.16ZM404.35,88l9.86-.31-4.93-26.1Z"/><path d="M460.79,126.29a2.94,2.94,0,0,1-2.91-3V43.72H441.14a2.94,2.94,0,0,1-2.91-3V17a2.94,2.94,0,0,1,2.91-3H504a3,3,0,0,1,2.91,3V40.75a3,3,0,0,1-2.91,3H487.25v79.6a2.94,2.94,0,0,1-2.91,3Z"/><path d="M512.31,126.29a2.94,2.94,0,0,1-2.91-3V99.56a2.94,2.94,0,0,1,2.91-3h10V43.72h-10a2.94,2.94,0,0,1-2.91-3V17a2.94,2.94,0,0,1,2.91-3h49.18a2.94,2.94,0,0,1,2.91,3V40.75a2.94,2.94,0,0,1-2.91,3h-10V96.59h10a2.94,2.94,0,0,1,2.91,3v23.76a2.94,2.94,0,0,1-2.91,3Z"/><path d="M602.87,128.68c-17.5,0-28.73-8.08-33.37-24-2.1-7.62-3.11-18.83-3.11-34.29s.93-26.4,2.84-33.45c4.72-16.86,16-25.45,33.62-25.54,17.33,0,28.51,7.94,33.25,23.6,2.19,7.16,3.25,18.3,3.25,34.06v1.33c0,15.36-.88,26.13-2.71,32.91-4.06,15.41-13.85,23.91-29.09,25.27C605.91,128.64,604.37,128.68,602.87,128.68Zm0-90.4a5.87,5.87,0,0,0-2.55.52,4.18,4.18,0,0,0-1.67,1.54,27.76,27.76,0,0,0-1.81,3.23,16.21,16.21,0,0,0-1.12,4.06c-.34,2-.6,3.7-.76,5.09s-.29,3.32-.37,5.79-.15,4.53-.2,5.9-.06,3.21-.06,5.81c0,13,.81,21.78,2.41,26,1.91,4.87,4.45,5.49,6.19,5.53,4.38,0,7.09-5.21,8-15.48.25-3.41.38-8.83.38-16.07,0-13.13-.78-22-2.3-26.34C607.08,38.87,604.58,38.28,602.87,38.28Z"/><path d="M696.94,126.56a2.88,2.88,0,0,1-1.43-.38,3,3,0,0,1-1.74-2.59l-21.5-47.31v47.18a3,3,0,0,1-2.91,3H646.72a3,3,0,0,1-2.92-3V17a3,3,0,0,1,2.92-3h22.64a2.91,2.91,0,0,1,2.63,1.7c3.69,8,9.22,19.78,16.9,36.09l4.88,10.4V17a2.94,2.94,0,0,1,2.91-3h22.64a2.94,2.94,0,0,1,2.91,3V123.46a2.94,2.94,0,0,1-2.91,3H697.93a3,3,0,0,1-.86.13Z"/><path d="M761.6,128.68c-14.78,0-24.76-3.94-29.64-11.72-3.27-5.1-5-13.54-5.15-25.8-.08-1.79-.13-4.06-.13-6.73a3,3,0,0,1,2.92-3h21.2a3,3,0,0,1,2.92,3c0,10.65.85,14.29,1.38,15.53.49.92,1.95,3.3,7.72,3.4,4.22,0,6.32-1.83,7-6.11a33,33,0,0,0,.25-6.91c-.37-.52-2.22-2.52-10.53-6.85-11.19-5.75-18-9.4-20.66-11.16-7.71-5.13-11.54-9.94-11.76-14.71-.54-14.43.15-24.17,2.11-29.81,2.88-8.1,9.21-13.21,18.82-15.19a67.52,67.52,0,0,1,13.85-1.25c16.25,0,26.89,5.17,31.65,15.36,2.47,5.53,3.66,14.1,3.66,26.24a2.94,2.94,0,0,1-2.91,3H773.05a3,3,0,0,1-2.91-3c0-8.48-1-11-1.4-11.73-1.14-1.87-3.77-2.83-7.79-2.83-5,0-7.23,1.8-7.63,6a30.6,30.6,0,0,0,.48,6.19s.83,2.08,9.58,6.32c13.74,6.47,16.52,8,17.42,8.5,10.25,6,15.41,12.28,15.72,19.27.45,13.55-.24,22.69-2.12,28-2.79,7.81-9,12.78-18.42,14.77A72,72,0,0,1,761.6,128.68Z"/><path d="M42.47,127.94c-14.85,0-24.86-3.94-29.77-11.72-3.28-5.1-5-13.55-5.16-25.8-.09-1.81-.13-4-.13-6.74a3,3,0,0,1,2.92-3H31.62a3,3,0,0,1,2.93,3c0,10.66.86,14.3,1.39,15.54.49.91,2,3.3,7.75,3.4,4.24,0,6.34-1.83,7-6.11a33,33,0,0,0,.25-6.91c-.38-.52-2.23-2.52-10.58-6.85-11.23-5.75-18-9.4-20.74-11.16C11.87,66.45,8,61.65,7.8,56.88,7.26,42.44,8,32.7,9.93,27.07,12.82,19,19.17,13.86,28.82,11.88a68,68,0,0,1,13.91-1.26c16.3,0,27,5.17,31.77,15.37,2.48,5.53,3.68,14.1,3.68,26.23a3,3,0,0,1-2.92,3H54a3,3,0,0,1-2.92-3c0-8.47-1-11-1.4-11.73-1.15-1.86-3.79-2.82-7.83-2.82-6.23,0-7.38,3-7.66,6a30.05,30.05,0,0,0,.49,6.2s.83,2.08,9.6,6.32c13.8,6.47,16.6,7.95,17.5,8.5C72,70.64,77.21,77,77.52,84c.46,13.55-.24,22.69-2.13,28-2.8,7.82-9,12.79-18.49,14.77A71.68,71.68,0,0,1,42.47,127.94Z"/><path d="M83.09,125.55a3,3,0,0,1-2.92-3V98.82a3,3,0,0,1,2.92-3h10V43h-10a3,3,0,0,1-2.92-3V16.25a3,3,0,0,1,2.92-3h49.38a3,3,0,0,1,2.93,3V40a3,3,0,0,1-2.93,3h-10V95.85h10a3,3,0,0,1,2.93,3v23.76a3,3,0,0,1-2.93,3Z"/><path d="M196.62,125.68a3,3,0,0,1-2.93-3V61.58L183.33,76.5a2.91,2.91,0,0,1-2.39,1.26h0a2.91,2.91,0,0,1-2.39-1.26l-10.35-15v61.21a3,3,0,0,1-2.93,3H141.62a3,3,0,0,1-2.93-3V16.25a3,3,0,0,1,2.93-3h23.64a2.91,2.91,0,0,1,2.69,1.8l13,17.93,13-17.93a2.94,2.94,0,0,1,2.7-1.8h23.64a3,3,0,0,1,2.92,3V122.71a3,3,0,0,1-2.92,3Z"/><path d="M264.15,127.67c-17,0-28.08-7-33-20.93-2.2-6.24-3.32-14.08-3.32-23.32V16.25a3,3,0,0,1,2.93-3h22.6a3,3,0,0,1,2.92,3c0,23.39,0,43,.13,58.26.11,15.95,1.61,21,2.5,22.58.6,1,1.86,2.47,5.29,2.47,2.89-.06,4.58-1.4,5.59-4.47.7-2.29,1.57-7.79,1.68-20.59.08-10.4.13-30,.13-58.25a3,3,0,0,1,2.92-3h22.6a3,3,0,0,1,2.93,3V83.42c0,18.07-3.8,30.15-11.61,36.91C282.62,125.21,274.47,127.67,264.15,127.67Z"/><path d="M308.17,125.55a3,3,0,0,1-2.92-3V16.25a3,3,0,0,1,2.92-3h23.52a3,3,0,0,1,2.92,3v79.6h31.7a3,3,0,0,1,2.92,3v23.76a3,3,0,0,1-2.92,3Z"/><path d="M426.53,125.55a2.92,2.92,0,0,1-2.82-2.2l-3.34-12.53h-22L395,123.35a3,3,0,0,1-2.83,2.2H370.1a2.91,2.91,0,0,1-2.32-1.16,3,3,0,0,1-.51-2.58L395.36,15.48a2.92,2.92,0,0,1,2.82-2.2h22.34a2.92,2.92,0,0,1,2.82,2.2l28.09,106.33a3,3,0,0,1-.5,2.58,2.92,2.92,0,0,1-2.32,1.16ZM404.35,87.24l9.91-.31-5-26.1Z"/><path d="M461,125.55a2.94,2.94,0,0,1-2.92-3V43H441.29a3,3,0,0,1-2.92-3V16.25a3,3,0,0,1,2.92-3h63.1a2.94,2.94,0,0,1,2.92,3V40a2.94,2.94,0,0,1-2.92,3h-16.8v79.6a3,3,0,0,1-2.93,3Z"/><path d="M512.75,125.55a2.94,2.94,0,0,1-2.92-3V98.82a2.94,2.94,0,0,1,2.92-3h10V43h-10a2.94,2.94,0,0,1-2.92-3V16.25a2.94,2.94,0,0,1,2.92-3h49.38a3,3,0,0,1,2.92,3V40a3,3,0,0,1-2.92,3h-10V95.85h10a3,3,0,0,1,2.92,3v23.76a3,3,0,0,1-2.92,3Z"/><path d="M603.67,127.94c-17.57,0-28.84-8.08-33.5-24-2.11-7.62-3.13-18.83-3.13-34.3s.94-26.39,2.85-33.44c4.74-16.86,16.1-25.45,33.77-25.55,17.39,0,28.62,7.94,33.37,23.6,2.2,7.16,3.27,18.31,3.27,34.07v1.32c0,15.37-.89,26.13-2.72,32.91-4.07,15.41-13.9,23.92-29.21,25.28C606.73,127.89,605.18,127.94,603.67,127.94Zm0-90.4a5.94,5.94,0,0,0-2.56.52,4,4,0,0,0-1.67,1.54,25.75,25.75,0,0,0-1.82,3.23,16.15,16.15,0,0,0-1.13,4.06c-.34,2-.59,3.7-.76,5.09s-.29,3.32-.37,5.79-.15,4.53-.2,5.9-.06,3.21-.06,5.81c0,13,.81,21.78,2.42,26,1.91,4.88,4.46,5.5,6.21,5.53,4.4,0,7.12-5.2,8-15.47.25-3.42.38-8.84.38-16.07,0-13.13-.77-22-2.31-26.34C607.9,38.13,605.39,37.54,603.67,37.54Z"/><path d="M698.12,125.82a2.79,2.79,0,0,1-1.43-.39,3,3,0,0,1-1.75-2.59l-21.59-47.3v47.17a3,3,0,0,1-2.93,3H647.69a3,3,0,0,1-2.92-3V16.25a3,3,0,0,1,2.92-3h22.73a2.91,2.91,0,0,1,2.65,1.7c3.7,8,9.25,19.77,17,36.09l4.9,10.4V16.25a2.94,2.94,0,0,1,2.92-3h22.73a3,3,0,0,1,2.92,3V122.71a3,3,0,0,1-2.92,3H699.12a2.83,2.83,0,0,1-.87.14Z"/><path d="M763,127.94c-14.84,0-24.86-3.94-29.76-11.72-3.28-5.1-5-13.55-5.17-25.8-.08-1.8-.13-4.06-.13-6.74a3,3,0,0,1,2.93-3H752.2a3,3,0,0,1,2.92,3c0,10.65.86,14.3,1.4,15.54.49.91,2,3.3,7.75,3.4,4.23,0,6.34-1.83,7-6.11a34.38,34.38,0,0,0,.25-6.91c-.38-.52-2.23-2.52-10.58-6.85-11.23-5.75-18-9.4-20.75-11.16-7.73-5.14-11.58-9.94-11.8-14.71-.54-14.44.15-24.18,2.12-29.81,2.89-8.11,9.25-13.21,18.9-15.19a67.9,67.9,0,0,1,13.9-1.26c16.31,0,27,5.17,31.78,15.37,2.48,5.53,3.68,14.1,3.68,26.23a3,3,0,0,1-2.93,3H774.54a2.94,2.94,0,0,1-2.92-3c0-8.47-1-11-1.41-11.73-1.14-1.86-3.78-2.82-7.82-2.82-5,0-7.27,1.79-7.66,6a30.69,30.69,0,0,0,.48,6.2s.84,2.08,9.61,6.32c13.8,6.47,16.6,7.95,17.49,8.5,10.3,6,15.48,12.27,15.79,19.27.45,13.55-.24,22.69-2.13,28-2.8,7.82-9,12.79-18.49,14.77A71.78,71.78,0,0,1,763,127.94Z"/><path d="M41,127.2c-14.91,0-25-4-29.89-11.73-3.29-5.09-5-13.54-5.18-25.79-.09-1.81-.13-4-.13-6.74a3,3,0,0,1,2.93-3H30.13a3,3,0,0,1,2.94,3c0,10.65.86,14.3,1.4,15.54.49.91,2,3.29,7.78,3.39,4.25,0,6.36-1.82,7-6.11a33.61,33.61,0,0,0,.24-6.9c-.37-.52-2.23-2.52-10.61-6.86-11.28-5.75-18.1-9.4-20.83-11.15C10.3,65.71,6.44,60.9,6.21,56.13,5.67,41.7,6.37,32,8.35,26.32c2.9-8.1,9.28-13.21,19-15.19a68.51,68.51,0,0,1,14-1.25c16.37,0,27.11,5.17,31.9,15.37,2.49,5.53,3.7,14.1,3.7,26.23a3,3,0,0,1-2.94,3H52.56a3,3,0,0,1-2.94-3c0-8.47-1-11-1.4-11.73-1.15-1.86-3.8-2.82-7.86-2.82-6.26,0-7.41,3-7.69,6a30,30,0,0,0,.49,6.19s.83,2.08,9.64,6.32c13.85,6.47,16.66,8,17.57,8.5,10.33,6,15.53,12.28,15.85,19.27.45,13.56-.25,22.69-2.14,28C71.27,119,65,124,55.51,125.94A73,73,0,0,1,41,127.2Z"/><path d="M81.81,124.81a3,3,0,0,1-2.94-3V98.07a3,3,0,0,1,2.94-3h10V42.24h-10a3,3,0,0,1-2.94-3V15.5a3,3,0,0,1,2.94-3h49.58a3,3,0,0,1,2.93,3V39.27a3,3,0,0,1-2.93,3h-10V95.1h10a3,3,0,0,1,2.93,3v23.77a3,3,0,0,1-2.93,3Z"/><path d="M195.79,124.94a3,3,0,0,1-2.94-3V60.84L182.44,75.76A2.91,2.91,0,0,1,180.05,77h0a2.94,2.94,0,0,1-2.4-1.27l-10.4-15V122a3,3,0,0,1-2.93,3H140.57a3,3,0,0,1-2.94-3V15.5a3,3,0,0,1,2.94-3h23.74a3,3,0,0,1,2.7,1.81l13,17.92,13-17.92a3,3,0,0,1,2.71-1.81h23.74a3,3,0,0,1,2.93,3V122a3,3,0,0,1-2.93,3Z"/><path d="M263.59,126.93c-17,0-28.19-7-33.19-20.94-2.2-6.23-3.32-14.07-3.32-23.31V15.5a3,3,0,0,1,2.94-3h22.69a3,3,0,0,1,2.93,3c0,23.4.05,43,.13,58.26.11,16,1.62,21,2.51,22.58.61,1,1.87,2.48,5.31,2.48,2.9-.06,4.6-1.4,5.61-4.47.7-2.3,1.58-7.79,1.69-20.59.09-10.4.13-30,.13-58.26a3,3,0,0,1,2.94-3h22.69a3,3,0,0,1,2.93,3V82.68c0,18.07-3.81,30.14-11.65,36.9C282.14,124.47,274,126.93,263.59,126.93Z"/><path d="M307.79,124.81a3,3,0,0,1-2.93-3V15.5a3,3,0,0,1,2.93-3H331.4a3,3,0,0,1,2.94,3V95.1h31.82a3,3,0,0,1,2.94,3v23.77a3,3,0,0,1-2.94,3Z"/><path d="M426.63,124.81a3,3,0,0,1-2.84-2.2l-3.35-12.54H398.31L395,122.61a2.93,2.93,0,0,1-2.83,2.2H370a2.92,2.92,0,0,1-2.33-1.17,3,3,0,0,1-.5-2.57l28.2-106.34a2.94,2.94,0,0,1,2.83-2.2h22.43a3,3,0,0,1,2.84,2.2l28.2,106.34a3,3,0,0,1-.51,2.57,2.92,2.92,0,0,1-2.33,1.17ZM404.36,86.49l9.94-.31-5-26.09Z"/><path d="M461.25,124.81a3,3,0,0,1-2.93-3V42.24H441.45a3,3,0,0,1-2.94-3V15.5a3,3,0,0,1,2.94-3H504.8a3,3,0,0,1,2.93,3V39.27a3,3,0,0,1-2.93,3H487.93v79.6a3,3,0,0,1-2.94,3Z"/><path d="M513.19,124.81a3,3,0,0,1-2.94-3V98.07a3,3,0,0,1,2.94-3h10V42.24h-10a3,3,0,0,1-2.94-3V15.5a3,3,0,0,1,2.94-3h49.58a3,3,0,0,1,2.93,3V39.27a3,3,0,0,1-2.93,3h-10V95.1h10a3,3,0,0,1,2.93,3v23.77a3,3,0,0,1-2.93,3Z"/><path d="M604.48,127.2c-17.65,0-29-8.09-33.64-24-2.12-7.63-3.14-18.83-3.14-34.3s.94-26.4,2.86-33.45c4.76-16.86,16.16-25.44,33.9-25.54,17.47,0,28.74,7.94,33.51,23.6,2.21,7.16,3.28,18.3,3.28,34.06v1.33c0,15.36-.89,26.13-2.73,32.91-4.09,15.41-14,23.92-29.33,25.27C607.55,127.15,606,127.2,604.48,127.2Zm0-90.41a6,6,0,0,0-2.58.53,4,4,0,0,0-1.67,1.54,26.49,26.49,0,0,0-1.83,3.22,16.12,16.12,0,0,0-1.13,4.07c-.34,2-.6,3.7-.77,5.09s-.29,3.31-.37,5.78-.15,4.53-.2,5.9-.06,3.21-.06,5.82c0,13,.82,21.78,2.43,26,1.92,4.87,4.48,5.49,6.24,5.53,4.42,0,7.14-5.21,8-15.47.25-3.42.38-8.84.38-16.07,0-13.13-.78-22-2.32-26.35C608.72,37.38,606.2,36.79,604.48,36.79Z"/><path d="M699.3,125.07a3,3,0,0,1-1.44-.38,3,3,0,0,1-1.75-2.59L674.43,74.79V122a3,3,0,0,1-2.93,3H648.68a3,3,0,0,1-2.94-3V15.5a3,3,0,0,1,2.94-3H671.5a2.93,2.93,0,0,1,2.65,1.71c3.72,8,9.29,19.77,17,36.09,1.82,3.83,3.45,7.3,4.92,10.4V15.5a3,3,0,0,1,2.93-3h22.82a3,3,0,0,1,2.94,3V122a3,3,0,0,1-2.94,3H700.31a2.82,2.82,0,0,1-.87.13Z"/><path d="M764.49,127.2c-14.91,0-25-4-29.88-11.73-3.3-5.09-5-13.54-5.19-25.8-.09-1.79-.13-4.06-.13-6.73a3,3,0,0,1,2.93-3H753.6a3,3,0,0,1,2.94,3c0,10.65.86,14.3,1.4,15.54.49.91,2,3.29,7.78,3.39,4.25,0,6.36-1.82,7-6.11a34.28,34.28,0,0,0,.25-6.9c-.38-.52-2.24-2.52-10.62-6.86-11.28-5.75-18.09-9.4-20.83-11.15-7.77-5.14-11.63-9.95-11.86-14.72-.54-14.43.16-24.17,2.14-29.81,2.9-8.1,9.28-13.21,19-15.19a68.51,68.51,0,0,1,14-1.25c16.37,0,27.11,5.17,31.9,15.37,2.49,5.53,3.7,14.09,3.7,26.23a3,3,0,0,1-2.94,3H776a3,3,0,0,1-2.93-3c0-8.47-1-11-1.41-11.73-1.15-1.86-3.8-2.82-7.86-2.82-5,0-7.29,1.79-7.69,6a30,30,0,0,0,.49,6.19s.83,2.08,9.65,6.32c13.85,6.48,16.65,8,17.56,8.5,10.33,6,15.53,12.28,15.85,19.27.45,13.56-.25,22.69-2.14,28C794.74,119,788.49,124,779,125.94A73,73,0,0,1,764.49,127.2Z"/><path d="M39.56,126.45c-15,0-25.05-3.94-30-11.72-3.31-5.1-5-13.54-5.21-25.8-.09-1.81-.13-4-.13-6.73a3,3,0,0,1,3-3H28.63a3,3,0,0,1,2.95,3c0,10.65.87,14.3,1.41,15.53.49.92,2,3.3,7.81,3.4,4.27,0,6.39-1.83,7-6.11a33,33,0,0,0,.25-6.91c-.37-.52-2.24-2.52-10.66-6.85-11.32-5.75-18.16-9.4-20.91-11.16C8.73,65,4.84,60.16,4.62,55.39,4.07,41,4.77,31.21,6.76,25.58c2.92-8.1,9.32-13.21,19-15.19a69.08,69.08,0,0,1,14-1.26c16.44,0,27.21,5.18,32,15.37,2.5,5.53,3.71,14.1,3.71,26.24a3,3,0,0,1-2.95,3H51.15a3,3,0,0,1-2.94-3c0-8.48-1-11-1.42-11.74-1.15-1.86-3.81-2.82-7.88-2.82-6.29,0-7.45,3-7.73,6a30,30,0,0,0,.49,6.2c0,.05.84,2.08,9.69,6.32,13.9,6.47,16.72,8,17.63,8.5,10.38,6,15.6,12.28,15.91,19.27.46,13.55-.24,22.69-2.15,28-2.82,7.81-9.09,12.78-18.63,14.77A73.8,73.8,0,0,1,39.56,126.45Z"/><path d="M80.52,124.06a3,3,0,0,1-3-3V97.33a3,3,0,0,1,3-3H90.61V41.49H80.52a3,3,0,0,1-3-3V14.76a3,3,0,0,1,3-3H130.3a3,3,0,0,1,2.94,3V38.52a3,3,0,0,1-2.94,3H120.21V94.36H130.3a3,3,0,0,1,2.94,3v23.76a3,3,0,0,1-2.94,3Z"/><path d="M195,124.2a3,3,0,0,1-2.94-3V60.1L181.56,75a3,3,0,0,1-2.41,1.25h0A2.94,2.94,0,0,1,176.74,75L166.3,60v61.22a3,3,0,0,1-3,3H139.51a3,3,0,0,1-2.95-3V14.76a3,3,0,0,1,2.95-3h23.84a2.93,2.93,0,0,1,2.71,1.81l13.09,17.92L192.24,13.6A2.94,2.94,0,0,1,195,11.79h23.84a3,3,0,0,1,3,3V121.23a3,3,0,0,1-3,3Z"/><path d="M263,126.19c-17.1,0-28.31-7-33.32-20.94-2.21-6.24-3.34-14.08-3.34-23.32V14.76a3,3,0,0,1,2.95-3H252.1a3,3,0,0,1,3,3c0,23.39,0,43,.13,58.26.11,16,1.62,21,2.51,22.58.62,1,1.88,2.48,5.34,2.48,2.92-.06,4.62-1.4,5.64-4.48.7-2.29,1.58-7.78,1.69-20.59.08-10.4.13-30,.13-58.25a3,3,0,0,1,2.95-3h22.78a3,3,0,0,1,2.95,3V81.93c0,18.08-3.83,30.15-11.71,36.91C281.65,123.72,273.44,126.19,263,126.19Z"/><path d="M307.41,124.06a3,3,0,0,1-3-3V14.76a3,3,0,0,1,3-3h23.7a3,3,0,0,1,2.95,3v79.6H366a3,3,0,0,1,2.95,3v23.76a3,3,0,0,1-2.95,3Z"/><path d="M426.72,124.06a2.94,2.94,0,0,1-2.84-2.19l-3.37-12.54H398.29l-3.36,12.54a3,3,0,0,1-2.84,2.19H369.83a3,3,0,0,1-2.34-1.16,3,3,0,0,1-.51-2.58L395.3,14a2.94,2.94,0,0,1,2.84-2.2h22.52a3,3,0,0,1,2.85,2.2l28.31,106.33a3,3,0,0,1-.51,2.58,2.93,2.93,0,0,1-2.34,1.16ZM404.36,85.75l10-.31-5-26.1Z"/><path d="M461.49,124.06a3,3,0,0,1-2.95-3V41.49H441.6a3,3,0,0,1-3-3V14.76a3,3,0,0,1,3-3h63.61a3,3,0,0,1,2.94,3V38.52a3,3,0,0,1-2.94,3H488.27v79.6a3,3,0,0,1-2.95,3Z"/><path d="M513.63,124.06a3,3,0,0,1-2.95-3V97.33a3,3,0,0,1,2.95-3h10.09V41.49H513.63a3,3,0,0,1-2.95-3V14.76a3,3,0,0,1,2.95-3h49.78a3,3,0,0,1,3,3V38.52a3,3,0,0,1-3,3H553.32V94.36h10.09a3,3,0,0,1,3,3v23.76a3,3,0,0,1-3,3Z"/><path d="M605.29,126.45c-17.72,0-29.08-8.08-33.78-24-2.12-7.62-3.15-18.83-3.15-34.29s.94-26.4,2.88-33.45c4.77-16.86,16.22-25.45,34-25.54,17.54,0,28.85,7.94,33.65,23.6,2.21,7.16,3.29,18.3,3.29,34.06v1.33c0,15.36-.9,26.12-2.74,32.91-4.11,15.41-14,23.91-29.45,25.27C608.37,126.41,606.8,126.45,605.29,126.45Zm0-90.4a6,6,0,0,0-2.59.52A4.2,4.2,0,0,0,601,38.11a28.12,28.12,0,0,0-1.84,3.23,16.15,16.15,0,0,0-1.13,4.06c-.34,2-.6,3.7-.77,5.09s-.29,3.32-.37,5.79-.16,4.53-.2,5.9-.07,3.21-.07,5.81c0,13,.82,21.78,2.44,26,1.93,4.87,4.5,5.49,6.27,5.53,4.44,0,7.17-5.21,8.06-15.48.26-3.41.38-8.83.38-16.07,0-13.13-.78-22-2.32-26.34C609.54,36.64,607,36.05,605.29,36.05Z"/><path d="M700.49,124.33a3,3,0,0,1-1.44-.38,3,3,0,0,1-1.76-2.59L675.52,74.05v47.18a3,3,0,0,1-2.94,3H649.66a3,3,0,0,1-2.94-3V14.76a3,3,0,0,1,2.94-3h22.92a2.94,2.94,0,0,1,2.66,1.7c3.73,8,9.33,19.77,17.11,36.09q2.73,5.76,4.93,10.4V14.76a3,3,0,0,1,3-3h22.91a3,3,0,0,1,3,3V121.23a3,3,0,0,1-3,3H701.5a3.16,3.16,0,0,1-.87.13Z"/><path d="M765.94,126.45c-15,0-25.06-3.94-30-11.72-3.31-5.1-5-13.55-5.21-25.8-.09-1.79-.13-4.06-.13-6.73a3,3,0,0,1,2.94-3H755a3,3,0,0,1,3,3c0,10.65.86,14.29,1.4,15.53.5.92,2,3.3,7.81,3.4,4.27,0,6.4-1.83,7.05-6.11a33,33,0,0,0,.25-6.91c-.38-.52-2.25-2.52-10.66-6.85-11.32-5.75-18.16-9.4-20.91-11.16C735.1,65,731.22,60.16,731,55.39c-.55-14.43.15-24.18,2.14-29.81,2.91-8.1,9.32-13.21,19.05-15.19a69,69,0,0,1,14-1.26c16.44,0,27.22,5.18,32,15.37,2.5,5.53,3.71,14.1,3.71,26.24a3,3,0,0,1-3,3H777.53a3,3,0,0,1-2.95-3c0-8.48-1-11-1.41-11.74-1.16-1.86-3.82-2.82-7.89-2.82-5,0-7.32,1.8-7.72,6a30,30,0,0,0,.49,6.19c0,.05.84,2.08,9.68,6.32,13.91,6.47,16.73,8,17.64,8.5,10.37,6,15.59,12.28,15.91,19.27.46,13.55-.25,22.69-2.15,28-2.82,7.81-9.09,12.78-18.64,14.77A73.62,73.62,0,0,1,765.94,126.45Z"/><path d="M38.1,125.71c-15,0-25.16-3.94-30.12-11.72-3.32-5.1-5-13.55-5.23-25.8-.09-1.81-.13-4-.13-6.74a3,3,0,0,1,3-3H27.13a3,3,0,0,1,3,3c0,10.66.87,14.3,1.41,15.54.5.91,2,3.3,7.84,3.4,4.29,0,6.42-1.83,7.08-6.11a33,33,0,0,0,.25-6.91c-.38-.52-2.26-2.52-10.71-6.86C24.6,74.77,17.73,71.12,15,69.36,7.14,64.22,3.25,59.42,3,54.65c-.55-14.44.15-24.18,2.15-29.81C8.1,16.73,14.53,11.63,24.3,9.65A68.82,68.82,0,0,1,38.37,8.39c16.5,0,27.32,5.17,32.16,15.37C73,29.29,74.25,37.86,74.25,50a3,3,0,0,1-3,3H49.74a3,3,0,0,1-3-3c0-8.47-1-11-1.42-11.73-1.16-1.86-3.83-2.82-7.92-2.82-6.31,0-7.47,3-7.75,6a29.37,29.37,0,0,0,.49,6.2S31,49.71,39.9,54c14,6.47,16.8,7.95,17.71,8.5,10.41,6,15.66,12.27,16,19.27.45,13.55-.25,22.69-2.16,28-2.83,7.82-9.13,12.79-18.71,14.77A73.55,73.55,0,0,1,38.1,125.71Z"/><path d="M79.22,123.32a3,3,0,0,1-3-3V96.59a3,3,0,0,1,3-3H89.35V40.75H79.22a3,3,0,0,1-3-3V14a3,3,0,0,1,3-3h50a3,3,0,0,1,3,3V37.78a3,3,0,0,1-3,3H119.07V93.62H129.2a3,3,0,0,1,3,3v23.76a3,3,0,0,1-3,3Z"/><path d="M194.12,123.45a3,3,0,0,1-3-3V59.35L180.67,74.27a3,3,0,0,1-2.42,1.26h0a2.94,2.94,0,0,1-2.42-1.26l-10.49-15v61.21a3,3,0,0,1-3,3H138.45a3,3,0,0,1-3-3V14a3,3,0,0,1,3-3h23.94a3,3,0,0,1,2.72,1.8l13.14,17.93,13.14-17.93a3,3,0,0,1,2.73-1.8h23.93a3,3,0,0,1,3,3V120.48a3,3,0,0,1-3,3Z"/><path d="M262.47,125.44c-17.17,0-28.42-7-33.46-20.93-2.22-6.24-3.35-14.08-3.35-23.32V14a3,3,0,0,1,3-3H251.5a3,3,0,0,1,3,3c0,23.39,0,43,.13,58.26.11,16,1.63,21,2.52,22.57.62,1,1.89,2.48,5.36,2.48,2.92-.06,4.63-1.4,5.66-4.47.7-2.29,1.59-7.79,1.69-20.59.09-10.4.14-30,.14-58.25a3,3,0,0,1,3-3h22.87a3,3,0,0,1,3,3V81.19c0,18.07-3.84,30.14-11.75,36.91C281.16,123,272.92,125.44,262.47,125.44Z"/><path d="M307,123.32a3,3,0,0,1-3-3V14a3,3,0,0,1,3-3h23.79a3,3,0,0,1,3,3v79.6h32.08a3,3,0,0,1,3,3v23.76a3,3,0,0,1-3,3Z"/><path d="M426.82,123.32a3,3,0,0,1-2.86-2.2l-3.38-12.54H398.27l-3.37,12.54a3,3,0,0,1-2.86,2.2H369.7a3,3,0,0,1-2.86-3.74L395.27,13.25a2.94,2.94,0,0,1,2.85-2.2h22.61a3,3,0,0,1,2.86,2.2L452,119.58a3,3,0,0,1-2.86,3.74ZM404.37,85l10-.31-5-26.1Z"/><path d="M461.72,123.32a3,3,0,0,1-3-3V40.75h-17a3,3,0,0,1-3-3V14a3,3,0,0,1,3-3h63.86a3,3,0,0,1,2.95,3V37.78a3,3,0,0,1-2.95,3h-17v79.6a3,3,0,0,1-3,3Z"/><path d="M514.08,123.32a3,3,0,0,1-3-3V96.59a3,3,0,0,1,3-3h10.13V40.75H514.08a3,3,0,0,1-3-3V14a3,3,0,0,1,3-3h50a3,3,0,0,1,3,3V37.78a3,3,0,0,1-3,3H553.92V93.62h10.13a3,3,0,0,1,3,3v23.76a3,3,0,0,1-3,3Z"/><path d="M606.1,125.71c-17.79,0-29.2-8.09-33.91-24-2.13-7.63-3.16-18.83-3.16-34.3S570,41,571.91,33.94c4.8-16.87,16.29-25.45,34.17-25.55,17.61,0,29,7.94,33.78,23.6,2.23,7.16,3.31,18.31,3.31,34.07v1.32c0,15.37-.9,26.13-2.75,32.91-4.13,15.41-14.08,23.92-29.57,25.28C609.19,125.66,607.62,125.71,606.1,125.71Zm0-90.4a6.1,6.1,0,0,0-2.6.52,4.07,4.07,0,0,0-1.68,1.54A26.72,26.72,0,0,0,600,40.59a16.2,16.2,0,0,0-1.14,4.07c-.34,2-.6,3.7-.77,5.09s-.29,3.32-.38,5.79-.15,4.53-.19,5.9-.07,3.2-.07,5.81c0,13,.83,21.78,2.45,26,1.94,4.88,4.52,5.5,6.29,5.53,4.46,0,7.2-5.2,8.1-15.47.25-3.42.38-8.84.38-16.07,0-13.13-.79-22-2.34-26.34C610.37,35.9,607.84,35.31,606.1,35.31Z"/><path d="M701.69,123.59a2.86,2.86,0,0,1-1.45-.39,3,3,0,0,1-1.77-2.59l-21.85-47.3v47.17a3,3,0,0,1-3,3h-23a3,3,0,0,1-3-3V14a3,3,0,0,1,3-3h23a2.94,2.94,0,0,1,2.67,1.7c3.75,8,9.37,19.77,17.18,36.09l5,10.4V14a3,3,0,0,1,2.95-3h23a3,3,0,0,1,3,3V120.48a3,3,0,0,1-3,3H702.7a2.84,2.84,0,0,1-.88.14Z"/><path d="M767.4,125.71c-15,0-25.16-3.94-30.13-11.72-3.32-5.1-5-13.55-5.22-25.8-.09-1.8-.14-4.06-.14-6.74a3,3,0,0,1,3-3h21.55a3,3,0,0,1,3,3c0,10.65.87,14.3,1.41,15.54.5.91,2,3.3,7.85,3.4,4.28,0,6.41-1.83,7.07-6.11a33,33,0,0,0,.25-6.91c-.38-.52-2.25-2.52-10.7-6.86-11.37-5.74-18.24-9.39-21-11.15-7.82-5.14-11.72-9.94-12-14.71-.55-14.44.16-24.18,2.15-29.81,2.93-8.11,9.36-13.21,19.13-15.19a68.82,68.82,0,0,1,14.07-1.26c16.51,0,27.33,5.17,32.16,15.37,2.51,5.53,3.72,14.1,3.72,26.23a3,3,0,0,1-3,3H779a3,3,0,0,1-3-3c0-8.47-1-11-1.42-11.73-1.16-1.86-3.83-2.82-7.91-2.82-5,0-7.36,1.79-7.76,6a30.05,30.05,0,0,0,.49,6.2s.85,2.08,9.73,6.32c14,6.47,16.79,7.95,17.7,8.5,10.42,6,15.66,12.27,16,19.27.46,13.55-.25,22.69-2.16,28-2.83,7.82-9.13,12.79-18.71,14.77A73.44,73.44,0,0,1,767.4,125.71Z"/><path d="M36.64,125c-15.09,0-25.26-4-30.25-11.73-3.33-5.09-5-13.54-5.24-25.79-.09-1.82-.14-4-.14-6.74a3,3,0,0,1,3-3H25.62a3,3,0,0,1,3,3c0,10.65.87,14.3,1.42,15.54.5.91,2,3.29,7.87,3.39,4.31,0,6.45-1.82,7.11-6.11a32.83,32.83,0,0,0,.25-6.9c-.39-.53-2.27-2.52-10.75-6.86C23.08,74,16.18,70.37,13.41,68.62c-7.86-5.14-11.77-10-12-14.72-.55-14.43.16-24.17,2.16-29.81C6.51,16,13,10.88,22.77,8.9A70.22,70.22,0,0,1,36.9,7.65c16.57,0,27.44,5.17,32.29,15.37,2.52,5.53,3.74,14.09,3.74,26.23a3,3,0,0,1-3,3H48.32a3,3,0,0,1-3-3c0-8.47-1-11-1.43-11.73-1.16-1.86-3.84-2.82-8-2.82-6.33,0-7.5,3-7.78,6a29.28,29.28,0,0,0,.49,6.19s.85,2.08,9.77,6.32c14,6.47,16.85,7.95,17.77,8.5,10.46,6,15.72,12.28,16,19.27.46,13.56-.25,22.69-2.16,28-2.85,7.82-9.17,12.79-18.79,14.77A74.85,74.85,0,0,1,36.64,125Z"/><path d="M77.92,122.58a3,3,0,0,1-3-3V95.84a3,3,0,0,1,3-3H88.09V40H77.92a3,3,0,0,1-3-3V13.27a3,3,0,0,1,3-3H128.1a3,3,0,0,1,3,3V37a3,3,0,0,1-3,3H117.93V92.87H128.1a3,3,0,0,1,3,3v23.77a3,3,0,0,1-3,3Z"/><path d="M193.28,122.71a3,3,0,0,1-3-3V58.61L179.78,73.53a3,3,0,0,1-2.43,1.26h0a3,3,0,0,1-2.42-1.27l-10.53-15v61.22a3,3,0,0,1-3,3h-24a3,3,0,0,1-3-3V13.27a3,3,0,0,1,3-3h24a3,3,0,0,1,2.73,1.81L177.35,30l13.19-17.92a3,3,0,0,1,2.74-1.81h24a3,3,0,0,1,3,3V119.74a3,3,0,0,1-3,3Z"/><path d="M261.91,124.7c-17.24,0-28.54-7-33.59-20.94C226.08,97.53,225,89.69,225,80.44V13.27a3,3,0,0,1,3-3h23a3,3,0,0,1,3,3c0,23.4,0,43,.13,58.26.11,16,1.64,21,2.53,22.58.62,1,1.9,2.48,5.39,2.48,2.93-.06,4.65-1.4,5.67-4.47.71-2.3,1.6-7.79,1.71-20.59.09-10.41.13-30,.13-58.26a3,3,0,0,1,3-3h23a3,3,0,0,1,3,3V80.44c0,18.08-3.86,30.15-11.8,36.91C280.67,122.24,272.4,124.7,261.91,124.7Z"/><path d="M306.64,122.58a3,3,0,0,1-3-3V13.27a3,3,0,0,1,3-3h23.89a3,3,0,0,1,3,3v79.6h32.2a3,3,0,0,1,3,3v23.77a3,3,0,0,1-3,3Z"/><path d="M426.91,122.58a3,3,0,0,1-2.87-2.2l-3.39-12.54h-22.4l-3.38,12.54a3,3,0,0,1-2.87,2.2H369.56a3,3,0,0,1-2.87-3.74L395.23,12.5a3,3,0,0,1,2.87-2.2h22.7a3,3,0,0,1,2.87,2.2l28.54,106.34a3,3,0,0,1-2.87,3.74ZM404.37,84.26,414.44,84l-5-26.09Z"/><path d="M462,122.58a3,3,0,0,1-3-3V40H441.91a3,3,0,0,1-3-3V13.27a3,3,0,0,1,3-3H506a3,3,0,0,1,3,3V37a3,3,0,0,1-3,3H489v79.6a3,3,0,0,1-3,3Z"/><path d="M514.52,122.58a3,3,0,0,1-3-3V95.84a3,3,0,0,1,3-3h10.17V40H514.52a3,3,0,0,1-3-3V13.27a3,3,0,0,1,3-3H564.7a3,3,0,0,1,3,3V37a3,3,0,0,1-3,3H554.53V92.87H564.7a3,3,0,0,1,3,3v23.77a3,3,0,0,1-3,3Z"/><path d="M606.91,125c-17.85,0-29.31-8.09-34-24-2.14-7.63-3.18-18.83-3.18-34.3s.95-26.4,2.9-33.45C577.4,16.33,588.94,7.75,606.9,7.65c17.67,0,29.08,7.94,33.91,23.6,2.24,7.16,3.32,18.3,3.32,34.06v1.33c0,15.36-.9,26.13-2.76,32.91-4.14,15.41-14.13,23.92-29.69,25.27C610,124.92,608.44,125,606.91,125Zm0-90.41a6.1,6.1,0,0,0-2.6.53,4.11,4.11,0,0,0-1.7,1.54,28.14,28.14,0,0,0-1.85,3.22,16.07,16.07,0,0,0-1.14,4.07c-.35,2-.61,3.7-.78,5.09s-.29,3.31-.37,5.78-.16,4.53-.2,5.9-.07,3.21-.07,5.82c0,13,.83,21.78,2.46,26,2,4.87,4.54,5.49,6.32,5.53,4.47,0,7.22-5.21,8.12-15.48.26-3.41.39-8.83.39-16.06,0-13.13-.79-22-2.35-26.35C611.21,35.15,608.66,34.56,606.91,34.56Z"/><path d="M702.89,122.84a3.36,3.36,0,0,1-3.24-3L677.72,72.56v47.18a3,3,0,0,1-3,3h-23.1a3,3,0,0,1-3-3V13.27a3,3,0,0,1,3-3h23.1A3,3,0,0,1,677.43,12c3.76,8,9.41,19.77,17.25,36.08l5,10.41V13.27a3,3,0,0,1,3-3h23.1a3,3,0,0,1,3,3V119.74a3,3,0,0,1-3,3H703.9a2.84,2.84,0,0,1-.88.13Z"/><path d="M768.86,125c-15.08,0-25.26-4-30.24-11.73-3.34-5.09-5.06-13.54-5.25-25.8-.09-1.79-.14-4.06-.14-6.73a3,3,0,0,1,3-3h21.64a3,3,0,0,1,3,3c0,10.65.88,14.3,1.42,15.54.5.91,2,3.29,7.87,3.39,4.31,0,6.45-1.82,7.11-6.11a32.89,32.89,0,0,0,.25-6.9c-.38-.53-2.26-2.52-10.75-6.86C755.3,74,748.4,70.37,745.63,68.62c-7.86-5.14-11.77-10-12-14.72-.56-14.43.15-24.17,2.16-29.81C738.73,16,745.19,10.88,755,8.9a70.15,70.15,0,0,1,14.13-1.25c16.57,0,27.43,5.17,32.28,15.37,2.53,5.53,3.74,14.09,3.74,26.23a3,3,0,0,1-3,3H780.54a3,3,0,0,1-3-3c0-8.47-1-11-1.42-11.73-1.17-1.86-3.85-2.82-7.95-2.82-5.05,0-7.39,1.79-7.79,6a30,30,0,0,0,.49,6.19s.85,2.08,9.77,6.32c14,6.48,16.86,7.95,17.77,8.5,10.46,6,15.73,12.28,16,19.27.46,13.56-.24,22.69-2.16,28-2.85,7.82-9.17,12.79-18.79,14.77A74.78,74.78,0,0,1,768.86,125Z"/></g><text class="cls-11" transform="translate(0 119.47)">S<tspan class="cls-3" x="73.94" y="0">i</tspan><tspan class="cls-4" x="133.41" y="0">m</tspan><tspan class="cls-5" x="223.94" y="0">u</tspan><tspan class="cls-6" x="302.66" y="0">l</tspan><tspan class="cls-7" x="365.58" y="0">a</tspan><tspan class="cls-8" x="437.93" y="0">t</tspan><tspan x="510.54" y="0">i</tspan><tspan class="cls-9" x="568.68" y="0">on</tspan><tspan x="732.22" y="0">s</tspan></text></g></g></g></svg>