<svg xmlns="http://www.w3.org/2000/svg" viewBox="0 0 657.73 229.18"><defs><style>.cls-1{isolation:isolate;}.cls-2,.cls-8{font-size:225.79px;font-family:Basillion;}.cls-3{letter-spacing:-0.02em;}.cls-4{letter-spacing:-0.11em;}.cls-5{letter-spacing:0em;}.cls-6{letter-spacing:0.01em;}.cls-7{opacity:0.27;mix-blend-mode:multiply;}.cls-8{fill:#ff0;}</style></defs><g class="cls-1"><g id="Layer_2" data-name="Layer 2"><g id="Layer_2-2" data-name="Layer 2"><text class="cls-2" transform="translate(0 203.21)"><tspan class="cls-3">M</tspan><tspan class="cls-4" x="144.96" y="0">a</tspan><tspan class="cls-5" x="268.02" y="0">t</tspan><tspan class="cls-6" x="391.52" y="0">h</tspan><tspan x="531.96" y="0">s</tspan></text><g class="cls-7"><path d="M119.32,221.51a2.87,2.87,0,0,1-2.74-3V108l-20,30.74A2.69,2.69,0,0,1,94.31,140h0a2.68,2.68,0,0,1-2.24-1.26l-20-30.91V218.53a2.87,2.87,0,0,1-2.74,3H31.59a2.87,2.87,0,0,1-2.75-3V37.45a2.87,2.87,0,0,1,2.75-3H69.31a2.76,2.76,0,0,1,2.59,2l22.41,33,22.42-33a2.76,2.76,0,0,1,2.59-2H157a2.86,2.86,0,0,1,2.74,3V218.53a2.86,2.86,0,0,1-2.74,3Z"/><path d="M255.41,221.28a2.79,2.79,0,0,1-2.65-2.2l-5.7-22.86H209l-5.71,22.86a2.78,2.78,0,0,1-2.64,2.2H165.38a2.69,2.69,0,0,1-2.18-1.16,3.18,3.18,0,0,1-.47-2.58l44.8-180.86a2.8,2.8,0,0,1,2.65-2.2h35.64a2.79,2.79,0,0,1,2.65,2.2l44.8,180.86a3.14,3.14,0,0,1-.47,2.58,2.67,2.67,0,0,1-2.17,1.16Zm-37.72-60.92,20.45-.68-10.23-57.46Z"/><path d="M310.42,221.28a2.86,2.86,0,0,1-2.74-3V80.84H279a2.87,2.87,0,0,1-2.75-3V37.45a2.87,2.87,0,0,1,2.75-3H379.61a2.86,2.86,0,0,1,2.74,3V77.87a2.86,2.86,0,0,1-2.74,3H350.89V218.31a2.87,2.87,0,0,1-2.75,3Z"/><path d="M470.47,221.28a2.86,2.86,0,0,1-2.74-3V147.22H433.2v71.09a2.86,2.86,0,0,1-2.74,3H393a2.87,2.87,0,0,1-2.75-3V37.45a2.87,2.87,0,0,1,2.75-3h37.51a2.86,2.86,0,0,1,2.74,3v67.7h34.53V37.45a2.86,2.86,0,0,1,2.74-3H508a2.87,2.87,0,0,1,2.75,3V218.31a2.87,2.87,0,0,1-2.75,3Z"/><path d="M573.84,225.34c-23,0-38.42-6.38-45.87-19-5-8.35-7.64-22.36-7.93-42.82-.14-3-.21-6.84-.21-11.39a2.86,2.86,0,0,1,2.74-3h34a2.86,2.86,0,0,1,2.74,3c0,17.76,1.31,24.68,2.42,27.35,2.31,4.54,6.91,6.81,14.06,6.94,7.73,0,11.9-3.87,13.08-12.16a64.53,64.53,0,0,0,.39-12.7c-.08-.3-1.32-3.7-17.89-12.88-17.87-9.75-28.65-15.93-32.94-18.88-11.76-8.33-17.62-16-17.94-23.36-.86-24.27.21-40.58,3.28-49.91,4.36-13,14-21.28,28.71-24.5A100.49,100.49,0,0,1,574.25,30c25.21,0,41.68,8.4,49,24.95,3.83,9.1,5.69,23.39,5.69,43.73a2.87,2.87,0,0,1-2.75,3h-34a2.87,2.87,0,0,1-2.75-3c0-13.68-1.37-19-2.51-21-2.22-3.83-7-5.8-14.13-5.8-8.93,0-13.42,3.86-14.14,12.14a57.78,57.78,0,0,0,.8,11c.11.72,1.37,4.53,16.4,12.27,16.46,8.24,25.55,12.94,27.74,14.37,15.61,9.64,23.79,20.11,24.25,31.08.71,22.76-.36,38.05-3.29,46.76-4.22,12.58-13.66,20.58-28.07,23.8A106.56,106.56,0,0,1,573.84,225.34Z"/><path d="M118.48,220.76a2.87,2.87,0,0,1-2.75-3V107.26L95.62,138a2.68,2.68,0,0,1-2.25,1.26h0A2.68,2.68,0,0,1,91.12,138L71,107.07V217.79a2.87,2.87,0,0,1-2.76,3H30.39a2.87,2.87,0,0,1-2.75-3V36.7a2.87,2.87,0,0,1,2.75-3H68.26a2.8,2.8,0,0,1,2.61,2l22.5,33,22.51-33a2.77,2.77,0,0,1,2.6-2h37.87a2.87,2.87,0,0,1,2.76,3V217.79a2.87,2.87,0,0,1-2.76,3Z"/><path d="M255.11,220.54a2.81,2.81,0,0,1-2.66-2.2l-5.72-22.87H208.47l-5.73,22.87a2.79,2.79,0,0,1-2.66,2.2H164.72a2.68,2.68,0,0,1-2.18-1.17,3.15,3.15,0,0,1-.48-2.57l45-180.87a2.8,2.8,0,0,1,2.66-2.2h35.78a2.82,2.82,0,0,1,2.66,2.2l45,180.87a3.15,3.15,0,0,1-.47,2.57,2.68,2.68,0,0,1-2.19,1.17Zm-37.87-60.93,20.54-.68-10.27-57.45Z"/><path d="M310.35,220.54a2.87,2.87,0,0,1-2.75-3V80.09H278.76a2.87,2.87,0,0,1-2.76-3V36.7a2.87,2.87,0,0,1,2.76-3H379.82a2.87,2.87,0,0,1,2.75,3V77.12a2.87,2.87,0,0,1-2.75,3H351V217.57a2.87,2.87,0,0,1-2.75,3Z"/><path d="M471,220.54a2.87,2.87,0,0,1-2.75-3V146.48H433.62v71.09a2.87,2.87,0,0,1-2.75,3H393.2a2.87,2.87,0,0,1-2.75-3V36.7a2.87,2.87,0,0,1,2.75-3h37.67a2.87,2.87,0,0,1,2.75,3v67.71h34.67V36.7a2.87,2.87,0,0,1,2.75-3H508.7a2.87,2.87,0,0,1,2.76,3V217.57a2.87,2.87,0,0,1-2.76,3Z"/><path d="M574.82,224.6c-23.07,0-38.57-6.38-46.05-19-5.06-8.35-7.67-22.37-8-42.83-.14-3-.22-6.84-.22-11.38a2.87,2.87,0,0,1,2.76-3h34.1a2.87,2.87,0,0,1,2.76,3c0,17.76,1.31,24.67,2.43,27.34,2.31,4.54,6.93,6.81,14.11,6.94,7.76,0,12-3.86,13.13-12.16a63.61,63.61,0,0,0,.4-12.7c-.08-.29-1.33-3.69-18-12.87-17.94-9.75-28.76-15.93-33.07-18.88-11.81-8.33-17.69-16-18-23.37-.86-24.26.21-40.58,3.29-49.91,4.38-13,14.08-21.27,28.83-24.49a100.74,100.74,0,0,1,21.89-2.09c25.31,0,41.84,8.39,49.14,25,3.85,9.1,5.71,23.39,5.71,43.72a2.87,2.87,0,0,1-2.75,3H593.23a2.87,2.87,0,0,1-2.75-3c0-13.67-1.38-19-2.53-21-2.22-3.84-7-5.8-14.18-5.8-9,0-13.48,3.86-14.2,12.13a57.1,57.1,0,0,0,.81,11c.1.72,1.37,4.53,16.46,12.27,16.53,8.24,25.65,12.94,27.85,14.36C620.37,130.51,628.58,141,629,152c.72,22.76-.36,38-3.3,46.76-4.23,12.57-13.72,20.58-28.19,23.8A107.32,107.32,0,0,1,574.82,224.6Z"/><path d="M117.64,220a2.88,2.88,0,0,1-2.77-3V106.51L94.68,137.25a2.7,2.7,0,0,1-2.25,1.26h0a2.72,2.72,0,0,1-2.26-1.27L70,106.33V217.05a2.87,2.87,0,0,1-2.76,3h-38a2.87,2.87,0,0,1-2.76-3V36a2.87,2.87,0,0,1,2.76-3h38a2.79,2.79,0,0,1,2.61,2l22.6,33L115,35a2.8,2.8,0,0,1,2.62-2h38a2.87,2.87,0,0,1,2.76,3V217.05a2.87,2.87,0,0,1-2.76,3Z"/><path d="M254.82,219.79a2.8,2.8,0,0,1-2.67-2.19l-5.75-22.87H208l-5.75,22.87a2.8,2.8,0,0,1-2.66,2.19H164.06a2.7,2.7,0,0,1-2.19-1.16,3.18,3.18,0,0,1-.48-2.58L206.56,35.19a2.8,2.8,0,0,1,2.67-2.2h35.92a2.8,2.8,0,0,1,2.67,2.2L293,216.05a3.18,3.18,0,0,1-.48,2.58,2.7,2.7,0,0,1-2.19,1.16Zm-38-60.92,20.62-.68L227.1,100.74Z"/><path d="M310.28,219.79a2.88,2.88,0,0,1-2.77-3V79.35h-29a2.87,2.87,0,0,1-2.76-3V36a2.87,2.87,0,0,1,2.76-3H380a2.88,2.88,0,0,1,2.77,3V76.38a2.88,2.88,0,0,1-2.77,3h-29V216.82a2.87,2.87,0,0,1-2.76,3Z"/><path d="M471.61,219.79a2.87,2.87,0,0,1-2.76-3V145.73H434v71.09a2.87,2.87,0,0,1-2.76,3H393.46a2.87,2.87,0,0,1-2.76-3V36a2.87,2.87,0,0,1,2.76-3h37.82A2.87,2.87,0,0,1,434,36v67.7h34.81V36a2.87,2.87,0,0,1,2.76-3h37.81a2.88,2.88,0,0,1,2.77,3V216.82a2.88,2.88,0,0,1-2.77,3Z"/><path d="M575.81,223.86c-23.17,0-38.73-6.39-46.24-19-5.08-8.35-7.7-22.37-8-42.83-.14-3-.22-6.84-.22-11.39a2.88,2.88,0,0,1,2.77-3h34.24a2.88,2.88,0,0,1,2.77,3c0,17.76,1.31,24.68,2.44,27.35,2.32,4.54,6.95,6.81,14.17,6.94,7.79,0,12-3.86,13.18-12.16a63.68,63.68,0,0,0,.4-12.7c-.08-.3-1.33-3.7-18-12.88-18-9.75-28.87-15.92-33.2-18.87C528.23,120,522.32,112.37,522,105c-.87-24.26.22-40.58,3.31-49.91,4.39-13,14.13-21.28,28.94-24.49a101.43,101.43,0,0,1,22-2.1c25.41,0,42,8.4,49.34,25,3.86,9.1,5.73,23.39,5.73,43.72a2.87,2.87,0,0,1-2.76,3H594.29a2.87,2.87,0,0,1-2.76-3c0-13.68-1.38-19-2.54-21-2.23-3.84-7-5.8-14.23-5.8-9,0-13.54,3.85-14.26,12.13a56.22,56.22,0,0,0,.81,11c.1.73,1.38,4.53,16.53,12.28,16.59,8.23,25.75,12.93,28,14.36,15.74,9.64,24,20.12,24.45,31.09.72,22.75-.37,38-3.32,46.76-4.25,12.57-13.77,20.58-28.3,23.79A108.1,108.1,0,0,1,575.81,223.86Z"/><path d="M116.79,219.28a2.89,2.89,0,0,1-2.78-3V105.77L93.74,136.51a2.73,2.73,0,0,1-2.26,1.25h0a2.73,2.73,0,0,1-2.27-1.26L68.94,105.59V216.3a2.88,2.88,0,0,1-2.77,3H28a2.89,2.89,0,0,1-2.78-3V35.22a2.88,2.88,0,0,1,2.78-3H66.17a2.79,2.79,0,0,1,2.62,2l22.69,33,22.68-33a2.8,2.8,0,0,1,2.63-2H155a2.88,2.88,0,0,1,2.78,3V216.3a2.89,2.89,0,0,1-2.78,3Z"/><path d="M254.52,219.05a2.81,2.81,0,0,1-2.68-2.2L246.07,194H207.5l-5.77,22.86a2.82,2.82,0,0,1-2.68,2.2H163.4a2.71,2.71,0,0,1-2.2-1.16,3.15,3.15,0,0,1-.48-2.58L206.07,34.45a2.8,2.8,0,0,1,2.68-2.2h36.07a2.82,2.82,0,0,1,2.68,2.2l45.34,180.86a3.14,3.14,0,0,1-.47,2.58,2.73,2.73,0,0,1-2.21,1.16Zm-38.18-60.92,20.7-.69L226.69,100Z"/><path d="M310.2,219.05a2.88,2.88,0,0,1-2.77-3V78.61H278.35a2.88,2.88,0,0,1-2.77-3V35.22a2.88,2.88,0,0,1,2.77-3H380.23a2.88,2.88,0,0,1,2.77,3V75.63a2.88,2.88,0,0,1-2.77,3H351.15V216.08a2.88,2.88,0,0,1-2.77,3Z"/><path d="M472.18,219.05a2.88,2.88,0,0,1-2.77-3V145h-35v71.09a2.88,2.88,0,0,1-2.77,3h-38a2.88,2.88,0,0,1-2.77-3V35.22a2.88,2.88,0,0,1,2.77-3h38a2.88,2.88,0,0,1,2.77,3v67.7h35V35.22a2.88,2.88,0,0,1,2.77-3h38a2.88,2.88,0,0,1,2.77,3V216.08a2.88,2.88,0,0,1-2.77,3Z"/><path d="M576.8,223.11c-23.26,0-38.88-6.38-46.42-19-5.1-8.35-7.74-22.37-8-42.82-.14-3-.21-6.84-.21-11.39a2.88,2.88,0,0,1,2.77-3h34.38a2.88,2.88,0,0,1,2.78,3c0,17.76,1.32,24.68,2.45,27.35,2.33,4.54,7,6.81,14.22,6.94,7.83,0,12-3.87,13.25-12.16a63,63,0,0,0,.39-12.7c-.08-.3-1.33-3.7-18.11-12.88-18.08-9.75-29-15.93-33.34-18.88-11.9-8.33-17.83-16-18.16-23.36-.86-24.27.22-40.58,3.32-49.91,4.42-13,14.2-21.28,29.07-24.5a102.84,102.84,0,0,1,22.06-2.09c25.51,0,42.18,8.4,49.54,25,3.88,9.1,5.76,23.39,5.76,43.73a2.88,2.88,0,0,1-2.78,3H595.36a2.88,2.88,0,0,1-2.77-3c0-13.68-1.39-19-2.55-21-2.25-3.83-7.06-5.8-14.29-5.8-9,0-13.59,3.86-14.32,12.14a56.27,56.27,0,0,0,.81,11c.11.72,1.39,4.53,16.6,12.27,16.66,8.24,25.85,12.94,28.07,14.36,15.81,9.65,24.08,20.12,24.55,31.09.72,22.76-.37,38-3.33,46.76-4.27,12.58-13.83,20.58-28.41,23.8A109.17,109.17,0,0,1,576.8,223.11Z"/><path d="M115.94,218.53a2.88,2.88,0,0,1-2.79-3V105L92.8,135.76A2.73,2.73,0,0,1,90.52,137h0a2.73,2.73,0,0,1-2.28-1.26L67.9,104.84V215.56a2.88,2.88,0,0,1-2.79,3H26.78a2.88,2.88,0,0,1-2.79-3V34.47a2.88,2.88,0,0,1,2.79-3H65.11a2.82,2.82,0,0,1,2.64,2l22.77,33,22.78-33a2.81,2.81,0,0,1,2.64-2h38.33a2.88,2.88,0,0,1,2.78,3V215.56a2.88,2.88,0,0,1-2.78,3Z"/><path d="M254.22,218.31a2.82,2.82,0,0,1-2.69-2.2l-5.8-22.87H207l-5.8,22.87a2.81,2.81,0,0,1-2.69,2.2H162.74a2.73,2.73,0,0,1-2.22-1.17,3.17,3.17,0,0,1-.48-2.58L205.57,33.7a2.84,2.84,0,0,1,2.7-2.2h36.21a2.83,2.83,0,0,1,2.69,2.2L292.7,214.56a3.13,3.13,0,0,1-.48,2.58,2.73,2.73,0,0,1-2.21,1.17Zm-38.33-60.93,20.79-.68-10.4-57.45Z"/><path d="M310.13,218.31a2.89,2.89,0,0,1-2.79-3V77.86H278.15a2.88,2.88,0,0,1-2.79-3V34.47a2.88,2.88,0,0,1,2.79-3H380.43a2.88,2.88,0,0,1,2.79,3V74.89a2.88,2.88,0,0,1-2.79,3H351.24V215.33a2.89,2.89,0,0,1-2.78,3Z"/><path d="M472.76,218.31a2.89,2.89,0,0,1-2.79-3V144.25H434.89v71.08a2.89,2.89,0,0,1-2.79,3H394a2.88,2.88,0,0,1-2.78-3V34.47a2.88,2.88,0,0,1,2.78-3H432.1a2.88,2.88,0,0,1,2.79,3v67.71H470V34.47a2.88,2.88,0,0,1,2.79-3h38.12a2.88,2.88,0,0,1,2.78,3V215.33a2.88,2.88,0,0,1-2.78,3Z"/><path d="M577.8,222.37c-23.36,0-39-6.39-46.61-19-5.13-8.35-7.77-22.37-8.06-42.83-.14-3-.22-6.84-.22-11.38a2.88,2.88,0,0,1,2.79-3h34.52a2.88,2.88,0,0,1,2.78,3c0,17.76,1.33,24.67,2.46,27.34,2.35,4.54,7,6.81,14.29,6.94,7.86,0,12.09-3.86,13.29-12.16a63.61,63.61,0,0,0,.4-12.7c-.08-.29-1.34-3.69-18.18-12.87-18.16-9.75-29.11-15.93-33.47-18.88-12-8.33-17.91-16-18.24-23.37-.87-24.26.22-40.58,3.34-49.91,4.43-13,14.24-21.27,29.18-24.49A103,103,0,0,1,578.22,27c25.61,0,42.35,8.39,49.74,25,3.89,9.1,5.78,23.39,5.78,43.72a2.89,2.89,0,0,1-2.79,3H596.43a2.89,2.89,0,0,1-2.79-3c0-13.67-1.39-19-2.55-21-2.26-3.84-7.09-5.8-14.35-5.8-9.08,0-13.65,3.86-14.38,12.13a56.39,56.39,0,0,0,.82,11c.1.72,1.39,4.53,16.66,12.27,16.73,8.24,26,12.94,28.19,14.36,15.87,9.65,24.18,20.12,24.64,31.09.73,22.76-.36,38-3.34,46.76-4.28,12.57-13.88,20.58-28.52,23.8A110.08,110.08,0,0,1,577.8,222.37Z"/><path d="M115.08,217.79a2.89,2.89,0,0,1-2.8-3V104.28L91.85,135a2.75,2.75,0,0,1-2.28,1.26h0A2.74,2.74,0,0,1,87.28,135L66.85,104.1V214.82a2.89,2.89,0,0,1-2.8,3H25.57a2.89,2.89,0,0,1-2.8-3V33.73a2.89,2.89,0,0,1,2.8-3H64.05a2.82,2.82,0,0,1,2.65,2l22.87,33,22.86-33a2.82,2.82,0,0,1,2.65-2h38.48a2.89,2.89,0,0,1,2.8,3V214.82a2.89,2.89,0,0,1-2.8,3Z"/><path d="M253.92,217.56a2.83,2.83,0,0,1-2.7-2.19L245.4,192.5H206.52l-5.82,22.87a2.83,2.83,0,0,1-2.7,2.19H162.07a2.75,2.75,0,0,1-2.22-1.16,3.1,3.1,0,0,1-.48-2.58L205.08,33a2.83,2.83,0,0,1,2.7-2.2h36.36a2.83,2.83,0,0,1,2.7,2.2l45.71,180.86a3.1,3.1,0,0,1-.48,2.58,2.75,2.75,0,0,1-2.22,1.16Zm-38.48-60.92,20.87-.68L225.87,98.5Z"/><path d="M310.05,217.56a2.89,2.89,0,0,1-2.8-3V77.12H278a2.89,2.89,0,0,1-2.8-3V33.73a2.89,2.89,0,0,1,2.8-3H380.64a2.89,2.89,0,0,1,2.8,3V74.15a2.89,2.89,0,0,1-2.8,3H351.33V214.59a2.89,2.89,0,0,1-2.8,3Z"/><path d="M473.34,217.56a2.89,2.89,0,0,1-2.8-3V143.5H435.31v71.09a2.89,2.89,0,0,1-2.8,3H394.24a2.88,2.88,0,0,1-2.79-3V33.73a2.88,2.88,0,0,1,2.79-3h38.27a2.89,2.89,0,0,1,2.8,3v67.7h35.23V33.73a2.89,2.89,0,0,1,2.8-3h38.27a2.89,2.89,0,0,1,2.8,3V214.59a2.89,2.89,0,0,1-2.8,3Z"/><path d="M578.8,221.63c-23.45,0-39.2-6.39-46.8-19-5.14-8.36-7.8-22.37-8.09-42.83-.15-3-.22-6.84-.22-11.39a2.89,2.89,0,0,1,2.8-3h34.66a2.89,2.89,0,0,1,2.8,3c0,17.76,1.33,24.68,2.47,27.35,2.35,4.54,7,6.81,14.34,6.94,7.88,0,12.14-3.86,13.34-12.16a62.2,62.2,0,0,0,.4-12.7c-.08-.3-1.34-3.7-18.25-12.88C558,135.23,547,129.05,542.64,126.11c-12-8.33-18-16-18.31-23.37-.87-24.26.23-40.58,3.35-49.91,4.45-13,14.31-21.28,29.3-24.5a104.48,104.48,0,0,1,22.24-2.09c25.72,0,42.52,8.4,49.94,25,3.91,9.11,5.8,23.4,5.8,43.73a2.89,2.89,0,0,1-2.8,3H597.51a2.89,2.89,0,0,1-2.8-3c0-13.68-1.4-19-2.57-21-2.26-3.84-7.12-5.8-14.41-5.8-9.11,0-13.7,3.85-14.43,12.13a56.29,56.29,0,0,0,.82,11c.11.73,1.39,4.53,16.73,12.28,16.8,8.23,26.06,12.93,28.3,14.36,15.93,9.64,24.27,20.11,24.74,31.09.73,22.75-.37,38-3.35,46.76-4.31,12.57-13.94,20.58-28.64,23.79A110.8,110.8,0,0,1,578.8,221.63Z"/><path d="M114.22,217a2.89,2.89,0,0,1-2.81-3V103.54L90.9,134.28a2.78,2.78,0,0,1-2.3,1.25h0a2.75,2.75,0,0,1-2.29-1.26L65.8,103.36V214.07A2.89,2.89,0,0,1,63,217H24.35a2.89,2.89,0,0,1-2.81-3V33a2.89,2.89,0,0,1,2.81-3H63a2.81,2.81,0,0,1,2.65,2l23,33,23-33a2.81,2.81,0,0,1,2.65-2h38.64a2.89,2.89,0,0,1,2.81,3V214.07a2.89,2.89,0,0,1-2.81,3Z"/><path d="M253.62,216.82a2.84,2.84,0,0,1-2.71-2.2l-5.85-22.86H206l-5.84,22.86a2.84,2.84,0,0,1-2.71,2.2H161.4a2.77,2.77,0,0,1-2.23-1.16,3.11,3.11,0,0,1-.48-2.58L204.58,32.22a2.84,2.84,0,0,1,2.71-2.2H243.8a2.84,2.84,0,0,1,2.71,2.2l45.9,180.86a3.11,3.11,0,0,1-.49,2.58,2.75,2.75,0,0,1-2.22,1.16ZM215,155.9l21-.69L225.46,97.76Z"/><path d="M310,216.82a2.89,2.89,0,0,1-2.81-3V76.38H277.74a2.9,2.9,0,0,1-2.81-3V33a2.89,2.89,0,0,1,2.81-3H380.85a2.89,2.89,0,0,1,2.81,3V73.4a2.9,2.9,0,0,1-2.81,3H351.42V213.85a2.89,2.89,0,0,1-2.81,3Z"/><path d="M473.92,216.82a2.89,2.89,0,0,1-2.81-3V142.76H435.74v71.09a2.89,2.89,0,0,1-2.81,3H394.51a2.89,2.89,0,0,1-2.81-3V33a2.89,2.89,0,0,1,2.81-3h38.42a2.89,2.89,0,0,1,2.81,3v67.7h35.37V33a2.89,2.89,0,0,1,2.81-3h38.42a2.89,2.89,0,0,1,2.81,3V213.85a2.89,2.89,0,0,1-2.81,3Z"/><path d="M579.8,220.88c-23.54,0-39.35-6.38-47-19-5.17-8.35-7.83-22.37-8.13-42.82-.14-3-.21-6.85-.21-11.39a2.89,2.89,0,0,1,2.8-3h34.8a2.89,2.89,0,0,1,2.81,3c0,17.76,1.34,24.68,2.48,27.34,2.36,4.55,7.07,6.82,14.4,6.95,7.92,0,12.19-3.87,13.4-12.16a62.93,62.93,0,0,0,.4-12.7c-.08-.3-1.35-3.7-18.33-12.88-18.3-9.75-29.34-15.93-33.74-18.88-12-8.33-18-16-18.38-23.36-.88-24.27.22-40.58,3.36-49.91,4.47-13,14.36-21.28,29.41-24.5a105.41,105.41,0,0,1,22.34-2.09c25.82,0,42.69,8.4,50.14,25,3.92,9.1,5.82,23.39,5.82,43.73a2.89,2.89,0,0,1-2.81,3h-34.8a2.89,2.89,0,0,1-2.8-3c0-13.68-1.41-19-2.58-21-2.27-3.83-7.15-5.8-14.47-5.8-9.15,0-13.75,3.86-14.49,12.14a56.34,56.34,0,0,0,.82,11c.11.72,1.41,4.53,16.8,12.27,16.87,8.24,26.17,12.94,28.42,14.36,16,9.65,24.37,20.12,24.84,31.09.73,22.76-.37,38-3.37,46.76-4.32,12.58-14,20.58-28.76,23.8A111.65,111.65,0,0,1,579.8,220.88Z"/><path d="M113.36,216.3a2.9,2.9,0,0,1-2.82-3V102.79l-20.6,30.74a2.76,2.76,0,0,1-2.3,1.26h0a2.79,2.79,0,0,1-2.31-1.26L64.74,102.61V213.33a2.9,2.9,0,0,1-2.82,3H23.13a2.9,2.9,0,0,1-2.82-3V32.24a2.9,2.9,0,0,1,2.82-3H61.92a2.85,2.85,0,0,1,2.67,2l23,33,23-33a2.84,2.84,0,0,1,2.67-2h38.79a2.9,2.9,0,0,1,2.82,3V213.33a2.9,2.9,0,0,1-2.82,3Z"/><path d="M253.32,216.08a2.87,2.87,0,0,1-2.73-2.2L244.73,191H205.54l-5.87,22.87a2.86,2.86,0,0,1-2.72,2.2H160.73a2.76,2.76,0,0,1-2.24-1.17,3.06,3.06,0,0,1-.49-2.58L204.08,31.47a2.86,2.86,0,0,1,2.73-2.2h36.65a2.86,2.86,0,0,1,2.72,2.2l46.08,180.86a3.1,3.1,0,0,1-.48,2.58,2.78,2.78,0,0,1-2.24,1.17Zm-38.8-60.93,21-.68L225,97Z"/><path d="M309.9,216.08a2.91,2.91,0,0,1-2.82-3V75.63H277.54a2.9,2.9,0,0,1-2.82-3V32.24a2.9,2.9,0,0,1,2.82-3H381.06a2.9,2.9,0,0,1,2.82,3V72.66a2.9,2.9,0,0,1-2.82,3H351.51V213.1a2.91,2.91,0,0,1-2.82,3Z"/><path d="M474.5,216.08a2.91,2.91,0,0,1-2.82-3V142H436.17V213.1a2.91,2.91,0,0,1-2.82,3H394.77a2.91,2.91,0,0,1-2.82-3V32.24a2.9,2.9,0,0,1,2.82-3h38.58a2.9,2.9,0,0,1,2.82,3V100h35.51V32.24a2.9,2.9,0,0,1,2.82-3h38.58a2.9,2.9,0,0,1,2.82,3V213.1a2.91,2.91,0,0,1-2.82,3Z"/><path d="M580.81,220.14c-23.64,0-39.51-6.39-47.17-19-5.19-8.35-7.86-22.37-8.16-42.83-.15-3-.22-6.84-.22-11.38a2.9,2.9,0,0,1,2.82-3H563a2.9,2.9,0,0,1,2.82,3c0,17.76,1.34,24.67,2.49,27.34,2.37,4.54,7.1,6.81,14.45,6.94,8,0,12.25-3.86,13.46-12.16a62.17,62.17,0,0,0,.4-12.7c-.08-.29-1.36-3.7-18.4-12.87-18.38-9.76-29.46-15.93-33.88-18.88-12.09-8.33-18.12-16-18.45-23.37-.88-24.26.22-40.58,3.37-49.91,4.49-13,14.42-21.27,29.53-24.49a105.65,105.65,0,0,1,22.43-2.09c25.92,0,42.86,8.39,50.34,25,3.94,9.1,5.84,23.39,5.84,43.72a2.9,2.9,0,0,1-2.82,3H599.67a2.9,2.9,0,0,1-2.82-3c0-13.67-1.41-19-2.59-21-2.28-3.84-7.17-5.8-14.52-5.8-9.19,0-13.81,3.86-14.55,12.13a55.62,55.62,0,0,0,.82,11c.11.72,1.41,4.53,16.87,12.27,16.93,8.23,26.27,12.94,28.53,14.36,16.05,9.65,24.47,20.12,24.94,31.09.73,22.76-.37,38-3.38,46.76-4.34,12.57-14.06,20.58-28.88,23.8A112.5,112.5,0,0,1,580.81,220.14Z"/><path d="M112.49,215.56a2.9,2.9,0,0,1-2.83-3V102.05L89,132.79a2.79,2.79,0,0,1-2.31,1.26h0a2.84,2.84,0,0,1-2.32-1.27L63.68,101.87V212.59a2.9,2.9,0,0,1-2.83,3H21.9a2.9,2.9,0,0,1-2.83-3V31.5a2.9,2.9,0,0,1,2.83-3h39a2.86,2.86,0,0,1,2.68,2l23.14,33,23.15-33a2.84,2.84,0,0,1,2.67-2h39a2.91,2.91,0,0,1,2.84,3V212.59a2.91,2.91,0,0,1-2.84,3Z"/><path d="M253,215.33a2.85,2.85,0,0,1-2.73-2.19l-5.89-22.87H205l-5.89,22.87a2.85,2.85,0,0,1-2.73,2.19H160.05a2.81,2.81,0,0,1-2.25-1.16,3.1,3.1,0,0,1-.48-2.58L203.58,30.73a2.86,2.86,0,0,1,2.74-2.2h36.79a2.85,2.85,0,0,1,2.74,2.2l46.26,180.86a3.1,3.1,0,0,1-.48,2.58,2.81,2.81,0,0,1-2.25,1.16Zm-38.95-60.92,21.13-.68L224.62,96.27Z"/><path d="M309.82,215.33a2.9,2.9,0,0,1-2.83-3V74.89H277.33a2.9,2.9,0,0,1-2.83-3V31.5a2.9,2.9,0,0,1,2.83-3H381.27a2.9,2.9,0,0,1,2.83,3V71.92a2.9,2.9,0,0,1-2.83,3H351.6V212.36a2.9,2.9,0,0,1-2.83,3Z"/><path d="M475.08,215.33a2.9,2.9,0,0,1-2.83-3V141.27H436.6v71.09a2.9,2.9,0,0,1-2.83,3H395a2.9,2.9,0,0,1-2.83-3V31.5a2.9,2.9,0,0,1,2.83-3h38.74a2.9,2.9,0,0,1,2.83,3V99.2h35.65V31.5a2.9,2.9,0,0,1,2.83-3h38.74a2.9,2.9,0,0,1,2.83,3V212.36a2.9,2.9,0,0,1-2.83,3Z"/><path d="M581.82,219.4c-23.73,0-39.67-6.39-47.36-19-5.21-8.36-7.89-22.37-8.19-42.83-.15-3-.22-6.84-.22-11.39a2.9,2.9,0,0,1,2.83-3H564a2.9,2.9,0,0,1,2.83,3c0,17.76,1.35,24.68,2.5,27.35,2.38,4.54,7.13,6.81,14.51,6.94,8,0,12.29-3.87,13.51-12.16a61.49,61.49,0,0,0,.4-12.7c-.08-.3-1.36-3.7-18.47-12.88-18.45-9.75-29.58-15.93-34-18.87-12.15-8.34-18.2-16-18.53-23.37-.89-24.27.22-40.58,3.39-49.91,4.5-13,14.48-21.28,29.65-24.5A107,107,0,0,1,582.25,24c26,0,43,8.4,50.54,25,4,9.11,5.87,23.39,5.87,43.73a2.9,2.9,0,0,1-2.83,3H600.75a2.9,2.9,0,0,1-2.83-3c0-13.68-1.41-19-2.6-21-2.28-3.83-7.2-5.79-14.58-5.79-9.22,0-13.86,3.85-14.6,12.13A55.58,55.58,0,0,0,567,89c.11.73,1.42,4.53,16.94,12.28,17,8.23,26.38,12.93,28.64,14.36,16.12,9.64,24.57,20.11,25,31.09.74,22.75-.37,38-3.39,46.76-4.36,12.57-14.11,20.57-29,23.79A113.4,113.4,0,0,1,581.82,219.4Z"/><path d="M111.62,214.81a2.91,2.91,0,0,1-2.84-3V101.31L88,132a2.8,2.8,0,0,1-2.32,1.26h0A2.8,2.8,0,0,1,83.37,132L62.61,101.13V211.84a2.91,2.91,0,0,1-2.84,3H20.67a2.91,2.91,0,0,1-2.85-3V30.76a2.91,2.91,0,0,1,2.85-3h39.1a2.85,2.85,0,0,1,2.69,2l23.24,33,23.24-33a2.84,2.84,0,0,1,2.68-2h39.11a2.91,2.91,0,0,1,2.84,3V211.84a2.91,2.91,0,0,1-2.84,3Z"/><path d="M252.71,214.59a2.87,2.87,0,0,1-2.75-2.2l-5.91-22.86H204.54l-5.91,22.86a2.86,2.86,0,0,1-2.74,2.2H159.37a2.79,2.79,0,0,1-2.25-1.16,3.08,3.08,0,0,1-.49-2.58L203.08,30a2.86,2.86,0,0,1,2.74-2.2h37a2.87,2.87,0,0,1,2.75,2.2L292,210.85a3.08,3.08,0,0,1-.49,2.58,2.81,2.81,0,0,1-2.26,1.16ZM213.6,153.67l21.21-.69-10.6-57.45Z"/><path d="M309.75,214.59a2.91,2.91,0,0,1-2.85-3V74.14H277.12a2.91,2.91,0,0,1-2.84-3V30.76a2.91,2.91,0,0,1,2.84-3H381.48a2.91,2.91,0,0,1,2.84,3V71.17a2.91,2.91,0,0,1-2.84,3H351.69V211.62a2.91,2.91,0,0,1-2.84,3Z"/><path d="M475.67,214.59a2.91,2.91,0,0,1-2.84-3V140.53H437v71.09a2.91,2.91,0,0,1-2.84,3H395.3a2.91,2.91,0,0,1-2.84-3V30.76a2.91,2.91,0,0,1,2.84-3h38.89a2.91,2.91,0,0,1,2.84,3v67.7h35.8V30.76a2.91,2.91,0,0,1,2.84-3h38.89a2.91,2.91,0,0,1,2.84,3V211.62a2.91,2.91,0,0,1-2.84,3Z"/><path d="M582.83,218.65c-23.82,0-39.82-6.38-47.54-19-5.23-8.35-7.93-22.37-8.23-42.82-.15-3-.22-6.85-.22-11.39a2.91,2.91,0,0,1,2.84-3H564.9a2.91,2.91,0,0,1,2.84,3c0,17.76,1.36,24.68,2.51,27.34,2.39,4.55,7.16,6.82,14.58,6.95,8,0,12.34-3.87,13.56-12.16a61.49,61.49,0,0,0,.4-12.7c-.08-.3-1.36-3.7-18.55-12.88-18.52-9.75-29.69-15.93-34.14-18.88-12.2-8.33-18.27-16-18.61-23.37-.88-24.26.23-40.58,3.41-49.9,4.52-13,14.53-21.28,29.76-24.5a107.31,107.31,0,0,1,22.61-2.09c26.13,0,43.2,8.39,50.74,25,4,9.1,5.9,23.39,5.9,43.73a2.91,2.91,0,0,1-2.85,3H601.85A2.91,2.91,0,0,1,599,92c0-13.68-1.42-19-2.61-21-2.29-3.84-7.23-5.8-14.64-5.8-9.25,0-13.92,3.86-14.66,12.13a55,55,0,0,0,.83,11c.11.72,1.42,4.53,17,12.27,17.07,8.24,26.49,12.94,28.76,14.36,16.19,9.65,24.67,20.12,25.14,31.09.74,22.76-.37,38-3.41,46.76-4.37,12.57-14.16,20.58-29.1,23.8A114.42,114.42,0,0,1,582.83,218.65Z"/><path d="M110.75,214.07a2.91,2.91,0,0,1-2.85-3V100.56L87.05,131.3a2.81,2.81,0,0,1-2.33,1.26h0a2.79,2.79,0,0,1-2.33-1.27L61.55,100.38V211.1a2.92,2.92,0,0,1-2.86,3H19.43a2.92,2.92,0,0,1-2.86-3V30a2.92,2.92,0,0,1,2.86-3H58.69a2.88,2.88,0,0,1,2.7,2L84.72,62l23.33-33a2.88,2.88,0,0,1,2.7-2H150a2.91,2.91,0,0,1,2.85,3V211.1a2.91,2.91,0,0,1-2.85,3Z"/><path d="M252.4,213.84a2.86,2.86,0,0,1-2.75-2.19l-5.94-22.87H204l-5.93,22.87a2.88,2.88,0,0,1-2.76,2.19H158.69a2.81,2.81,0,0,1-2.26-1.16,3.06,3.06,0,0,1-.49-2.58L202.57,29.24a2.88,2.88,0,0,1,2.76-2.2h37.09a2.87,2.87,0,0,1,2.76,2.2L291.82,210.1a3.06,3.06,0,0,1-.49,2.58,2.83,2.83,0,0,1-2.27,1.16Zm-39.26-60.92,21.29-.68L223.78,94.79Z"/><path d="M309.67,213.84a2.91,2.91,0,0,1-2.85-3V73.4H276.91a2.91,2.91,0,0,1-2.85-3V30a2.91,2.91,0,0,1,2.85-3H381.69a2.91,2.91,0,0,1,2.85,3V70.43a2.91,2.91,0,0,1-2.85,3h-29.9V210.87a2.92,2.92,0,0,1-2.86,3Z"/><path d="M476.26,213.84a2.91,2.91,0,0,1-2.85-3V139.78H437.47v71.09a2.92,2.92,0,0,1-2.86,3h-39a2.92,2.92,0,0,1-2.86-3V30a2.92,2.92,0,0,1,2.86-3h39a2.92,2.92,0,0,1,2.86,3V97.72h35.94V30a2.91,2.91,0,0,1,2.85-3h39a2.91,2.91,0,0,1,2.85,3V210.87a2.91,2.91,0,0,1-2.85,3Z"/><path d="M583.85,217.91c-23.92,0-40-6.39-47.74-19-5.25-8.35-8-22.37-8.25-42.83-.15-3-.22-6.84-.22-11.38a2.91,2.91,0,0,1,2.85-3h35.36a2.91,2.91,0,0,1,2.85,3c0,17.76,1.37,24.67,2.52,27.34,2.4,4.54,7.19,6.81,14.63,6.94,8,0,12.39-3.86,13.62-12.16a61.38,61.38,0,0,0,.41-12.7c-.08-.29-1.37-3.7-18.63-12.87-18.59-9.76-29.81-15.93-34.28-18.88-12.24-8.33-18.34-16-18.68-23.37-.89-24.26.23-40.58,3.42-49.91,4.54-13,14.59-21.27,29.89-24.49a108.05,108.05,0,0,1,22.69-2.09c26.24,0,43.38,8.39,51,24.95,4,9.1,5.92,23.39,5.92,43.72a2.92,2.92,0,0,1-2.86,3H602.94a2.91,2.91,0,0,1-2.85-3c0-13.67-1.43-19-2.62-21-2.31-3.84-7.26-5.8-14.7-5.8-9.3,0-14,3.85-14.72,12.13a55,55,0,0,0,.83,11c.11.72,1.43,4.53,17.07,12.27,17.14,8.23,26.59,12.94,28.87,14.36,16.26,9.65,24.77,20.12,25.25,31.09.74,22.76-.38,38-3.42,46.76-4.4,12.57-14.23,20.58-29.23,23.8A115.22,115.22,0,0,1,583.85,217.91Z"/><path d="M109.88,213.33a2.92,2.92,0,0,1-2.87-3V99.82L86.08,130.56a2.83,2.83,0,0,1-2.34,1.26h0a2.86,2.86,0,0,1-2.34-1.27L60.47,99.64V210.36a2.92,2.92,0,0,1-2.86,3H18.19a2.92,2.92,0,0,1-2.87-3V29.27a2.92,2.92,0,0,1,2.87-3H57.61a2.88,2.88,0,0,1,2.71,2l23.42,33,23.43-33a2.87,2.87,0,0,1,2.71-2H149.3a2.92,2.92,0,0,1,2.86,3V210.36a2.92,2.92,0,0,1-2.86,3Z"/><path d="M252.1,213.1a2.89,2.89,0,0,1-2.77-2.2l-6-22.86H203.54l-6,22.86a2.88,2.88,0,0,1-2.76,2.2H158a2.86,2.86,0,0,1-2.28-1.16,3.07,3.07,0,0,1-.49-2.58L202.07,28.5a2.87,2.87,0,0,1,2.76-2.2h37.25a2.87,2.87,0,0,1,2.76,2.2l46.83,180.86a3.07,3.07,0,0,1-.49,2.58,2.86,2.86,0,0,1-2.28,1.16Zm-39.43-60.92,21.38-.68L223.36,94Z"/><path d="M309.59,213.1a2.92,2.92,0,0,1-2.86-3V72.66h-30a2.92,2.92,0,0,1-2.87-3V29.27a2.92,2.92,0,0,1,2.87-3H381.9a2.92,2.92,0,0,1,2.87,3V69.69a2.92,2.92,0,0,1-2.87,3h-30V210.13a2.92,2.92,0,0,1-2.87,3Z"/><path d="M476.85,213.1a2.92,2.92,0,0,1-2.86-3V139H437.9v71.09a2.92,2.92,0,0,1-2.86,3H395.83a2.92,2.92,0,0,1-2.86-3V29.27a2.92,2.92,0,0,1,2.86-3H435a2.92,2.92,0,0,1,2.86,3V97H474V29.27a2.92,2.92,0,0,1,2.86-3h39.21a2.92,2.92,0,0,1,2.86,3V210.13a2.92,2.92,0,0,1-2.86,3Z"/><path d="M584.88,217.17c-24,0-40.15-6.39-47.93-19-5.27-8.36-8-22.37-8.3-42.83-.14-3-.21-6.84-.21-11.39a2.92,2.92,0,0,1,2.86-3h35.5a2.92,2.92,0,0,1,2.87,3c0,17.76,1.36,24.68,2.53,27.35,2.4,4.54,7.21,6.81,14.69,6.94,8.08,0,12.44-3.87,13.67-12.16a61.41,61.41,0,0,0,.41-12.7c-.09-.3-1.38-3.7-18.7-12.88-18.67-9.75-29.94-15.93-34.43-18.87-12.29-8.34-18.41-16-18.75-23.37-.89-24.27.23-40.58,3.43-49.91,4.56-13,14.65-21.28,30-24.5a109.64,109.64,0,0,1,22.78-2.09c26.35,0,43.56,8.4,51.16,24.95,4,9.11,5.94,23.39,5.94,43.73a2.92,2.92,0,0,1-2.87,3H604a2.92,2.92,0,0,1-2.86-3c0-13.68-1.43-19-2.63-21-2.32-3.83-7.29-5.79-14.76-5.79-9.33,0-14,3.85-14.78,12.13a54.91,54.91,0,0,0,.83,11c.11.73,1.43,4.53,17.14,12.28,17.21,8.23,26.7,12.93,29,14.36,16.32,9.64,24.87,20.11,25.35,31.08.74,22.76-.38,38.05-3.44,46.77-4.41,12.57-14.28,20.57-29.34,23.79A116.09,116.09,0,0,1,584.88,217.17Z"/><path d="M109,212.58a2.93,2.93,0,0,1-2.88-3V99.08l-21,30.73a2.86,2.86,0,0,1-2.35,1.26h0a2.86,2.86,0,0,1-2.35-1.26l-21-30.91V209.61a2.92,2.92,0,0,1-2.87,3H16.94a2.93,2.93,0,0,1-2.88-3V28.53a2.93,2.93,0,0,1,2.88-3H56.52a2.88,2.88,0,0,1,2.72,2l23.52,33,23.52-33a2.88,2.88,0,0,1,2.72-2h39.58a2.92,2.92,0,0,1,2.87,3V209.61a2.92,2.92,0,0,1-2.87,3Z"/><path d="M251.79,212.36a2.9,2.9,0,0,1-2.78-2.2l-6-22.87H203l-6,22.87a2.9,2.9,0,0,1-2.78,2.2h-37a2.83,2.83,0,0,1-2.28-1.17,3,3,0,0,1-.5-2.57l47-180.86a2.88,2.88,0,0,1,2.78-2.2h37.39a2.9,2.9,0,0,1,2.78,2.2l47,180.86a3,3,0,0,1-.5,2.57,2.81,2.81,0,0,1-2.28,1.17Zm-39.58-60.92,21.46-.69L222.94,93.3Z"/><path d="M309.52,212.36a2.93,2.93,0,0,1-2.88-3V71.91H276.5a2.93,2.93,0,0,1-2.88-3V28.53a2.93,2.93,0,0,1,2.88-3H382.11a2.93,2.93,0,0,1,2.88,3V68.94a2.93,2.93,0,0,1-2.88,3H352V209.39a2.93,2.93,0,0,1-2.88,3Z"/><path d="M477.45,212.36a2.93,2.93,0,0,1-2.88-3V138.3H438.34v71.09a2.93,2.93,0,0,1-2.88,3H396.1a2.92,2.92,0,0,1-2.87-3V28.53a2.92,2.92,0,0,1,2.87-3h39.36a2.93,2.93,0,0,1,2.88,3v67.7h36.23V28.53a2.93,2.93,0,0,1,2.88-3h39.36a2.93,2.93,0,0,1,2.88,3V209.39a2.93,2.93,0,0,1-2.88,3Z"/><path d="M585.91,216.42c-24.12,0-40.31-6.38-48.13-19-5.29-8.35-8-22.37-8.32-42.82-.15-3-.22-6.85-.22-11.39a2.92,2.92,0,0,1,2.87-3h35.65a2.92,2.92,0,0,1,2.87,3c0,17.76,1.38,24.68,2.54,27.34,2.42,4.54,7.25,6.82,14.75,6.94,8.12,0,12.49-3.86,13.73-12.15a61.41,61.41,0,0,0,.41-12.7c-.08-.3-1.38-3.7-18.78-12.88-18.74-9.75-30-15.93-34.56-18.88-12.34-8.33-18.48-16-18.82-23.37-.9-24.26.22-40.58,3.44-49.9,4.58-13,14.71-21.28,30.13-24.5A109.73,109.73,0,0,1,586.34,21c26.45,0,43.73,8.39,51.36,25,4,9.1,6,23.39,6,43.73a2.93,2.93,0,0,1-2.88,3H605.15a2.93,2.93,0,0,1-2.88-3c0-13.68-1.44-19-2.64-21-2.33-3.84-7.32-5.8-14.82-5.8-9.37,0-14.09,3.86-14.84,12.13a54.29,54.29,0,0,0,.84,11c.11.72,1.44,4.53,17.21,12.27,17.27,8.24,26.81,12.94,29.11,14.36,16.38,9.65,25,20.12,25.44,31.09.75,22.76-.38,38-3.45,46.76-4.42,12.57-14.34,20.58-29.45,23.8A117.2,117.2,0,0,1,585.91,216.42Z"/><path d="M108.11,211.84a2.93,2.93,0,0,1-2.88-3V98.33l-21.1,30.74a2.86,2.86,0,0,1-2.36,1.26h0a2.85,2.85,0,0,1-2.36-1.27L58.31,98.15V208.87a2.93,2.93,0,0,1-2.89,3H15.68a2.93,2.93,0,0,1-2.88-3V27.78a2.93,2.93,0,0,1,2.88-3H55.42a2.9,2.9,0,0,1,2.73,2l23.62,33,23.61-33a2.9,2.9,0,0,1,2.73-2h39.74a2.93,2.93,0,0,1,2.89,3V208.87a2.93,2.93,0,0,1-2.89,3Z"/><path d="M251.48,211.61a2.9,2.9,0,0,1-2.79-2.19l-6-22.87H202.53l-6,22.87a2.91,2.91,0,0,1-2.79,2.19H156.63a2.88,2.88,0,0,1-2.29-1.16,3,3,0,0,1-.5-2.58L201.05,27a2.89,2.89,0,0,1,2.79-2.2h37.54a2.9,2.9,0,0,1,2.79,2.2l47.2,180.86a3,3,0,0,1-.5,2.58,2.85,2.85,0,0,1-2.29,1.16Zm-39.74-60.92,21.55-.68L222.51,92.56Z"/><path d="M309.44,211.61a2.93,2.93,0,0,1-2.89-3V71.17H276.29a2.93,2.93,0,0,1-2.89-3V27.78a2.93,2.93,0,0,1,2.89-3h106a2.93,2.93,0,0,1,2.89,3V68.2a2.93,2.93,0,0,1-2.89,3H352.06V208.64a2.93,2.93,0,0,1-2.88,3Z"/><path d="M478,211.61a2.93,2.93,0,0,1-2.88-3V137.55H438.78v71.09a2.93,2.93,0,0,1-2.89,3H396.37a2.93,2.93,0,0,1-2.89-3V27.78a2.93,2.93,0,0,1,2.89-3h39.52a2.93,2.93,0,0,1,2.89,3v67.7h36.38V27.78a2.93,2.93,0,0,1,2.88-3h39.52a2.93,2.93,0,0,1,2.89,3V208.64a2.93,2.93,0,0,1-2.89,3Z"/><path d="M586.94,215.68c-24.21,0-40.47-6.39-48.32-19-5.31-8.35-8-22.37-8.36-42.83-.14-3-.22-6.84-.22-11.38a2.94,2.94,0,0,1,2.89-3h35.79a2.94,2.94,0,0,1,2.88,3c0,17.76,1.38,24.67,2.56,27.34,2.42,4.54,7.27,6.81,14.8,6.94,8.15,0,12.54-3.86,13.79-12.16a61.38,61.38,0,0,0,.41-12.7c-.09-.29-1.39-3.7-18.85-12.88-18.82-9.75-30.18-15.92-34.7-18.87-12.39-8.33-18.57-16-18.91-23.37-.9-24.26.23-40.58,3.46-49.91,4.6-13,14.77-21.27,30.25-24.49a110.68,110.68,0,0,1,23-2.09c26.55,0,43.9,8.39,51.56,25,4,9.1,6,23.39,6,43.72a2.93,2.93,0,0,1-2.88,3H606.26a2.93,2.93,0,0,1-2.89-3c0-13.67-1.44-19-2.65-21-2.34-3.84-7.35-5.8-14.88-5.8-9.41,0-14.14,3.85-14.9,12.13a54.29,54.29,0,0,0,.84,11c.11.72,1.45,4.53,17.28,12.27,17.34,8.23,26.91,12.94,29.22,14.36,16.45,9.65,25.07,20.12,25.55,31.09.75,22.76-.38,38-3.46,46.76-4.45,12.57-14.4,20.58-29.58,23.79A117.94,117.94,0,0,1,586.94,215.68Z"/><path d="M107.23,211.1a2.94,2.94,0,0,1-2.9-3V97.59L83.15,128.33a2.89,2.89,0,0,1-2.37,1.26h0a2.91,2.91,0,0,1-2.37-1.27L57.23,97.41V208.13a2.94,2.94,0,0,1-2.91,3H14.43a2.94,2.94,0,0,1-2.9-3V27a2.94,2.94,0,0,1,2.9-3H54.32a2.91,2.91,0,0,1,2.75,2l23.71,33,23.71-33a2.89,2.89,0,0,1,2.74-2h39.9a2.94,2.94,0,0,1,2.9,3V208.13a2.94,2.94,0,0,1-2.9,3Z"/><path d="M251.17,210.87a2.91,2.91,0,0,1-2.8-2.2l-6-22.86H202l-6,22.86a2.91,2.91,0,0,1-2.8,2.2H155.94a2.88,2.88,0,0,1-2.3-1.16,3,3,0,0,1-.5-2.58L200.53,26.27a2.91,2.91,0,0,1,2.8-2.2H241a2.91,2.91,0,0,1,2.8,2.2l47.39,180.86a3,3,0,0,1-.5,2.58,2.88,2.88,0,0,1-2.3,1.16ZM211.27,150l21.64-.68L222.09,91.81Z"/><path d="M309.36,210.87a2.94,2.94,0,0,1-2.9-3V70.43H276.07a2.94,2.94,0,0,1-2.9-3V27a2.94,2.94,0,0,1,2.9-3H382.54a2.94,2.94,0,0,1,2.9,3V67.46a2.94,2.94,0,0,1-2.9,3H352.16V207.9a2.94,2.94,0,0,1-2.9,3Z"/><path d="M478.64,210.87a2.94,2.94,0,0,1-2.9-3V136.81H439.22V207.9a2.94,2.94,0,0,1-2.9,3H396.64a2.94,2.94,0,0,1-2.9-3V27a2.94,2.94,0,0,1,2.9-3h39.68a2.94,2.94,0,0,1,2.9,3v67.7h36.52V27a2.94,2.94,0,0,1,2.9-3h39.68a2.94,2.94,0,0,1,2.9,3V207.9a2.94,2.94,0,0,1-2.9,3Z"/><path d="M588,214.94c-24.31,0-40.64-6.39-48.52-19-5.33-8.36-8.08-22.37-8.39-42.83-.15-3-.22-6.84-.22-11.39a2.94,2.94,0,0,1,2.9-3h35.93a2.94,2.94,0,0,1,2.9,3c0,17.76,1.38,24.68,2.56,27.35,2.44,4.54,7.3,6.81,14.87,6.94,8.18,0,12.59-3.87,13.84-12.16a60.72,60.72,0,0,0,.41-12.7c-.09-.3-1.39-3.7-18.93-12.88-18.89-9.75-30.29-15.93-34.84-18.88-12.44-8.33-18.63-16-19-23.36-.9-24.27.23-40.58,3.48-49.91,4.61-13,14.83-21.28,30.37-24.5a112.23,112.23,0,0,1,23.06-2.09c26.66,0,44.08,8.4,51.77,25,4,9.11,6,23.39,6,43.73a2.94,2.94,0,0,1-2.9,3H607.37a2.94,2.94,0,0,1-2.9-3c0-13.68-1.45-19-2.66-21-2.34-3.83-7.38-5.79-14.94-5.79-9.44,0-14.2,3.85-15,12.13a54.32,54.32,0,0,0,.85,11c.11.73,1.45,4.53,17.34,12.28,17.42,8.23,27,12.93,29.35,14.36,16.51,9.64,25.16,20.11,25.65,31.08.75,22.76-.39,38.05-3.48,46.77-4.46,12.57-14.45,20.57-29.69,23.79A119,119,0,0,1,588,214.94Z"/><path d="M106.34,210.35a2.94,2.94,0,0,1-2.91-3V96.85L82.16,127.58a2.9,2.9,0,0,1-2.38,1.26h0a2.88,2.88,0,0,1-2.38-1.26L56.13,96.67V207.38a2.94,2.94,0,0,1-2.91,3H13.16a3,3,0,0,1-2.91-3V26.3a3,3,0,0,1,2.91-3H53.22a2.93,2.93,0,0,1,2.76,2l23.8,33,23.8-33a2.93,2.93,0,0,1,2.76-2H146.4a3,3,0,0,1,2.91,3V207.38a3,3,0,0,1-2.91,3Z"/><path d="M250.85,210.13a2.93,2.93,0,0,1-2.81-2.2l-6-22.87H201.52l-6.06,22.87a2.91,2.91,0,0,1-2.81,2.2h-37.4a2.87,2.87,0,0,1-2.31-1.17,3,3,0,0,1-.51-2.57L200,25.53a2.92,2.92,0,0,1,2.81-2.21h37.84a2.93,2.93,0,0,1,2.82,2.21l47.58,180.86a3,3,0,0,1-.5,2.57,2.88,2.88,0,0,1-2.31,1.17Zm-40-60.93,21.72-.68L221.66,91.07Z"/><path d="M309.28,210.13a2.94,2.94,0,0,1-2.91-3V69.68H275.86a2.94,2.94,0,0,1-2.91-3V26.3a3,3,0,0,1,2.91-3h106.9a3,3,0,0,1,2.91,3V66.71a2.94,2.94,0,0,1-2.91,3H352.25V207.16a2.94,2.94,0,0,1-2.91,3Z"/><path d="M479.25,210.13a3,3,0,0,1-2.92-3V136.07H439.67v71.09a3,3,0,0,1-2.92,3H396.92a3,3,0,0,1-2.92-3V26.3a3,3,0,0,1,2.92-3h39.83a3,3,0,0,1,2.92,3V94h36.66V26.3a3,3,0,0,1,2.92-3h39.83a3,3,0,0,1,2.91,3V207.16a2.94,2.94,0,0,1-2.91,3Z"/><path d="M589,214.19c-24.41,0-40.8-6.38-48.71-19-5.36-8.35-8.12-22.37-8.43-42.82-.14-3-.22-6.85-.22-11.39a2.94,2.94,0,0,1,2.91-3h36.08a3,3,0,0,1,2.91,3c0,17.76,1.39,24.68,2.57,27.34,2.45,4.54,7.33,6.82,14.93,6.94,8.21,0,12.64-3.86,13.89-12.15a60,60,0,0,0,.41-12.7c-.08-.3-1.39-3.7-19-12.88-19-9.75-30.42-15.93-35-18.88-12.49-8.33-18.71-16-19-23.37-.91-24.26.23-40.58,3.48-49.9,4.64-13,14.89-21.28,30.5-24.5a112.39,112.39,0,0,1,23.15-2.09c26.77,0,44.26,8.39,52,25,4.07,9.1,6,23.39,6,43.73a3,3,0,0,1-2.91,3H608.49a2.94,2.94,0,0,1-2.91-3c0-13.68-1.46-19-2.68-21-2.35-3.84-7.4-5.8-15-5.8-9.48,0-14.26,3.86-15,12.13a53.65,53.65,0,0,0,.85,11c.11.72,1.45,4.53,17.41,12.27,17.49,8.24,27.14,12.94,29.46,14.36,16.58,9.65,25.27,20.12,25.76,31.09.76,22.76-.39,38-3.49,46.76-4.48,12.57-14.52,20.58-29.82,23.8A119.87,119.87,0,0,1,589,214.19Z"/><path d="M105.44,209.61a3,3,0,0,1-2.92-3V96.1L81.17,126.84a2.91,2.91,0,0,1-2.39,1.26h0a2.9,2.9,0,0,1-2.39-1.27L55,95.92V206.64a3,3,0,0,1-2.92,3H11.9a3,3,0,0,1-2.93-3V25.55a3,3,0,0,1,2.93-3H52.12a2.93,2.93,0,0,1,2.76,2l23.9,33,23.9-33a2.93,2.93,0,0,1,2.76-2h40.22a3,3,0,0,1,2.93,3V206.64a3,3,0,0,1-2.93,3Z"/><path d="M250.54,209.38a2.93,2.93,0,0,1-2.82-2.19l-6.08-22.87H201l-6.09,22.87a2.93,2.93,0,0,1-2.82,2.19H154.55a2.91,2.91,0,0,1-2.32-1.16,3,3,0,0,1-.5-2.58L199.5,24.78a2.92,2.92,0,0,1,2.82-2.2h38a2.92,2.92,0,0,1,2.82,2.2l47.78,180.86a3,3,0,0,1-.51,2.58,2.91,2.91,0,0,1-2.32,1.16Zm-40.22-60.92,21.81-.68-10.9-57.45Z"/><path d="M309.2,209.38a3,3,0,0,1-2.92-3V68.94H275.65a3,3,0,0,1-2.92-3V25.55a3,3,0,0,1,2.92-3H383a3,3,0,0,1,2.93,3V66a3,3,0,0,1-2.93,3H352.34V206.41a2.94,2.94,0,0,1-2.92,3Z"/><path d="M479.85,209.38a2.94,2.94,0,0,1-2.92-3V135.32H440.11v71.09a3,3,0,0,1-2.92,3h-40a3,3,0,0,1-2.92-3V25.55a3,3,0,0,1,2.92-3h40a3,3,0,0,1,2.92,3v67.7h36.82V25.55a2.94,2.94,0,0,1,2.92-3h40a3,3,0,0,1,2.92,3V206.41a3,3,0,0,1-2.92,3Z"/><path d="M590.06,213.45c-24.5,0-41-6.39-48.9-19-5.38-8.35-8.15-22.37-8.46-42.83-.15-3-.22-6.84-.22-11.38a2.94,2.94,0,0,1,2.92-3h36.22a3,3,0,0,1,2.92,3c0,17.76,1.4,24.67,2.58,27.34,2.46,4.54,7.36,6.81,15,6.94,8.24,0,12.69-3.86,13.95-12.16a60,60,0,0,0,.41-12.7c-.08-.3-1.4-3.7-19.07-12.88-19-9.75-30.54-15.92-35.12-18.87-12.54-8.33-18.79-16-19.14-23.37-.91-24.26.24-40.58,3.5-49.91,4.66-13,15-21.28,30.62-24.49a113.31,113.31,0,0,1,23.24-2.09c26.88,0,44.44,8.39,52.2,25,4.08,9.1,6.06,23.39,6.06,43.72a3,3,0,0,1-2.93,3H609.61a3,3,0,0,1-2.92-3c0-13.67-1.46-19-2.68-21-2.37-3.84-7.44-5.8-15.06-5.8-9.52,0-14.32,3.85-15.08,12.13a53.56,53.56,0,0,0,.85,11c.11.73,1.46,4.53,17.49,12.28,17.55,8.23,27.24,12.94,29.57,14.36,16.65,9.65,25.37,20.12,25.86,31.09.76,22.76-.38,38-3.5,46.76-4.5,12.57-14.57,20.58-29.94,23.79A120.73,120.73,0,0,1,590.06,213.45Z"/><path d="M104.55,208.87a3,3,0,0,1-2.94-3V95.36L80.17,126.1a2.9,2.9,0,0,1-2.39,1.25h0a2.93,2.93,0,0,1-2.4-1.26L53.94,95.18V205.9a3,3,0,0,1-2.94,3H10.62a3,3,0,0,1-2.93-3V24.81a3,3,0,0,1,2.93-3H51a2.94,2.94,0,0,1,2.78,2l24,33,24-33a2.94,2.94,0,0,1,2.78-2h40.38a3,3,0,0,1,2.93,3V205.9a3,3,0,0,1-2.93,3Z"/><path d="M250.23,208.64a3,3,0,0,1-2.84-2.2l-6.1-22.86h-40.8l-6.1,22.86a3,3,0,0,1-2.84,2.2h-37.7a2.94,2.94,0,0,1-2.33-1.16,3,3,0,0,1-.51-2.58L199,24a2.94,2.94,0,0,1,2.84-2.2H240A2.94,2.94,0,0,1,242.8,24l48,180.86a3.05,3.05,0,0,1-.51,2.58,2.94,2.94,0,0,1-2.33,1.16Zm-40.38-60.92,21.89-.68L220.8,89.58Z"/><path d="M309.12,208.64a3,3,0,0,1-2.93-3V68.2H275.44a3,3,0,0,1-2.94-3V24.81a3,3,0,0,1,2.94-3H383.19a3,3,0,0,1,2.94,3V65.23a3,3,0,0,1-2.94,3H352.44V205.67a3,3,0,0,1-2.94,3Z"/><path d="M480.46,208.64a3,3,0,0,1-2.94-3V134.58h-37v71.09a3,3,0,0,1-2.94,3H397.46a3,3,0,0,1-2.93-3V24.81a3,3,0,0,1,2.93-3h40.16a3,3,0,0,1,2.94,3v67.7h37V24.81a3,3,0,0,1,2.94-3h40.15a3,3,0,0,1,2.94,3V205.67a3,3,0,0,1-2.94,3Z"/><path d="M591.11,212.7c-24.6,0-41.12-6.38-49.1-19-5.4-8.35-8.18-22.36-8.49-42.82-.15-3-.23-6.84-.23-11.39a3,3,0,0,1,2.94-3h36.36a3,3,0,0,1,2.94,3c0,17.76,1.4,24.68,2.59,27.35,2.47,4.54,7.39,6.81,15,6.94,8.27,0,12.74-3.87,14-12.16a60,60,0,0,0,.42-12.7c-.09-.3-1.41-3.7-19.16-12.88-19.12-9.75-30.66-15.93-35.26-18.88-12.59-8.33-18.86-16-19.2-23.36-.92-24.27.23-40.58,3.51-49.91,4.67-13,15-21.28,30.74-24.5a114.92,114.92,0,0,1,23.34-2.09c27,0,44.61,8.4,52.4,25C648.06,51.37,650,65.66,650,86a3,3,0,0,1-2.93,3H610.74a3,3,0,0,1-2.93-3c0-13.68-1.47-19-2.7-21-2.37-3.83-7.46-5.79-15.12-5.79-9.56,0-14.37,3.85-15.14,12.13a53.67,53.67,0,0,0,.86,11c.11.72,1.46,4.53,17.55,12.28,17.63,8.23,27.35,12.93,29.7,14.36,16.72,9.64,25.47,20.11,26,31.08.77,22.76-.38,38-3.52,46.76-4.51,12.58-14.63,20.58-30,23.8A121.86,121.86,0,0,1,591.11,212.7Z"/><path d="M103.65,208.12a3,3,0,0,1-3-3V94.62L79.17,125.35a2.93,2.93,0,0,1-2.4,1.26h0a3,3,0,0,1-2.41-1.26L52.84,94.44V205.15a3,3,0,0,1-3,3H9.35a3,3,0,0,1-2.95-3V24.07a3,3,0,0,1,2.95-3H49.89a2.94,2.94,0,0,1,2.78,2l24.1,33,24.09-33a3,3,0,0,1,2.79-2h40.54a3,3,0,0,1,2.95,3V205.15a3,3,0,0,1-2.95,3Z"/><path d="M249.91,207.9a2.94,2.94,0,0,1-2.84-2.2l-6.13-22.87H200l-6.13,22.87a3,3,0,0,1-2.85,2.2H153.15a2.93,2.93,0,0,1-2.34-1.17,3,3,0,0,1-.51-2.57L198.46,23.3a3,3,0,0,1,2.84-2.21h38.31a3,3,0,0,1,2.84,2.21l48.16,180.86a3,3,0,0,1-.51,2.57,2.91,2.91,0,0,1-2.33,1.17ZM209.37,147l22-.68-11-57.45Z"/><path d="M309,207.9a3,3,0,0,1-2.94-3V67.45H275.22a3,3,0,0,1-3-3V24.07a3,3,0,0,1,3-3H383.41a3,3,0,0,1,2.95,3V64.48a3,3,0,0,1-2.95,3H352.53V204.93a3,3,0,0,1-2.94,3Z"/><path d="M481.06,207.9a3,3,0,0,1-2.94-3V133.84H441v71.09a3,3,0,0,1-2.95,3H397.74a3,3,0,0,1-2.95-3V24.07a3,3,0,0,1,2.95-3h40.32a3,3,0,0,1,2.95,3v67.7h37.11V24.07a3,3,0,0,1,2.94-3h40.32a3,3,0,0,1,3,3V204.93a3,3,0,0,1-3,3Z"/><path d="M592.16,212c-24.7,0-41.29-6.38-49.29-19-5.42-8.35-8.22-22.37-8.53-42.83-.15-3-.23-6.84-.23-11.38a3,3,0,0,1,2.95-3h36.51a3,3,0,0,1,2.95,3c0,17.76,1.4,24.67,2.6,27.34,2.48,4.54,7.42,6.81,15.11,6.94,8.31,0,12.79-3.86,14.06-12.15a60,60,0,0,0,.42-12.71c-.09-.29-1.42-3.69-19.23-12.87-19.2-9.75-30.79-15.93-35.4-18.88-12.65-8.33-18.94-16-19.29-23.37-.92-24.26.23-40.58,3.53-49.91,4.69-13,15.07-21.27,30.86-24.49a115.14,115.14,0,0,1,23.43-2.09c27.1,0,44.8,8.39,52.61,25,4.12,9.1,6.11,23.39,6.11,43.73a3,3,0,0,1-3,3H611.87a3,3,0,0,1-2.94-3c0-13.68-1.48-19-2.71-21-2.38-3.84-7.49-5.8-15.18-5.8-9.6,0-14.43,3.86-15.2,12.13a53.72,53.72,0,0,0,.86,11c.11.72,1.47,4.53,17.62,12.27,17.7,8.24,27.47,12.94,29.82,14.36,16.78,9.65,25.57,20.12,26.07,31.09.76,22.76-.39,38-3.54,46.76-4.53,12.57-14.68,20.58-30.17,23.8A122.86,122.86,0,0,1,592.16,212Z"/><path d="M102.74,207.38a3,3,0,0,1-3-3V93.87L78.17,124.61a2.94,2.94,0,0,1-2.42,1.26h0a3,3,0,0,1-2.42-1.27L51.73,93.69V204.41a3,3,0,0,1-3,3H8.06a3,3,0,0,1-3-3V23.32a3,3,0,0,1,3-3H48.77a3,3,0,0,1,2.8,2l24.18,33,24.19-33a3,3,0,0,1,2.8-2h40.71a3,3,0,0,1,3,3V204.41a3,3,0,0,1-3,3Z"/><path d="M249.59,207.15a3,3,0,0,1-2.85-2.19l-6.16-22.87H199.46L193.3,205a3,3,0,0,1-2.85,2.19h-38a3,3,0,0,1-2.86-3.74L197.93,22.55a3,3,0,0,1,2.86-2.2h38.46a3,3,0,0,1,2.86,2.2l48.35,180.86a3,3,0,0,1-2.86,3.74Zm-40.7-60.92,22.07-.68-11-57.45Z"/><path d="M309,207.15a3,3,0,0,1-2.95-3V66.71H275a3,3,0,0,1-3-3V23.32a3,3,0,0,1,3-3H383.63a3,3,0,0,1,3,3V63.74a3,3,0,0,1-3,3h-31V204.18a3,3,0,0,1-3,3Z"/><path d="M481.68,207.15a3,3,0,0,1-3-3V133.09H441.46v71.09a3,3,0,0,1-3,3H398a3,3,0,0,1-3-3V23.32a3,3,0,0,1,3-3H438.5a3,3,0,0,1,3,3V91h37.26V23.32a3,3,0,0,1,3-3h40.48a3,3,0,0,1,3,3V204.18a3,3,0,0,1-3,3Z"/><path d="M593.22,211.22c-24.8,0-41.45-6.39-49.49-19-5.45-8.35-8.25-22.37-8.57-42.83-.15-3-.22-6.84-.22-11.39a3,3,0,0,1,3-3h36.65a3,3,0,0,1,3,3c0,17.76,1.41,24.68,2.62,27.35,2.48,4.54,7.45,6.81,15.16,6.94,8.35,0,12.85-3.86,14.12-12.16a58.66,58.66,0,0,0,.42-12.7c-.08-.3-1.42-3.7-19.31-12.88-19.27-9.75-30.91-15.92-35.54-18.87-12.69-8.33-19-16-19.36-23.37-.93-24.26.23-40.58,3.54-49.91,4.71-13,15.13-21.28,31-24.49a116.05,116.05,0,0,1,23.53-2.1c27.2,0,45,8.4,52.82,25,4.14,9.1,6.14,23.39,6.14,43.72a3,3,0,0,1-3,3H613a3,3,0,0,1-3-3c0-13.68-1.48-19-2.72-21-2.39-3.84-7.52-5.8-15.23-5.8-9.64,0-14.49,3.85-15.27,12.13a53,53,0,0,0,.87,11c.11.73,1.47,4.53,17.69,12.28,17.77,8.23,27.57,12.93,29.94,14.36,16.85,9.64,25.67,20.12,26.17,31.09.77,22.76-.39,38-3.55,46.76-4.55,12.57-14.75,20.58-30.29,23.79A123.8,123.8,0,0,1,593.22,211.22Z"/><path d="M101.83,206.64a3,3,0,0,1-3-3V93.13L77.17,123.87a3,3,0,0,1-2.43,1.25h0a3,3,0,0,1-2.42-1.26L50.61,93V203.66a3,3,0,0,1-3,3H6.77a3,3,0,0,1-3-3V22.58a3,3,0,0,1,3-3H47.64a3,3,0,0,1,2.81,2l24.29,33L99,21.61a3,3,0,0,1,2.81-2H142.7a3,3,0,0,1,3,3V203.66a3,3,0,0,1-3,3Z"/><path d="M249.28,206.41a3,3,0,0,1-2.87-2.2l-6.18-22.86H198.94l-6.18,22.86a3,3,0,0,1-2.87,2.2H151.73a3,3,0,0,1-2.87-3.74L197.41,21.81a3,3,0,0,1,2.87-2.2h38.61a3,3,0,0,1,2.87,2.2L290.3,202.67a3,3,0,0,1-2.87,3.74Zm-40.87-60.92,22.16-.68L219.49,87.35Z"/><path d="M308.88,206.41a3,3,0,0,1-3-3V66H274.79a3,3,0,0,1-3-3V22.58a3,3,0,0,1,3-3H383.85a3,3,0,0,1,3,3V63a3,3,0,0,1-3,3H352.72V203.44a3,3,0,0,1-3,3Z"/><path d="M482.29,206.41a3,3,0,0,1-3-3V132.35H441.91v71.09a3,3,0,0,1-3,3H398.29a3,3,0,0,1-3-3V22.58a3,3,0,0,1,3-3h40.65a3,3,0,0,1,3,3v67.7h37.41V22.58a3,3,0,0,1,3-3h40.64a3,3,0,0,1,3,3V203.44a3,3,0,0,1-3,3Z"/><path d="M594.28,210.47c-24.9,0-41.62-6.38-49.69-19-5.47-8.35-8.28-22.37-8.6-42.82-.15-3-.22-6.84-.22-11.39a3,3,0,0,1,3-3h36.8a3,3,0,0,1,3,3c0,17.76,1.42,24.68,2.62,27.35,2.5,4.54,7.48,6.81,15.23,6.94,8.38,0,12.9-3.87,14.18-12.16a58.66,58.66,0,0,0,.42-12.7c-.08-.3-1.43-3.7-19.39-12.88-19.35-9.75-31-15.93-35.68-18.88-12.75-8.33-19.09-16-19.44-23.36-.93-24.27.23-40.58,3.55-49.91,4.73-13,15.19-21.28,31.11-24.5a117.71,117.71,0,0,1,23.62-2.09c27.32,0,45.16,8.4,53,25,4.15,9.1,6.16,23.39,6.16,43.73a3,3,0,0,1-3,3H614.15a3,3,0,0,1-3-3c0-13.68-1.48-19-2.73-21-2.4-3.83-7.55-5.8-15.3-5.8-9.67,0-14.54,3.86-15.32,12.14a53,53,0,0,0,.86,11c.12.72,1.49,4.53,17.77,12.27,17.84,8.24,27.68,12.94,30.06,14.36,16.92,9.65,25.78,20.12,26.27,31.09.78,22.76-.39,38.05-3.56,46.76-4.57,12.58-14.8,20.58-30.41,23.8A124.88,124.88,0,0,1,594.28,210.47Z"/></g><text class="cls-8" transform="translate(0 203.21)"><tspan class="cls-3">M</tspan><tspan class="cls-4" x="144.96" y="0">a</tspan><tspan class="cls-5" x="268.02" y="0">t</tspan><tspan class="cls-6" x="391.52" y="0">h</tspan><tspan x="531.96" y="0">s</tspan></text></g></g></g></svg>